<svg width="220" height="51" viewBox="0 0 220 51" fill="none" xmlns="http://www.w3.org/2000/svg">
<g clip-path="url(#clip0_12_40)">
<path d="M67.4025 23.2544L68.1274 25.1456H71.0757L64.5254 8.32874L58 25.1456H60.947L61.6495 23.2544H67.4025ZM62.5378 20.8947L64.5254 15.2197L66.5142 20.8947H62.5378Z" fill="#005555"/>
<path d="M76.6863 22.4134V8.7959H73.9501V25.1456H82.745V22.4134H76.6863Z" fill="#005555"/>
<path d="M92.1459 8.7959H86.696V11.5294L89.2924 15.6158H86.696V25.1456H89.4321V18.3256H92.1459C92.1459 18.3256 97.5957 18.3256 97.5957 13.5614C97.5957 8.7959 92.1459 8.7959 92.1459 8.7959ZM92.4964 15.5934L89.9474 11.5294H92.1459C92.1459 11.5294 94.882 11.5294 94.882 13.5614C94.882 15.1486 93.2214 15.5 92.4964 15.5934Z" fill="#005555"/>
<path d="M104.938 11.2951H106.763V8.7959H100.378V11.2951H102.202V22.6464H100.284V25.1456H106.857V22.6464H104.938V11.2951Z" fill="#005555"/>
<path d="M124.21 25.1456V8.7959H121.498V20.4274L113.334 8.7959H110.574V25.1456H113.31V13.514L121.45 25.1456H124.21Z" fill="#005555"/>
<path d="M131.692 11.5294H139.88V8.7959H128.956V25.1456H139.88V22.4134H131.692V18.3256H138.5V15.6158H131.692V11.5294Z" fill="#005555"/>
<path d="M160.959 11.0609V8.56171H151.369V11.0609H154.808V24.9114H157.52V11.0609H160.959Z" fill="#005555"/>
<path d="M172.839 24.9114H176.043L171.6 17.8111C173.19 17.3676 175.202 16.2226 175.202 13.3272C175.202 8.56171 169.729 8.56171 169.729 8.56171H164.279V11.2952L166.875 15.3817H164.279V24.9114H167.015V18.0914H168.582L172.839 24.9114ZM170.079 15.3592L167.53 11.2952H169.729C169.729 11.2952 172.465 11.2952 172.465 13.3272C172.465 14.9381 170.804 15.2882 170.079 15.3592Z" fill="#005555"/>
<path d="M182.333 11.2952H190.521V8.56171H179.597V24.9114H190.521V22.1792H182.333V18.0914H189.141V15.3817H182.333V11.2952Z" fill="#005555"/>
<path d="M200.483 16.8767L207.242 8.56171H203.828L197.114 16.8069V8.56171H194.378V24.9114H197.114V20.4275L198.658 18.6982L203.71 24.9114H207.289L200.483 16.8767Z" fill="#005555"/>
<path d="M215.052 25.1444C217.695 25.1444 220.152 23.44 220.152 20.3104C220.152 18.3718 219.216 16.7372 217.485 15.9423C216.315 15.4053 215.17 15.4053 215.052 15.4053C213.836 15.4053 212.667 14.6815 212.667 13.3272C212.667 11.8085 213.766 11.061 215.052 11.061C216.291 11.061 217.344 11.6689 217.392 13.0232H220.104C220.058 10.2437 217.882 8.32874 215.052 8.32874C212.41 8.32874 209.929 10.22 209.929 13.3272C209.929 15.2658 210.889 16.7135 212.596 17.5071C213.79 18.0441 214.911 18.0441 215.052 18.0441C216.152 18.0915 217.438 18.9324 217.438 20.3104C217.438 21.5949 216.315 22.4122 215.052 22.4122C213.836 22.4122 212.713 21.7344 212.667 20.3801H209.929C209.977 23.44 212.223 25.0746 215.052 25.1444Z" fill="#005555"/>
<mask id="path-12-outside-1_12_40" maskUnits="userSpaceOnUse" x="57" y="30" width="164" height="10" fill="black">
<rect fill="white" x="57" y="30" width="164" height="10"/>
<path d="M58 38.8939V31.4668H58.898V38.0875H62.7664V38.8939H58Z"/>
<path d="M67.6349 39C67.0362 39 66.5028 38.8798 66.0346 38.6393C65.5741 38.3988 65.2134 38.0628 64.9524 37.6313C64.6914 37.1998 64.561 36.7047 64.561 36.1459C64.561 35.7144 64.6339 35.3254 64.7797 34.9788C64.9255 34.6251 65.1289 34.3174 65.3899 34.0557C65.6585 33.794 65.9771 33.5924 66.3455 33.4509C66.7139 33.3024 67.113 33.2281 67.5428 33.2281C67.9496 33.2281 68.318 33.2953 68.6481 33.4297C68.9858 33.5641 69.2736 33.7515 69.5115 33.992C69.7571 34.2255 69.9414 34.5049 70.0642 34.8302C70.187 35.1556 70.2407 35.5128 70.2253 35.9019L70.2138 36.2732H65.2057L65.079 35.6048H69.5576L69.3504 35.7851V35.5305C69.335 35.2759 69.2544 35.0318 69.1086 34.7984C68.9628 34.5579 68.7555 34.3634 68.4869 34.2149C68.2259 34.0663 67.9112 33.992 67.5428 33.992C67.113 33.992 66.7407 34.0734 66.4261 34.2361C66.1114 34.3917 65.8696 34.6251 65.7007 34.9363C65.5319 35.2476 65.4475 35.6331 65.4475 36.0928C65.4475 36.5314 65.5396 36.9134 65.7238 37.2387C65.908 37.557 66.1689 37.8046 66.5067 37.9814C66.852 38.1583 67.2665 38.2467 67.7501 38.2467C68.034 38.2467 68.3142 38.2042 68.5905 38.1194C68.8745 38.0274 69.1853 37.8506 69.5231 37.5889L69.9721 38.1618C69.7955 38.3245 69.5845 38.4695 69.3388 38.5968C69.0932 38.7171 68.8246 38.8161 68.5329 38.8939C68.2413 38.9646 67.9419 39 67.6349 39Z"/>
<path d="M74.8366 39C74.3146 39 73.8426 38.8762 73.4205 38.6286C72.9983 38.374 72.6644 38.0309 72.4188 37.5995C72.1732 37.1609 72.0504 36.6658 72.0504 36.1141C72.0504 35.5553 72.1771 35.0601 72.4303 34.6286C72.6836 34.1972 73.0213 33.8576 73.4435 33.6101C73.8733 33.3625 74.353 33.2387 74.8826 33.2387C75.1973 33.2387 75.489 33.2812 75.7576 33.366C76.0262 33.4509 76.2642 33.5712 76.4714 33.7268C76.6863 33.8753 76.8628 34.0522 77.001 34.2573C77.1468 34.4553 77.2466 34.6711 77.3003 34.9045L77.0471 34.7878L77.0816 33.3554H77.9451V38.8939H77.0701V37.5358L77.3003 37.3979C77.2466 37.6101 77.143 37.8152 76.9895 38.0133C76.836 38.2042 76.6479 38.374 76.4253 38.5225C76.2104 38.6711 75.9648 38.7878 75.6885 38.8727C75.4199 38.9576 75.1359 39 74.8366 39ZM75.0323 38.2361C75.4314 38.2361 75.7883 38.1477 76.103 37.9708C76.4177 37.7869 76.6633 37.5358 76.8398 37.2175C77.024 36.8921 77.1161 36.5243 77.1161 36.1141C77.1161 35.7038 77.024 35.3395 76.8398 35.0212C76.6633 34.7029 76.4177 34.4518 76.103 34.2679C75.7883 34.084 75.4314 33.992 75.0323 33.992C74.6255 33.992 74.2647 34.084 73.9501 34.2679C73.643 34.4518 73.3974 34.7029 73.2132 35.0212C73.0367 35.3395 72.9484 35.7038 72.9484 36.1141C72.9484 36.5172 73.0367 36.8815 73.2132 37.2069C73.3898 37.5252 73.6354 37.7763 73.9501 37.9602C74.2647 38.1441 74.6255 38.2361 75.0323 38.2361Z"/>
<path d="M82.3937 38.8939L79.8608 33.3554H80.8164L82.8196 37.8859L82.5894 38.0027L84.7884 33.3554H85.7094L83.0154 38.8939H82.3937Z"/>
<path d="M90.239 39C89.6404 39 89.1069 38.8798 88.6387 38.6393C88.1782 38.3988 87.8175 38.0628 87.5565 37.6313C87.2955 37.1998 87.1651 36.7047 87.1651 36.1459C87.1651 35.7144 87.238 35.3254 87.3838 34.9788C87.5296 34.6251 87.733 34.3174 87.994 34.0557C88.2626 33.794 88.5812 33.5924 88.9496 33.4509C89.318 33.3024 89.7171 33.2281 90.1469 33.2281C90.5537 33.2281 90.9221 33.2953 91.2522 33.4297C91.5899 33.5641 91.8777 33.7515 92.1156 33.992C92.3613 34.2255 92.5455 34.5049 92.6683 34.8302C92.7911 35.1556 92.8448 35.5128 92.8295 35.9019L92.8179 36.2732H87.8098L87.6832 35.6048H92.1617L91.9545 35.7851V35.5305C91.9391 35.2759 91.8585 35.0318 91.7127 34.7984C91.5669 34.5579 91.3596 34.3634 91.091 34.2149C90.83 34.0663 90.5153 33.992 90.1469 33.992C89.7171 33.992 89.3449 34.0734 89.0302 34.2361C88.7155 34.3917 88.4737 34.6251 88.3049 34.9363C88.136 35.2476 88.0516 35.6331 88.0516 36.0928C88.0516 36.5314 88.1437 36.9134 88.3279 37.2387C88.5121 37.557 88.773 37.8046 89.1108 37.9814C89.4562 38.1583 89.8706 38.2467 90.3542 38.2467C90.6381 38.2467 90.9183 38.2042 91.1946 38.1194C91.4786 38.0274 91.7894 37.8506 92.1272 37.5889L92.5762 38.1618C92.3996 38.3245 92.1886 38.4695 91.943 38.5968C91.6973 38.7171 91.4287 38.8161 91.137 38.8939C90.8454 38.9646 90.546 39 90.239 39Z"/>
<path d="M101.704 39C101.182 39 100.71 38.8762 100.288 38.6286C99.8654 38.374 99.5315 38.0309 99.2859 37.5995C99.0403 37.1609 98.9175 36.6658 98.9175 36.1141C98.9175 35.5553 99.0441 35.0601 99.2974 34.6286C99.5507 34.1972 99.8884 33.8576 100.311 33.6101C100.74 33.3625 101.22 33.2387 101.75 33.2387C102.064 33.2387 102.356 33.2812 102.625 33.366C102.893 33.4509 103.131 33.5712 103.338 33.7268C103.553 33.8753 103.73 34.0522 103.868 34.2573C104.014 34.4553 104.114 34.6711 104.167 34.9045L103.914 34.7878L103.949 33.3554H104.812V38.8939H103.937V37.5358L104.167 37.3979C104.114 37.6101 104.01 37.8152 103.857 38.0133C103.703 38.2042 103.515 38.374 103.292 38.5225C103.078 38.6711 102.832 38.7878 102.556 38.8727C102.287 38.9576 102.003 39 101.704 39ZM101.899 38.2361C102.298 38.2361 102.655 38.1477 102.97 37.9708C103.285 37.7869 103.53 37.5358 103.707 37.2175C103.891 36.8921 103.983 36.5243 103.983 36.1141C103.983 35.7038 103.891 35.3395 103.707 35.0212C103.53 34.7029 103.285 34.4518 102.97 34.2679C102.655 34.084 102.298 33.992 101.899 33.992C101.493 33.992 101.132 34.084 100.817 34.2679C100.51 34.4518 100.264 34.7029 100.08 35.0212C99.9038 35.3395 99.8155 35.7038 99.8155 36.1141C99.8155 36.5172 99.9038 36.8815 100.08 37.2069C100.257 37.5252 100.502 37.7763 100.817 37.9602C101.132 38.1441 101.493 38.2361 101.899 38.2361Z"/>
<path d="M113.601 38.8939V32.2732H111.298V31.4668H116.894V32.2732H114.499V38.8939H113.601Z"/>
<path d="M118.417 38.8939V33.3554H119.281L119.304 34.8302L119.212 34.6286C119.296 34.3811 119.431 34.1512 119.615 33.939C119.807 33.7268 120.033 33.557 120.294 33.4297C120.555 33.3024 120.843 33.2387 121.158 33.2387C121.288 33.2387 121.411 33.2493 121.526 33.2706C121.641 33.2847 121.737 33.3059 121.814 33.3342L121.572 34.2255C121.472 34.183 121.369 34.1547 121.261 34.1406C121.161 34.1194 121.065 34.1088 120.973 34.1088C120.712 34.1088 120.478 34.1512 120.271 34.2361C120.064 34.321 119.887 34.4412 119.741 34.5968C119.596 34.7454 119.484 34.9187 119.408 35.1167C119.331 35.3148 119.292 35.527 119.292 35.7533V38.8939H118.417Z"/>
<path d="M125.839 39C125.317 39 124.845 38.8762 124.422 38.6286C124 38.374 123.666 38.0309 123.421 37.5995C123.175 37.1609 123.052 36.6658 123.052 36.1141C123.052 35.5553 123.179 35.0601 123.432 34.6286C123.686 34.1972 124.023 33.8576 124.446 33.6101C124.875 33.3625 125.355 33.2387 125.885 33.2387C126.199 33.2387 126.491 33.2812 126.76 33.366C127.028 33.4509 127.266 33.5712 127.473 33.7268C127.688 33.8753 127.865 34.0522 128.003 34.2573C128.149 34.4553 128.249 34.6711 128.302 34.9045L128.049 34.7878L128.084 33.3554H128.947V38.8939H128.072V37.5358L128.302 37.3979C128.249 37.6101 128.145 37.8152 127.992 38.0133C127.838 38.2042 127.65 38.374 127.427 38.5225C127.212 38.6711 126.967 38.7878 126.691 38.8727C126.422 38.9576 126.138 39 125.839 39ZM126.034 38.2361C126.433 38.2361 126.79 38.1477 127.105 37.9708C127.42 37.7869 127.665 37.5358 127.842 37.2175C128.026 36.8921 128.118 36.5243 128.118 36.1141C128.118 35.7038 128.026 35.3395 127.842 35.0212C127.665 34.7029 127.42 34.4518 127.105 34.2679C126.79 34.084 126.433 33.992 126.034 33.992C125.628 33.992 125.267 34.084 124.952 34.2679C124.645 34.4518 124.399 34.7029 124.215 35.0212C124.039 35.3395 123.95 35.7038 123.95 36.1141C123.95 36.5172 124.039 36.8815 124.215 37.2069C124.392 37.5252 124.637 37.7763 124.952 37.9602C125.267 38.1441 125.628 38.2361 126.034 38.2361Z"/>
<path d="M131.896 38.8939V33.3554H132.759V38.8939H131.896ZM132.322 32.1565C132.107 32.1565 131.942 32.107 131.827 32.008C131.719 31.9019 131.666 31.7604 131.666 31.5836C131.666 31.4067 131.723 31.2653 131.838 31.1592C131.953 31.0531 132.115 31 132.322 31C132.529 31 132.69 31.0531 132.805 31.1592C132.92 31.2582 132.978 31.3996 132.978 31.5836C132.978 31.7533 132.92 31.8912 132.805 31.9973C132.69 32.1034 132.529 32.1565 132.322 32.1565Z"/>
<path d="M135.704 38.8939V31.0424H136.568V38.8939H135.704Z"/>
<path d="M146.226 39C145.627 39 145.094 38.8762 144.625 38.6286C144.165 38.3811 143.8 38.038 143.532 37.5995C143.271 37.1609 143.14 36.6622 143.14 36.1034C143.14 35.5517 143.271 35.0601 143.532 34.6286C143.8 34.1972 144.165 33.8576 144.625 33.6101C145.094 33.3625 145.627 33.2387 146.226 33.2387C146.817 33.2387 147.342 33.3625 147.803 33.6101C148.271 33.8576 148.636 34.1972 148.897 34.6286C149.165 35.0601 149.3 35.5517 149.3 36.1034C149.3 36.6622 149.165 37.1609 148.897 37.5995C148.636 38.038 148.271 38.3811 147.803 38.6286C147.342 38.8762 146.817 39 146.226 39ZM146.226 38.2467C146.648 38.2467 147.024 38.1547 147.354 37.9708C147.684 37.7798 147.941 37.5252 148.125 37.2069C148.309 36.8815 148.402 36.5137 148.402 36.1034C148.402 35.6932 148.309 35.3289 148.125 35.0106C147.941 34.6923 147.684 34.4447 147.354 34.2679C147.024 34.084 146.648 33.992 146.226 33.992C145.804 33.992 145.424 34.084 145.086 34.2679C144.756 34.4447 144.495 34.6958 144.303 35.0212C144.119 35.3395 144.031 35.7003 144.038 36.1034C144.031 36.5137 144.119 36.8815 144.303 37.2069C144.495 37.5252 144.756 37.7798 145.086 37.9708C145.424 38.1547 145.804 38.2467 146.226 38.2467Z"/>
<path d="M152.061 38.8939V32.496C152.061 32.2202 152.127 31.9761 152.257 31.7639C152.388 31.5517 152.572 31.3855 152.81 31.2653C153.055 31.1379 153.339 31.0743 153.662 31.0743C153.907 31.0743 154.126 31.1167 154.318 31.2016C154.518 31.2794 154.683 31.389 154.813 31.5305L154.514 32.1565C154.391 32.0363 154.257 31.9514 154.111 31.9019C153.973 31.8453 153.838 31.817 153.708 31.817C153.539 31.817 153.397 31.8453 153.282 31.9019C153.167 31.9514 153.078 32.0292 153.017 32.1353C152.963 32.2343 152.936 32.3546 152.936 32.496V38.8939H152.534C152.449 38.8939 152.368 38.8939 152.292 38.8939C152.215 38.8939 152.138 38.8939 152.061 38.8939ZM150.991 34.1406V33.3979H154.468V34.1406H150.991Z"/>
<path d="M161.366 38.8939V31.4668H162.241L165.338 36.1034L164.924 36.0928L168.055 31.4668H168.873V38.8939H167.975V35.4987C167.975 34.8621 167.986 34.2891 168.009 33.7798C168.032 33.2706 168.075 32.7648 168.136 32.2626L168.297 32.5597L165.407 36.7401H164.786L161.976 32.6127L162.103 32.2626C162.165 32.7365 162.207 33.2246 162.23 33.7268C162.253 34.2219 162.264 34.8126 162.264 35.4987V38.8939H161.366Z"/>
<path d="M174.588 39C173.989 39 173.456 38.8798 172.987 38.6393C172.527 38.3988 172.166 38.0628 171.905 37.6313C171.644 37.1998 171.514 36.7047 171.514 36.1459C171.514 35.7144 171.587 35.3254 171.733 34.9788C171.878 34.6251 172.082 34.3174 172.343 34.0557C172.611 33.794 172.93 33.5924 173.298 33.4509C173.667 33.3024 174.066 33.2281 174.496 33.2281C174.902 33.2281 175.271 33.2953 175.601 33.4297C175.939 33.5641 176.226 33.7515 176.464 33.992C176.71 34.2255 176.894 34.5049 177.017 34.8302C177.14 35.1556 177.194 35.5128 177.178 35.9019L177.167 36.2732H172.159L172.032 35.6048H176.51L176.303 35.7851V35.5305C176.288 35.2759 176.207 35.0318 176.061 34.7984C175.916 34.5579 175.708 34.3634 175.44 34.2149C175.179 34.0663 174.864 33.992 174.496 33.992C174.066 33.992 173.694 34.0734 173.379 34.2361C173.064 34.3917 172.822 34.6251 172.654 34.9363C172.485 35.2476 172.4 35.6331 172.4 36.0928C172.4 36.5314 172.492 36.9134 172.677 37.2387C172.861 37.557 173.122 37.8046 173.459 37.9814C173.805 38.1583 174.219 38.2467 174.703 38.2467C174.987 38.2467 175.267 38.2042 175.543 38.1194C175.827 38.0274 176.138 37.8506 176.476 37.5889L176.925 38.1618C176.748 38.3245 176.537 38.4695 176.292 38.5968C176.046 38.7171 175.777 38.8161 175.486 38.8939C175.194 38.9646 174.895 39 174.588 39Z"/>
<path d="M179.429 38.8939V33.3554H180.293L180.316 34.618L180.143 34.6711C180.204 34.4589 180.304 34.2679 180.442 34.0981C180.588 33.9213 180.761 33.7692 180.96 33.6419C181.16 33.5146 181.379 33.4191 181.617 33.3554C181.855 33.2847 182.104 33.2493 182.365 33.2493C182.68 33.2493 182.96 33.2989 183.206 33.3979C183.459 33.4898 183.67 33.6525 183.839 33.8859C184.015 34.1123 184.15 34.4129 184.242 34.7878L184.034 34.6923L184.115 34.5119C184.192 34.3492 184.303 34.1936 184.449 34.0451C184.602 33.8895 184.775 33.7515 184.967 33.6313C185.167 33.5111 185.381 33.4191 185.612 33.3554C185.85 33.2847 186.091 33.2493 186.337 33.2493C186.759 33.2493 187.116 33.3342 187.408 33.504C187.699 33.6667 187.918 33.9178 188.064 34.2573C188.217 34.5968 188.294 35.0283 188.294 35.5517V38.8939H187.408V35.5942C187.408 35.2263 187.358 34.9257 187.258 34.6923C187.158 34.4589 187.009 34.2856 186.809 34.1724C186.617 34.0522 186.372 33.992 186.072 33.992C185.811 33.992 185.57 34.0345 185.347 34.1194C185.132 34.1972 184.944 34.3103 184.783 34.4589C184.629 34.6004 184.506 34.763 184.414 34.9469C184.33 35.1309 184.288 35.3289 184.288 35.5411V38.8939H183.413V35.5836C183.413 35.2299 183.359 34.9363 183.252 34.7029C183.152 34.4695 183.002 34.2927 182.803 34.1724C182.603 34.0522 182.357 33.992 182.066 33.992C181.812 33.992 181.578 34.0345 181.363 34.1194C181.149 34.1972 180.96 34.3068 180.799 34.4483C180.646 34.5897 180.523 34.7524 180.431 34.9363C180.346 35.1202 180.304 35.3183 180.304 35.5305V38.8939H179.429Z"/>
<path d="M193.626 39C193.028 39 192.494 38.8762 192.026 38.6286C191.565 38.3811 191.201 38.038 190.932 37.5995C190.671 37.1609 190.541 36.6622 190.541 36.1034C190.541 35.5517 190.671 35.0601 190.932 34.6286C191.201 34.1972 191.565 33.8576 192.026 33.6101C192.494 33.3625 193.028 33.2387 193.626 33.2387C194.217 33.2387 194.743 33.3625 195.204 33.6101C195.672 33.8576 196.036 34.1972 196.297 34.6286C196.566 35.0601 196.7 35.5517 196.7 36.1034C196.7 36.6622 196.566 37.1609 196.297 37.5995C196.036 38.038 195.672 38.3811 195.204 38.6286C194.743 38.8762 194.217 39 193.626 39ZM193.626 38.2467C194.048 38.2467 194.425 38.1547 194.755 37.9708C195.085 37.7798 195.342 37.5252 195.526 37.2069C195.71 36.8815 195.802 36.5137 195.802 36.1034C195.802 35.6932 195.71 35.3289 195.526 35.0106C195.342 34.6923 195.085 34.4447 194.755 34.2679C194.425 34.084 194.048 33.992 193.626 33.992C193.204 33.992 192.824 34.084 192.486 34.2679C192.156 34.4447 191.895 34.6958 191.704 35.0212C191.519 35.3395 191.431 35.7003 191.439 36.1034C191.431 36.5137 191.519 36.8815 191.704 37.2069C191.895 37.5252 192.156 37.7798 192.486 37.9708C192.824 38.1547 193.204 38.2467 193.626 38.2467Z"/>
<path d="M198.996 38.8939V33.3554H199.86L199.883 34.8302L199.791 34.6286C199.875 34.3811 200.009 34.1512 200.194 33.939C200.385 33.7268 200.612 33.557 200.873 33.4297C201.134 33.3024 201.422 33.2387 201.736 33.2387C201.867 33.2387 201.99 33.2493 202.105 33.2706C202.22 33.2847 202.316 33.3059 202.393 33.3342L202.151 34.2255C202.051 34.183 201.947 34.1547 201.84 34.1406C201.74 34.1194 201.644 34.1088 201.552 34.1088C201.291 34.1088 201.057 34.1512 200.85 34.2361C200.643 34.321 200.466 34.4412 200.32 34.5968C200.174 34.7454 200.063 34.9187 199.986 35.1167C199.91 35.3148 199.871 35.527 199.871 35.7533V38.8939H198.996Z"/>
<path d="M204.557 38.8939V33.3554H205.421V38.8939H204.557ZM204.983 32.1565C204.769 32.1565 204.604 32.107 204.488 32.008C204.381 31.9019 204.327 31.7604 204.327 31.5836C204.327 31.4067 204.385 31.2653 204.5 31.1592C204.615 31.0531 204.776 31 204.983 31C205.191 31 205.352 31.0531 205.467 31.1592C205.582 31.2582 205.64 31.3996 205.64 31.5836C205.64 31.7533 205.582 31.8912 205.467 31.9973C205.352 32.1034 205.191 32.1565 204.983 32.1565Z"/>
<path d="M210.991 39C210.392 39 209.859 38.8798 209.391 38.6393C208.93 38.3988 208.569 38.0628 208.308 37.6313C208.047 37.1998 207.917 36.7047 207.917 36.1459C207.917 35.7144 207.99 35.3254 208.136 34.9788C208.281 34.6251 208.485 34.3174 208.746 34.0557C209.014 33.794 209.333 33.5924 209.701 33.4509C210.07 33.3024 210.469 33.2281 210.899 33.2281C211.306 33.2281 211.674 33.2953 212.004 33.4297C212.342 33.5641 212.629 33.7515 212.867 33.992C213.113 34.2255 213.297 34.5049 213.42 34.8302C213.543 35.1556 213.597 35.5128 213.581 35.9019L213.57 36.2732H208.562L208.435 35.6048H212.913L212.706 35.7851V35.5305C212.691 35.2759 212.61 35.0318 212.464 34.7984C212.319 34.5579 212.111 34.3634 211.843 34.2149C211.582 34.0663 211.267 33.992 210.899 33.992C210.469 33.992 210.097 34.0734 209.782 34.2361C209.467 34.3917 209.225 34.6251 209.057 34.9363C208.888 35.2476 208.803 35.6331 208.803 36.0928C208.803 36.5314 208.895 36.9134 209.08 37.2387C209.264 37.557 209.525 37.8046 209.863 37.9814C210.208 38.1583 210.622 38.2467 211.106 38.2467C211.39 38.2467 211.67 38.2042 211.946 38.1194C212.23 38.0274 212.541 37.8506 212.879 37.5889L213.328 38.1618C213.151 38.3245 212.94 38.4695 212.695 38.5968C212.449 38.7171 212.18 38.8161 211.889 38.8939C211.597 38.9646 211.298 39 210.991 39Z"/>
<path d="M217.813 39C217.298 39 216.838 38.9116 216.431 38.7347C216.024 38.5579 215.702 38.3245 215.464 38.0345L216.074 37.5464C216.297 37.794 216.558 37.9814 216.857 38.1088C217.164 38.2361 217.506 38.2997 217.882 38.2997C218.073 38.2997 218.246 38.2821 218.4 38.2467C218.553 38.2042 218.688 38.1441 218.803 38.0663C218.918 37.9885 219.006 37.8966 219.067 37.7905C219.129 37.6843 219.16 37.5676 219.16 37.4403C219.16 37.2069 219.048 37.0124 218.826 36.8568C218.726 36.7931 218.584 36.7294 218.4 36.6658C218.215 36.595 217.993 36.5279 217.732 36.4642C217.302 36.351 216.945 36.2378 216.661 36.1247C216.377 36.0044 216.155 35.8665 215.993 35.7109C215.878 35.5836 215.79 35.4456 215.729 35.2971C215.675 35.1485 215.648 34.9859 215.648 34.809C215.648 34.5827 215.698 34.374 215.798 34.183C215.905 33.992 216.051 33.8258 216.235 33.6843C216.427 33.5358 216.65 33.4262 216.903 33.3554C217.164 33.2776 217.444 33.2387 217.743 33.2387C218.027 33.2387 218.308 33.2741 218.584 33.3448C218.86 33.4156 219.117 33.5181 219.355 33.6525C219.593 33.7869 219.797 33.9461 219.965 34.13L219.436 34.6605C219.29 34.519 219.129 34.3917 218.952 34.2785C218.776 34.1653 218.588 34.0769 218.388 34.0133C218.196 33.9496 217.997 33.9178 217.79 33.9178C217.605 33.9178 217.433 33.939 217.271 33.9814C217.118 34.0239 216.984 34.084 216.868 34.1618C216.761 34.2325 216.677 34.321 216.615 34.4271C216.561 34.5332 216.535 34.6499 216.535 34.7772C216.535 34.8833 216.558 34.9788 216.604 35.0637C216.65 35.1485 216.715 35.2228 216.799 35.2865C216.907 35.3643 217.057 35.4385 217.248 35.5093C217.448 35.5729 217.694 35.6401 217.985 35.7109C218.323 35.7958 218.607 35.8842 218.837 35.9761C219.075 36.061 219.271 36.1636 219.424 36.2838C219.632 36.4253 219.777 36.588 219.862 36.7719C219.954 36.9558 220 37.1645 220 37.3979C220 37.7091 219.904 37.985 219.712 38.2255C219.528 38.466 219.271 38.6569 218.941 38.7984C218.611 38.9328 218.235 39 217.813 39Z"/>
</mask>
<path d="M58 38.8939V31.4668H58.898V38.0875H62.7664V38.8939H58Z" fill="#3E3E3E"/>
<path d="M67.6349 39C67.0362 39 66.5028 38.8798 66.0346 38.6393C65.5741 38.3988 65.2134 38.0628 64.9524 37.6313C64.6914 37.1998 64.561 36.7047 64.561 36.1459C64.561 35.7144 64.6339 35.3254 64.7797 34.9788C64.9255 34.6251 65.1289 34.3174 65.3899 34.0557C65.6585 33.794 65.9771 33.5924 66.3455 33.4509C66.7139 33.3024 67.113 33.2281 67.5428 33.2281C67.9496 33.2281 68.318 33.2953 68.6481 33.4297C68.9858 33.5641 69.2736 33.7515 69.5115 33.992C69.7571 34.2255 69.9414 34.5049 70.0642 34.8302C70.187 35.1556 70.2407 35.5128 70.2253 35.9019L70.2138 36.2732H65.2057L65.079 35.6048H69.5576L69.3504 35.7851V35.5305C69.335 35.2759 69.2544 35.0318 69.1086 34.7984C68.9628 34.5579 68.7555 34.3634 68.4869 34.2149C68.2259 34.0663 67.9112 33.992 67.5428 33.992C67.113 33.992 66.7407 34.0734 66.4261 34.2361C66.1114 34.3917 65.8696 34.6251 65.7007 34.9363C65.5319 35.2476 65.4475 35.6331 65.4475 36.0928C65.4475 36.5314 65.5396 36.9134 65.7238 37.2387C65.908 37.557 66.1689 37.8046 66.5067 37.9814C66.852 38.1583 67.2665 38.2467 67.7501 38.2467C68.034 38.2467 68.3142 38.2042 68.5905 38.1194C68.8745 38.0274 69.1853 37.8506 69.5231 37.5889L69.9721 38.1618C69.7955 38.3245 69.5845 38.4695 69.3388 38.5968C69.0932 38.7171 68.8246 38.8161 68.5329 38.8939C68.2413 38.9646 67.9419 39 67.6349 39Z" fill="#3E3E3E"/>
<path d="M74.8366 39C74.3146 39 73.8426 38.8762 73.4205 38.6286C72.9983 38.374 72.6644 38.0309 72.4188 37.5995C72.1732 37.1609 72.0504 36.6658 72.0504 36.1141C72.0504 35.5553 72.1771 35.0601 72.4303 34.6286C72.6836 34.1972 73.0213 33.8576 73.4435 33.6101C73.8733 33.3625 74.353 33.2387 74.8826 33.2387C75.1973 33.2387 75.489 33.2812 75.7576 33.366C76.0262 33.4509 76.2642 33.5712 76.4714 33.7268C76.6863 33.8753 76.8628 34.0522 77.001 34.2573C77.1468 34.4553 77.2466 34.6711 77.3003 34.9045L77.0471 34.7878L77.0816 33.3554H77.9451V38.8939H77.0701V37.5358L77.3003 37.3979C77.2466 37.6101 77.143 37.8152 76.9895 38.0133C76.836 38.2042 76.6479 38.374 76.4253 38.5225C76.2104 38.6711 75.9648 38.7878 75.6885 38.8727C75.4199 38.9576 75.1359 39 74.8366 39ZM75.0323 38.2361C75.4314 38.2361 75.7883 38.1477 76.103 37.9708C76.4177 37.7869 76.6633 37.5358 76.8398 37.2175C77.024 36.8921 77.1161 36.5243 77.1161 36.1141C77.1161 35.7038 77.024 35.3395 76.8398 35.0212C76.6633 34.7029 76.4177 34.4518 76.103 34.2679C75.7883 34.084 75.4314 33.992 75.0323 33.992C74.6255 33.992 74.2647 34.084 73.9501 34.2679C73.643 34.4518 73.3974 34.7029 73.2132 35.0212C73.0367 35.3395 72.9484 35.7038 72.9484 36.1141C72.9484 36.5172 73.0367 36.8815 73.2132 37.2069C73.3898 37.5252 73.6354 37.7763 73.9501 37.9602C74.2647 38.1441 74.6255 38.2361 75.0323 38.2361Z" fill="#3E3E3E"/>
<path d="M82.3937 38.8939L79.8608 33.3554H80.8164L82.8196 37.8859L82.5894 38.0027L84.7884 33.3554H85.7094L83.0154 38.8939H82.3937Z" fill="#3E3E3E"/>
<path d="M90.239 39C89.6404 39 89.1069 38.8798 88.6387 38.6393C88.1782 38.3988 87.8175 38.0628 87.5565 37.6313C87.2955 37.1998 87.1651 36.7047 87.1651 36.1459C87.1651 35.7144 87.238 35.3254 87.3838 34.9788C87.5296 34.6251 87.733 34.3174 87.994 34.0557C88.2626 33.794 88.5812 33.5924 88.9496 33.4509C89.318 33.3024 89.7171 33.2281 90.1469 33.2281C90.5537 33.2281 90.9221 33.2953 91.2522 33.4297C91.5899 33.5641 91.8777 33.7515 92.1156 33.992C92.3613 34.2255 92.5455 34.5049 92.6683 34.8302C92.7911 35.1556 92.8448 35.5128 92.8295 35.9019L92.8179 36.2732H87.8098L87.6832 35.6048H92.1617L91.9545 35.7851V35.5305C91.9391 35.2759 91.8585 35.0318 91.7127 34.7984C91.5669 34.5579 91.3596 34.3634 91.091 34.2149C90.83 34.0663 90.5153 33.992 90.1469 33.992C89.7171 33.992 89.3449 34.0734 89.0302 34.2361C88.7155 34.3917 88.4737 34.6251 88.3049 34.9363C88.136 35.2476 88.0516 35.6331 88.0516 36.0928C88.0516 36.5314 88.1437 36.9134 88.3279 37.2387C88.5121 37.557 88.773 37.8046 89.1108 37.9814C89.4562 38.1583 89.8706 38.2467 90.3542 38.2467C90.6381 38.2467 90.9183 38.2042 91.1946 38.1194C91.4786 38.0274 91.7894 37.8506 92.1272 37.5889L92.5762 38.1618C92.3996 38.3245 92.1886 38.4695 91.943 38.5968C91.6973 38.7171 91.4287 38.8161 91.137 38.8939C90.8454 38.9646 90.546 39 90.239 39Z" fill="#3E3E3E"/>
<path d="M101.704 39C101.182 39 100.71 38.8762 100.288 38.6286C99.8654 38.374 99.5315 38.0309 99.2859 37.5995C99.0403 37.1609 98.9175 36.6658 98.9175 36.1141C98.9175 35.5553 99.0441 35.0601 99.2974 34.6286C99.5507 34.1972 99.8884 33.8576 100.311 33.6101C100.74 33.3625 101.22 33.2387 101.75 33.2387C102.064 33.2387 102.356 33.2812 102.625 33.366C102.893 33.4509 103.131 33.5712 103.338 33.7268C103.553 33.8753 103.73 34.0522 103.868 34.2573C104.014 34.4553 104.114 34.6711 104.167 34.9045L103.914 34.7878L103.949 33.3554H104.812V38.8939H103.937V37.5358L104.167 37.3979C104.114 37.6101 104.01 37.8152 103.857 38.0133C103.703 38.2042 103.515 38.374 103.292 38.5225C103.078 38.6711 102.832 38.7878 102.556 38.8727C102.287 38.9576 102.003 39 101.704 39ZM101.899 38.2361C102.298 38.2361 102.655 38.1477 102.97 37.9708C103.285 37.7869 103.53 37.5358 103.707 37.2175C103.891 36.8921 103.983 36.5243 103.983 36.1141C103.983 35.7038 103.891 35.3395 103.707 35.0212C103.53 34.7029 103.285 34.4518 102.97 34.2679C102.655 34.084 102.298 33.992 101.899 33.992C101.493 33.992 101.132 34.084 100.817 34.2679C100.51 34.4518 100.264 34.7029 100.08 35.0212C99.9038 35.3395 99.8155 35.7038 99.8155 36.1141C99.8155 36.5172 99.9038 36.8815 100.08 37.2069C100.257 37.5252 100.502 37.7763 100.817 37.9602C101.132 38.1441 101.493 38.2361 101.899 38.2361Z" fill="#3E3E3E"/>
<path d="M113.601 38.8939V32.2732H111.298V31.4668H116.894V32.2732H114.499V38.8939H113.601Z" fill="#3E3E3E"/>
<path d="M118.417 38.8939V33.3554H119.281L119.304 34.8302L119.212 34.6286C119.296 34.3811 119.431 34.1512 119.615 33.939C119.807 33.7268 120.033 33.557 120.294 33.4297C120.555 33.3024 120.843 33.2387 121.158 33.2387C121.288 33.2387 121.411 33.2493 121.526 33.2706C121.641 33.2847 121.737 33.3059 121.814 33.3342L121.572 34.2255C121.472 34.183 121.369 34.1547 121.261 34.1406C121.161 34.1194 121.065 34.1088 120.973 34.1088C120.712 34.1088 120.478 34.1512 120.271 34.2361C120.064 34.321 119.887 34.4412 119.741 34.5968C119.596 34.7454 119.484 34.9187 119.408 35.1167C119.331 35.3148 119.292 35.527 119.292 35.7533V38.8939H118.417Z" fill="#3E3E3E"/>
<path d="M125.839 39C125.317 39 124.845 38.8762 124.422 38.6286C124 38.374 123.666 38.0309 123.421 37.5995C123.175 37.1609 123.052 36.6658 123.052 36.1141C123.052 35.5553 123.179 35.0601 123.432 34.6286C123.686 34.1972 124.023 33.8576 124.446 33.6101C124.875 33.3625 125.355 33.2387 125.885 33.2387C126.199 33.2387 126.491 33.2812 126.76 33.366C127.028 33.4509 127.266 33.5712 127.473 33.7268C127.688 33.8753 127.865 34.0522 128.003 34.2573C128.149 34.4553 128.249 34.6711 128.302 34.9045L128.049 34.7878L128.084 33.3554H128.947V38.8939H128.072V37.5358L128.302 37.3979C128.249 37.6101 128.145 37.8152 127.992 38.0133C127.838 38.2042 127.65 38.374 127.427 38.5225C127.212 38.6711 126.967 38.7878 126.691 38.8727C126.422 38.9576 126.138 39 125.839 39ZM126.034 38.2361C126.433 38.2361 126.79 38.1477 127.105 37.9708C127.42 37.7869 127.665 37.5358 127.842 37.2175C128.026 36.8921 128.118 36.5243 128.118 36.1141C128.118 35.7038 128.026 35.3395 127.842 35.0212C127.665 34.7029 127.42 34.4518 127.105 34.2679C126.79 34.084 126.433 33.992 126.034 33.992C125.628 33.992 125.267 34.084 124.952 34.2679C124.645 34.4518 124.399 34.7029 124.215 35.0212C124.039 35.3395 123.95 35.7038 123.95 36.1141C123.95 36.5172 124.039 36.8815 124.215 37.2069C124.392 37.5252 124.637 37.7763 124.952 37.9602C125.267 38.1441 125.628 38.2361 126.034 38.2361Z" fill="#3E3E3E"/>
<path d="M131.896 38.8939V33.3554H132.759V38.8939H131.896ZM132.322 32.1565C132.107 32.1565 131.942 32.107 131.827 32.008C131.719 31.9019 131.666 31.7604 131.666 31.5836C131.666 31.4067 131.723 31.2653 131.838 31.1592C131.953 31.0531 132.115 31 132.322 31C132.529 31 132.69 31.0531 132.805 31.1592C132.92 31.2582 132.978 31.3996 132.978 31.5836C132.978 31.7533 132.92 31.8912 132.805 31.9973C132.69 32.1034 132.529 32.1565 132.322 32.1565Z" fill="#3E3E3E"/>
<path d="M135.704 38.8939V31.0424H136.568V38.8939H135.704Z" fill="#3E3E3E"/>
<path d="M146.226 39C145.627 39 145.094 38.8762 144.625 38.6286C144.165 38.3811 143.8 38.038 143.532 37.5995C143.271 37.1609 143.14 36.6622 143.14 36.1034C143.14 35.5517 143.271 35.0601 143.532 34.6286C143.8 34.1972 144.165 33.8576 144.625 33.6101C145.094 33.3625 145.627 33.2387 146.226 33.2387C146.817 33.2387 147.342 33.3625 147.803 33.6101C148.271 33.8576 148.636 34.1972 148.897 34.6286C149.165 35.0601 149.3 35.5517 149.3 36.1034C149.3 36.6622 149.165 37.1609 148.897 37.5995C148.636 38.038 148.271 38.3811 147.803 38.6286C147.342 38.8762 146.817 39 146.226 39ZM146.226 38.2467C146.648 38.2467 147.024 38.1547 147.354 37.9708C147.684 37.7798 147.941 37.5252 148.125 37.2069C148.309 36.8815 148.402 36.5137 148.402 36.1034C148.402 35.6932 148.309 35.3289 148.125 35.0106C147.941 34.6923 147.684 34.4447 147.354 34.2679C147.024 34.084 146.648 33.992 146.226 33.992C145.804 33.992 145.424 34.084 145.086 34.2679C144.756 34.4447 144.495 34.6958 144.303 35.0212C144.119 35.3395 144.031 35.7003 144.038 36.1034C144.031 36.5137 144.119 36.8815 144.303 37.2069C144.495 37.5252 144.756 37.7798 145.086 37.9708C145.424 38.1547 145.804 38.2467 146.226 38.2467Z" fill="#3E3E3E"/>
<path d="M152.061 38.8939V32.496C152.061 32.2202 152.127 31.9761 152.257 31.7639C152.388 31.5517 152.572 31.3855 152.81 31.2653C153.055 31.1379 153.339 31.0743 153.662 31.0743C153.907 31.0743 154.126 31.1167 154.318 31.2016C154.518 31.2794 154.683 31.389 154.813 31.5305L154.514 32.1565C154.391 32.0363 154.257 31.9514 154.111 31.9019C153.973 31.8453 153.838 31.817 153.708 31.817C153.539 31.817 153.397 31.8453 153.282 31.9019C153.167 31.9514 153.078 32.0292 153.017 32.1353C152.963 32.2343 152.936 32.3546 152.936 32.496V38.8939H152.534C152.449 38.8939 152.368 38.8939 152.292 38.8939C152.215 38.8939 152.138 38.8939 152.061 38.8939ZM150.991 34.1406V33.3979H154.468V34.1406H150.991Z" fill="#3E3E3E"/>
<path d="M161.366 38.8939V31.4668H162.241L165.338 36.1034L164.924 36.0928L168.055 31.4668H168.873V38.8939H167.975V35.4987C167.975 34.8621 167.986 34.2891 168.009 33.7798C168.032 33.2706 168.075 32.7648 168.136 32.2626L168.297 32.5597L165.407 36.7401H164.786L161.976 32.6127L162.103 32.2626C162.165 32.7365 162.207 33.2246 162.23 33.7268C162.253 34.2219 162.264 34.8126 162.264 35.4987V38.8939H161.366Z" fill="#3E3E3E"/>
<path d="M174.588 39C173.989 39 173.456 38.8798 172.987 38.6393C172.527 38.3988 172.166 38.0628 171.905 37.6313C171.644 37.1998 171.514 36.7047 171.514 36.1459C171.514 35.7144 171.587 35.3254 171.733 34.9788C171.878 34.6251 172.082 34.3174 172.343 34.0557C172.611 33.794 172.93 33.5924 173.298 33.4509C173.667 33.3024 174.066 33.2281 174.496 33.2281C174.902 33.2281 175.271 33.2953 175.601 33.4297C175.939 33.5641 176.226 33.7515 176.464 33.992C176.71 34.2255 176.894 34.5049 177.017 34.8302C177.14 35.1556 177.194 35.5128 177.178 35.9019L177.167 36.2732H172.159L172.032 35.6048H176.51L176.303 35.7851V35.5305C176.288 35.2759 176.207 35.0318 176.061 34.7984C175.916 34.5579 175.708 34.3634 175.44 34.2149C175.179 34.0663 174.864 33.992 174.496 33.992C174.066 33.992 173.694 34.0734 173.379 34.2361C173.064 34.3917 172.822 34.6251 172.654 34.9363C172.485 35.2476 172.4 35.6331 172.4 36.0928C172.4 36.5314 172.492 36.9134 172.677 37.2387C172.861 37.557 173.122 37.8046 173.459 37.9814C173.805 38.1583 174.219 38.2467 174.703 38.2467C174.987 38.2467 175.267 38.2042 175.543 38.1194C175.827 38.0274 176.138 37.8506 176.476 37.5889L176.925 38.1618C176.748 38.3245 176.537 38.4695 176.292 38.5968C176.046 38.7171 175.777 38.8161 175.486 38.8939C175.194 38.9646 174.895 39 174.588 39Z" fill="#3E3E3E"/>
<path d="M179.429 38.8939V33.3554H180.293L180.316 34.618L180.143 34.6711C180.204 34.4589 180.304 34.2679 180.442 34.0981C180.588 33.9213 180.761 33.7692 180.96 33.6419C181.16 33.5146 181.379 33.4191 181.617 33.3554C181.855 33.2847 182.104 33.2493 182.365 33.2493C182.68 33.2493 182.96 33.2989 183.206 33.3979C183.459 33.4898 183.67 33.6525 183.839 33.8859C184.015 34.1123 184.15 34.4129 184.242 34.7878L184.034 34.6923L184.115 34.5119C184.192 34.3492 184.303 34.1936 184.449 34.0451C184.602 33.8895 184.775 33.7515 184.967 33.6313C185.167 33.5111 185.381 33.4191 185.612 33.3554C185.85 33.2847 186.091 33.2493 186.337 33.2493C186.759 33.2493 187.116 33.3342 187.408 33.504C187.699 33.6667 187.918 33.9178 188.064 34.2573C188.217 34.5968 188.294 35.0283 188.294 35.5517V38.8939H187.408V35.5942C187.408 35.2263 187.358 34.9257 187.258 34.6923C187.158 34.4589 187.009 34.2856 186.809 34.1724C186.617 34.0522 186.372 33.992 186.072 33.992C185.811 33.992 185.57 34.0345 185.347 34.1194C185.132 34.1972 184.944 34.3103 184.783 34.4589C184.629 34.6004 184.506 34.763 184.414 34.9469C184.33 35.1309 184.288 35.3289 184.288 35.5411V38.8939H183.413V35.5836C183.413 35.2299 183.359 34.9363 183.252 34.7029C183.152 34.4695 183.002 34.2927 182.803 34.1724C182.603 34.0522 182.357 33.992 182.066 33.992C181.812 33.992 181.578 34.0345 181.363 34.1194C181.149 34.1972 180.96 34.3068 180.799 34.4483C180.646 34.5897 180.523 34.7524 180.431 34.9363C180.346 35.1202 180.304 35.3183 180.304 35.5305V38.8939H179.429Z" fill="#3E3E3E"/>
<path d="M193.626 39C193.028 39 192.494 38.8762 192.026 38.6286C191.565 38.3811 191.201 38.038 190.932 37.5995C190.671 37.1609 190.541 36.6622 190.541 36.1034C190.541 35.5517 190.671 35.0601 190.932 34.6286C191.201 34.1972 191.565 33.8576 192.026 33.6101C192.494 33.3625 193.028 33.2387 193.626 33.2387C194.217 33.2387 194.743 33.3625 195.204 33.6101C195.672 33.8576 196.036 34.1972 196.297 34.6286C196.566 35.0601 196.7 35.5517 196.7 36.1034C196.7 36.6622 196.566 37.1609 196.297 37.5995C196.036 38.038 195.672 38.3811 195.204 38.6286C194.743 38.8762 194.217 39 193.626 39ZM193.626 38.2467C194.048 38.2467 194.425 38.1547 194.755 37.9708C195.085 37.7798 195.342 37.5252 195.526 37.2069C195.71 36.8815 195.802 36.5137 195.802 36.1034C195.802 35.6932 195.71 35.3289 195.526 35.0106C195.342 34.6923 195.085 34.4447 194.755 34.2679C194.425 34.084 194.048 33.992 193.626 33.992C193.204 33.992 192.824 34.084 192.486 34.2679C192.156 34.4447 191.895 34.6958 191.704 35.0212C191.519 35.3395 191.431 35.7003 191.439 36.1034C191.431 36.5137 191.519 36.8815 191.704 37.2069C191.895 37.5252 192.156 37.7798 192.486 37.9708C192.824 38.1547 193.204 38.2467 193.626 38.2467Z" fill="#3E3E3E"/>
<path d="M198.996 38.8939V33.3554H199.86L199.883 34.8302L199.791 34.6286C199.875 34.3811 200.009 34.1512 200.194 33.939C200.385 33.7268 200.612 33.557 200.873 33.4297C201.134 33.3024 201.422 33.2387 201.736 33.2387C201.867 33.2387 201.99 33.2493 202.105 33.2706C202.22 33.2847 202.316 33.3059 202.393 33.3342L202.151 34.2255C202.051 34.183 201.947 34.1547 201.84 34.1406C201.74 34.1194 201.644 34.1088 201.552 34.1088C201.291 34.1088 201.057 34.1512 200.85 34.2361C200.643 34.321 200.466 34.4412 200.32 34.5968C200.174 34.7454 200.063 34.9187 199.986 35.1167C199.91 35.3148 199.871 35.527 199.871 35.7533V38.8939H198.996Z" fill="#3E3E3E"/>
<path d="M204.557 38.8939V33.3554H205.421V38.8939H204.557ZM204.983 32.1565C204.769 32.1565 204.604 32.107 204.488 32.008C204.381 31.9019 204.327 31.7604 204.327 31.5836C204.327 31.4067 204.385 31.2653 204.5 31.1592C204.615 31.0531 204.776 31 204.983 31C205.191 31 205.352 31.0531 205.467 31.1592C205.582 31.2582 205.64 31.3996 205.64 31.5836C205.64 31.7533 205.582 31.8912 205.467 31.9973C205.352 32.1034 205.191 32.1565 204.983 32.1565Z" fill="#3E3E3E"/>
<path d="M210.991 39C210.392 39 209.859 38.8798 209.391 38.6393C208.93 38.3988 208.569 38.0628 208.308 37.6313C208.047 37.1998 207.917 36.7047 207.917 36.1459C207.917 35.7144 207.99 35.3254 208.136 34.9788C208.281 34.6251 208.485 34.3174 208.746 34.0557C209.014 33.794 209.333 33.5924 209.701 33.4509C210.07 33.3024 210.469 33.2281 210.899 33.2281C211.306 33.2281 211.674 33.2953 212.004 33.4297C212.342 33.5641 212.629 33.7515 212.867 33.992C213.113 34.2255 213.297 34.5049 213.42 34.8302C213.543 35.1556 213.597 35.5128 213.581 35.9019L213.57 36.2732H208.562L208.435 35.6048H212.913L212.706 35.7851V35.5305C212.691 35.2759 212.61 35.0318 212.464 34.7984C212.319 34.5579 212.111 34.3634 211.843 34.2149C211.582 34.0663 211.267 33.992 210.899 33.992C210.469 33.992 210.097 34.0734 209.782 34.2361C209.467 34.3917 209.225 34.6251 209.057 34.9363C208.888 35.2476 208.803 35.6331 208.803 36.0928C208.803 36.5314 208.895 36.9134 209.08 37.2387C209.264 37.557 209.525 37.8046 209.863 37.9814C210.208 38.1583 210.622 38.2467 211.106 38.2467C211.39 38.2467 211.67 38.2042 211.946 38.1194C212.23 38.0274 212.541 37.8506 212.879 37.5889L213.328 38.1618C213.151 38.3245 212.94 38.4695 212.695 38.5968C212.449 38.7171 212.18 38.8161 211.889 38.8939C211.597 38.9646 211.298 39 210.991 39Z" fill="#3E3E3E"/>
<path d="M217.813 39C217.298 39 216.838 38.9116 216.431 38.7347C216.024 38.5579 215.702 38.3245 215.464 38.0345L216.074 37.5464C216.297 37.794 216.558 37.9814 216.857 38.1088C217.164 38.2361 217.506 38.2997 217.882 38.2997C218.073 38.2997 218.246 38.2821 218.4 38.2467C218.553 38.2042 218.688 38.1441 218.803 38.0663C218.918 37.9885 219.006 37.8966 219.067 37.7905C219.129 37.6843 219.16 37.5676 219.16 37.4403C219.16 37.2069 219.048 37.0124 218.826 36.8568C218.726 36.7931 218.584 36.7294 218.4 36.6658C218.215 36.595 217.993 36.5279 217.732 36.4642C217.302 36.351 216.945 36.2378 216.661 36.1247C216.377 36.0044 216.155 35.8665 215.993 35.7109C215.878 35.5836 215.79 35.4456 215.729 35.2971C215.675 35.1485 215.648 34.9859 215.648 34.809C215.648 34.5827 215.698 34.374 215.798 34.183C215.905 33.992 216.051 33.8258 216.235 33.6843C216.427 33.5358 216.65 33.4262 216.903 33.3554C217.164 33.2776 217.444 33.2387 217.743 33.2387C218.027 33.2387 218.308 33.2741 218.584 33.3448C218.86 33.4156 219.117 33.5181 219.355 33.6525C219.593 33.7869 219.797 33.9461 219.965 34.13L219.436 34.6605C219.29 34.519 219.129 34.3917 218.952 34.2785C218.776 34.1653 218.588 34.0769 218.388 34.0133C218.196 33.9496 217.997 33.9178 217.79 33.9178C217.605 33.9178 217.433 33.939 217.271 33.9814C217.118 34.0239 216.984 34.084 216.868 34.1618C216.761 34.2325 216.677 34.321 216.615 34.4271C216.561 34.5332 216.535 34.6499 216.535 34.7772C216.535 34.8833 216.558 34.9788 216.604 35.0637C216.65 35.1485 216.715 35.2228 216.799 35.2865C216.907 35.3643 217.057 35.4385 217.248 35.5093C217.448 35.5729 217.694 35.6401 217.985 35.7109C218.323 35.7958 218.607 35.8842 218.837 35.9761C219.075 36.061 219.271 36.1636 219.424 36.2838C219.632 36.4253 219.777 36.588 219.862 36.7719C219.954 36.9558 220 37.1645 220 37.3979C220 37.7091 219.904 37.985 219.712 38.2255C219.528 38.466 219.271 38.6569 218.941 38.7984C218.611 38.9328 218.235 39 217.813 39Z" fill="#3E3E3E"/>
<path d="M58 38.8939V31.4668H58.898V38.0875H62.7664V38.8939H58Z" stroke="#3E3E3E" stroke-width="0.2" mask="url(#path-12-outside-1_12_40)"/>
<path d="M67.6349 39C67.0362 39 66.5028 38.8798 66.0346 38.6393C65.5741 38.3988 65.2134 38.0628 64.9524 37.6313C64.6914 37.1998 64.561 36.7047 64.561 36.1459C64.561 35.7144 64.6339 35.3254 64.7797 34.9788C64.9255 34.6251 65.1289 34.3174 65.3899 34.0557C65.6585 33.794 65.9771 33.5924 66.3455 33.4509C66.7139 33.3024 67.113 33.2281 67.5428 33.2281C67.9496 33.2281 68.318 33.2953 68.6481 33.4297C68.9858 33.5641 69.2736 33.7515 69.5115 33.992C69.7571 34.2255 69.9414 34.5049 70.0642 34.8302C70.187 35.1556 70.2407 35.5128 70.2253 35.9019L70.2138 36.2732H65.2057L65.079 35.6048H69.5576L69.3504 35.7851V35.5305C69.335 35.2759 69.2544 35.0318 69.1086 34.7984C68.9628 34.5579 68.7555 34.3634 68.4869 34.2149C68.2259 34.0663 67.9112 33.992 67.5428 33.992C67.113 33.992 66.7407 34.0734 66.4261 34.2361C66.1114 34.3917 65.8696 34.6251 65.7007 34.9363C65.5319 35.2476 65.4475 35.6331 65.4475 36.0928C65.4475 36.5314 65.5396 36.9134 65.7238 37.2387C65.908 37.557 66.1689 37.8046 66.5067 37.9814C66.852 38.1583 67.2665 38.2467 67.7501 38.2467C68.034 38.2467 68.3142 38.2042 68.5905 38.1194C68.8745 38.0274 69.1853 37.8506 69.5231 37.5889L69.9721 38.1618C69.7955 38.3245 69.5845 38.4695 69.3388 38.5968C69.0932 38.7171 68.8246 38.8161 68.5329 38.8939C68.2413 38.9646 67.9419 39 67.6349 39Z" stroke="#3E3E3E" stroke-width="0.2" mask="url(#path-12-outside-1_12_40)"/>
<path d="M74.8366 39C74.3146 39 73.8426 38.8762 73.4205 38.6286C72.9983 38.374 72.6644 38.0309 72.4188 37.5995C72.1732 37.1609 72.0504 36.6658 72.0504 36.1141C72.0504 35.5553 72.1771 35.0601 72.4303 34.6286C72.6836 34.1972 73.0213 33.8576 73.4435 33.6101C73.8733 33.3625 74.353 33.2387 74.8826 33.2387C75.1973 33.2387 75.489 33.2812 75.7576 33.366C76.0262 33.4509 76.2642 33.5712 76.4714 33.7268C76.6863 33.8753 76.8628 34.0522 77.001 34.2573C77.1468 34.4553 77.2466 34.6711 77.3003 34.9045L77.0471 34.7878L77.0816 33.3554H77.9451V38.8939H77.0701V37.5358L77.3003 37.3979C77.2466 37.6101 77.143 37.8152 76.9895 38.0133C76.836 38.2042 76.6479 38.374 76.4253 38.5225C76.2104 38.6711 75.9648 38.7878 75.6885 38.8727C75.4199 38.9576 75.1359 39 74.8366 39ZM75.0323 38.2361C75.4314 38.2361 75.7883 38.1477 76.103 37.9708C76.4177 37.7869 76.6633 37.5358 76.8398 37.2175C77.024 36.8921 77.1161 36.5243 77.1161 36.1141C77.1161 35.7038 77.024 35.3395 76.8398 35.0212C76.6633 34.7029 76.4177 34.4518 76.103 34.2679C75.7883 34.084 75.4314 33.992 75.0323 33.992C74.6255 33.992 74.2647 34.084 73.9501 34.2679C73.643 34.4518 73.3974 34.7029 73.2132 35.0212C73.0367 35.3395 72.9484 35.7038 72.9484 36.1141C72.9484 36.5172 73.0367 36.8815 73.2132 37.2069C73.3898 37.5252 73.6354 37.7763 73.9501 37.9602C74.2647 38.1441 74.6255 38.2361 75.0323 38.2361Z" stroke="#3E3E3E" stroke-width="0.2" mask="url(#path-12-outside-1_12_40)"/>
<path d="M82.3937 38.8939L79.8608 33.3554H80.8164L82.8196 37.8859L82.5894 38.0027L84.7884 33.3554H85.7094L83.0154 38.8939H82.3937Z" stroke="#3E3E3E" stroke-width="0.2" mask="url(#path-12-outside-1_12_40)"/>
<path d="M90.239 39C89.6404 39 89.1069 38.8798 88.6387 38.6393C88.1782 38.3988 87.8175 38.0628 87.5565 37.6313C87.2955 37.1998 87.1651 36.7047 87.1651 36.1459C87.1651 35.7144 87.238 35.3254 87.3838 34.9788C87.5296 34.6251 87.733 34.3174 87.994 34.0557C88.2626 33.794 88.5812 33.5924 88.9496 33.4509C89.318 33.3024 89.7171 33.2281 90.1469 33.2281C90.5537 33.2281 90.9221 33.2953 91.2522 33.4297C91.5899 33.5641 91.8777 33.7515 92.1156 33.992C92.3613 34.2255 92.5455 34.5049 92.6683 34.8302C92.7911 35.1556 92.8448 35.5128 92.8295 35.9019L92.8179 36.2732H87.8098L87.6832 35.6048H92.1617L91.9545 35.7851V35.5305C91.9391 35.2759 91.8585 35.0318 91.7127 34.7984C91.5669 34.5579 91.3596 34.3634 91.091 34.2149C90.83 34.0663 90.5153 33.992 90.1469 33.992C89.7171 33.992 89.3449 34.0734 89.0302 34.2361C88.7155 34.3917 88.4737 34.6251 88.3049 34.9363C88.136 35.2476 88.0516 35.6331 88.0516 36.0928C88.0516 36.5314 88.1437 36.9134 88.3279 37.2387C88.5121 37.557 88.773 37.8046 89.1108 37.9814C89.4562 38.1583 89.8706 38.2467 90.3542 38.2467C90.6381 38.2467 90.9183 38.2042 91.1946 38.1194C91.4786 38.0274 91.7894 37.8506 92.1272 37.5889L92.5762 38.1618C92.3996 38.3245 92.1886 38.4695 91.943 38.5968C91.6973 38.7171 91.4287 38.8161 91.137 38.8939C90.8454 38.9646 90.546 39 90.239 39Z" stroke="#3E3E3E" stroke-width="0.2" mask="url(#path-12-outside-1_12_40)"/>
<path d="M101.704 39C101.182 39 100.71 38.8762 100.288 38.6286C99.8654 38.374 99.5315 38.0309 99.2859 37.5995C99.0403 37.1609 98.9175 36.6658 98.9175 36.1141C98.9175 35.5553 99.0441 35.0601 99.2974 34.6286C99.5507 34.1972 99.8884 33.8576 100.311 33.6101C100.74 33.3625 101.22 33.2387 101.75 33.2387C102.064 33.2387 102.356 33.2812 102.625 33.366C102.893 33.4509 103.131 33.5712 103.338 33.7268C103.553 33.8753 103.73 34.0522 103.868 34.2573C104.014 34.4553 104.114 34.6711 104.167 34.9045L103.914 34.7878L103.949 33.3554H104.812V38.8939H103.937V37.5358L104.167 37.3979C104.114 37.6101 104.01 37.8152 103.857 38.0133C103.703 38.2042 103.515 38.374 103.292 38.5225C103.078 38.6711 102.832 38.7878 102.556 38.8727C102.287 38.9576 102.003 39 101.704 39ZM101.899 38.2361C102.298 38.2361 102.655 38.1477 102.97 37.9708C103.285 37.7869 103.53 37.5358 103.707 37.2175C103.891 36.8921 103.983 36.5243 103.983 36.1141C103.983 35.7038 103.891 35.3395 103.707 35.0212C103.53 34.7029 103.285 34.4518 102.97 34.2679C102.655 34.084 102.298 33.992 101.899 33.992C101.493 33.992 101.132 34.084 100.817 34.2679C100.51 34.4518 100.264 34.7029 100.08 35.0212C99.9038 35.3395 99.8155 35.7038 99.8155 36.1141C99.8155 36.5172 99.9038 36.8815 100.08 37.2069C100.257 37.5252 100.502 37.7763 100.817 37.9602C101.132 38.1441 101.493 38.2361 101.899 38.2361Z" stroke="#3E3E3E" stroke-width="0.2" mask="url(#path-12-outside-1_12_40)"/>
<path d="M113.601 38.8939V32.2732H111.298V31.4668H116.894V32.2732H114.499V38.8939H113.601Z" stroke="#3E3E3E" stroke-width="0.2" mask="url(#path-12-outside-1_12_40)"/>
<path d="M118.417 38.8939V33.3554H119.281L119.304 34.8302L119.212 34.6286C119.296 34.3811 119.431 34.1512 119.615 33.939C119.807 33.7268 120.033 33.557 120.294 33.4297C120.555 33.3024 120.843 33.2387 121.158 33.2387C121.288 33.2387 121.411 33.2493 121.526 33.2706C121.641 33.2847 121.737 33.3059 121.814 33.3342L121.572 34.2255C121.472 34.183 121.369 34.1547 121.261 34.1406C121.161 34.1194 121.065 34.1088 120.973 34.1088C120.712 34.1088 120.478 34.1512 120.271 34.2361C120.064 34.321 119.887 34.4412 119.741 34.5968C119.596 34.7454 119.484 34.9187 119.408 35.1167C119.331 35.3148 119.292 35.527 119.292 35.7533V38.8939H118.417Z" stroke="#3E3E3E" stroke-width="0.2" mask="url(#path-12-outside-1_12_40)"/>
<path d="M125.839 39C125.317 39 124.845 38.8762 124.422 38.6286C124 38.374 123.666 38.0309 123.421 37.5995C123.175 37.1609 123.052 36.6658 123.052 36.1141C123.052 35.5553 123.179 35.0601 123.432 34.6286C123.686 34.1972 124.023 33.8576 124.446 33.6101C124.875 33.3625 125.355 33.2387 125.885 33.2387C126.199 33.2387 126.491 33.2812 126.76 33.366C127.028 33.4509 127.266 33.5712 127.473 33.7268C127.688 33.8753 127.865 34.0522 128.003 34.2573C128.149 34.4553 128.249 34.6711 128.302 34.9045L128.049 34.7878L128.084 33.3554H128.947V38.8939H128.072V37.5358L128.302 37.3979C128.249 37.6101 128.145 37.8152 127.992 38.0133C127.838 38.2042 127.65 38.374 127.427 38.5225C127.212 38.6711 126.967 38.7878 126.691 38.8727C126.422 38.9576 126.138 39 125.839 39ZM126.034 38.2361C126.433 38.2361 126.79 38.1477 127.105 37.9708C127.42 37.7869 127.665 37.5358 127.842 37.2175C128.026 36.8921 128.118 36.5243 128.118 36.1141C128.118 35.7038 128.026 35.3395 127.842 35.0212C127.665 34.7029 127.42 34.4518 127.105 34.2679C126.79 34.084 126.433 33.992 126.034 33.992C125.628 33.992 125.267 34.084 124.952 34.2679C124.645 34.4518 124.399 34.7029 124.215 35.0212C124.039 35.3395 123.95 35.7038 123.95 36.1141C123.95 36.5172 124.039 36.8815 124.215 37.2069C124.392 37.5252 124.637 37.7763 124.952 37.9602C125.267 38.1441 125.628 38.2361 126.034 38.2361Z" stroke="#3E3E3E" stroke-width="0.2" mask="url(#path-12-outside-1_12_40)"/>
<path d="M131.896 38.8939V33.3554H132.759V38.8939H131.896ZM132.322 32.1565C132.107 32.1565 131.942 32.107 131.827 32.008C131.719 31.9019 131.666 31.7604 131.666 31.5836C131.666 31.4067 131.723 31.2653 131.838 31.1592C131.953 31.0531 132.115 31 132.322 31C132.529 31 132.69 31.0531 132.805 31.1592C132.92 31.2582 132.978 31.3996 132.978 31.5836C132.978 31.7533 132.92 31.8912 132.805 31.9973C132.69 32.1034 132.529 32.1565 132.322 32.1565Z" stroke="#3E3E3E" stroke-width="0.2" mask="url(#path-12-outside-1_12_40)"/>
<path d="M135.704 38.8939V31.0424H136.568V38.8939H135.704Z" stroke="#3E3E3E" stroke-width="0.2" mask="url(#path-12-outside-1_12_40)"/>
<path d="M146.226 39C145.627 39 145.094 38.8762 144.625 38.6286C144.165 38.3811 143.8 38.038 143.532 37.5995C143.271 37.1609 143.14 36.6622 143.14 36.1034C143.14 35.5517 143.271 35.0601 143.532 34.6286C143.8 34.1972 144.165 33.8576 144.625 33.6101C145.094 33.3625 145.627 33.2387 146.226 33.2387C146.817 33.2387 147.342 33.3625 147.803 33.6101C148.271 33.8576 148.636 34.1972 148.897 34.6286C149.165 35.0601 149.3 35.5517 149.3 36.1034C149.3 36.6622 149.165 37.1609 148.897 37.5995C148.636 38.038 148.271 38.3811 147.803 38.6286C147.342 38.8762 146.817 39 146.226 39ZM146.226 38.2467C146.648 38.2467 147.024 38.1547 147.354 37.9708C147.684 37.7798 147.941 37.5252 148.125 37.2069C148.309 36.8815 148.402 36.5137 148.402 36.1034C148.402 35.6932 148.309 35.3289 148.125 35.0106C147.941 34.6923 147.684 34.4447 147.354 34.2679C147.024 34.084 146.648 33.992 146.226 33.992C145.804 33.992 145.424 34.084 145.086 34.2679C144.756 34.4447 144.495 34.6958 144.303 35.0212C144.119 35.3395 144.031 35.7003 144.038 36.1034C144.031 36.5137 144.119 36.8815 144.303 37.2069C144.495 37.5252 144.756 37.7798 145.086 37.9708C145.424 38.1547 145.804 38.2467 146.226 38.2467Z" stroke="#3E3E3E" stroke-width="0.2" mask="url(#path-12-outside-1_12_40)"/>
<path d="M152.061 38.8939V32.496C152.061 32.2202 152.127 31.9761 152.257 31.7639C152.388 31.5517 152.572 31.3855 152.81 31.2653C153.055 31.1379 153.339 31.0743 153.662 31.0743C153.907 31.0743 154.126 31.1167 154.318 31.2016C154.518 31.2794 154.683 31.389 154.813 31.5305L154.514 32.1565C154.391 32.0363 154.257 31.9514 154.111 31.9019C153.973 31.8453 153.838 31.817 153.708 31.817C153.539 31.817 153.397 31.8453 153.282 31.9019C153.167 31.9514 153.078 32.0292 153.017 32.1353C152.963 32.2343 152.936 32.3546 152.936 32.496V38.8939H152.534C152.449 38.8939 152.368 38.8939 152.292 38.8939C152.215 38.8939 152.138 38.8939 152.061 38.8939ZM150.991 34.1406V33.3979H154.468V34.1406H150.991Z" stroke="#3E3E3E" stroke-width="0.2" mask="url(#path-12-outside-1_12_40)"/>
<path d="M161.366 38.8939V31.4668H162.241L165.338 36.1034L164.924 36.0928L168.055 31.4668H168.873V38.8939H167.975V35.4987C167.975 34.8621 167.986 34.2891 168.009 33.7798C168.032 33.2706 168.075 32.7648 168.136 32.2626L168.297 32.5597L165.407 36.7401H164.786L161.976 32.6127L162.103 32.2626C162.165 32.7365 162.207 33.2246 162.23 33.7268C162.253 34.2219 162.264 34.8126 162.264 35.4987V38.8939H161.366Z" stroke="#3E3E3E" stroke-width="0.2" mask="url(#path-12-outside-1_12_40)"/>
<path d="M174.588 39C173.989 39 173.456 38.8798 172.987 38.6393C172.527 38.3988 172.166 38.0628 171.905 37.6313C171.644 37.1998 171.514 36.7047 171.514 36.1459C171.514 35.7144 171.587 35.3254 171.733 34.9788C171.878 34.6251 172.082 34.3174 172.343 34.0557C172.611 33.794 172.93 33.5924 173.298 33.4509C173.667 33.3024 174.066 33.2281 174.496 33.2281C174.902 33.2281 175.271 33.2953 175.601 33.4297C175.939 33.5641 176.226 33.7515 176.464 33.992C176.71 34.2255 176.894 34.5049 177.017 34.8302C177.14 35.1556 177.194 35.5128 177.178 35.9019L177.167 36.2732H172.159L172.032 35.6048H176.51L176.303 35.7851V35.5305C176.288 35.2759 176.207 35.0318 176.061 34.7984C175.916 34.5579 175.708 34.3634 175.44 34.2149C175.179 34.0663 174.864 33.992 174.496 33.992C174.066 33.992 173.694 34.0734 173.379 34.2361C173.064 34.3917 172.822 34.6251 172.654 34.9363C172.485 35.2476 172.4 35.6331 172.4 36.0928C172.4 36.5314 172.492 36.9134 172.677 37.2387C172.861 37.557 173.122 37.8046 173.459 37.9814C173.805 38.1583 174.219 38.2467 174.703 38.2467C174.987 38.2467 175.267 38.2042 175.543 38.1194C175.827 38.0274 176.138 37.8506 176.476 37.5889L176.925 38.1618C176.748 38.3245 176.537 38.4695 176.292 38.5968C176.046 38.7171 175.777 38.8161 175.486 38.8939C175.194 38.9646 174.895 39 174.588 39Z" stroke="#3E3E3E" stroke-width="0.2" mask="url(#path-12-outside-1_12_40)"/>
<path d="M179.429 38.8939V33.3554H180.293L180.316 34.618L180.143 34.6711C180.204 34.4589 180.304 34.2679 180.442 34.0981C180.588 33.9213 180.761 33.7692 180.96 33.6419C181.16 33.5146 181.379 33.4191 181.617 33.3554C181.855 33.2847 182.104 33.2493 182.365 33.2493C182.68 33.2493 182.96 33.2989 183.206 33.3979C183.459 33.4898 183.67 33.6525 183.839 33.8859C184.015 34.1123 184.15 34.4129 184.242 34.7878L184.034 34.6923L184.115 34.5119C184.192 34.3492 184.303 34.1936 184.449 34.0451C184.602 33.8895 184.775 33.7515 184.967 33.6313C185.167 33.5111 185.381 33.4191 185.612 33.3554C185.85 33.2847 186.091 33.2493 186.337 33.2493C186.759 33.2493 187.116 33.3342 187.408 33.504C187.699 33.6667 187.918 33.9178 188.064 34.2573C188.217 34.5968 188.294 35.0283 188.294 35.5517V38.8939H187.408V35.5942C187.408 35.2263 187.358 34.9257 187.258 34.6923C187.158 34.4589 187.009 34.2856 186.809 34.1724C186.617 34.0522 186.372 33.992 186.072 33.992C185.811 33.992 185.57 34.0345 185.347 34.1194C185.132 34.1972 184.944 34.3103 184.783 34.4589C184.629 34.6004 184.506 34.763 184.414 34.9469C184.33 35.1309 184.288 35.3289 184.288 35.5411V38.8939H183.413V35.5836C183.413 35.2299 183.359 34.9363 183.252 34.7029C183.152 34.4695 183.002 34.2927 182.803 34.1724C182.603 34.0522 182.357 33.992 182.066 33.992C181.812 33.992 181.578 34.0345 181.363 34.1194C181.149 34.1972 180.96 34.3068 180.799 34.4483C180.646 34.5897 180.523 34.7524 180.431 34.9363C180.346 35.1202 180.304 35.3183 180.304 35.5305V38.8939H179.429Z" stroke="#3E3E3E" stroke-width="0.2" mask="url(#path-12-outside-1_12_40)"/>
<path d="M193.626 39C193.028 39 192.494 38.8762 192.026 38.6286C191.565 38.3811 191.201 38.038 190.932 37.5995C190.671 37.1609 190.541 36.6622 190.541 36.1034C190.541 35.5517 190.671 35.0601 190.932 34.6286C191.201 34.1972 191.565 33.8576 192.026 33.6101C192.494 33.3625 193.028 33.2387 193.626 33.2387C194.217 33.2387 194.743 33.3625 195.204 33.6101C195.672 33.8576 196.036 34.1972 196.297 34.6286C196.566 35.0601 196.7 35.5517 196.7 36.1034C196.7 36.6622 196.566 37.1609 196.297 37.5995C196.036 38.038 195.672 38.3811 195.204 38.6286C194.743 38.8762 194.217 39 193.626 39ZM193.626 38.2467C194.048 38.2467 194.425 38.1547 194.755 37.9708C195.085 37.7798 195.342 37.5252 195.526 37.2069C195.71 36.8815 195.802 36.5137 195.802 36.1034C195.802 35.6932 195.71 35.3289 195.526 35.0106C195.342 34.6923 195.085 34.4447 194.755 34.2679C194.425 34.084 194.048 33.992 193.626 33.992C193.204 33.992 192.824 34.084 192.486 34.2679C192.156 34.4447 191.895 34.6958 191.704 35.0212C191.519 35.3395 191.431 35.7003 191.439 36.1034C191.431 36.5137 191.519 36.8815 191.704 37.2069C191.895 37.5252 192.156 37.7798 192.486 37.9708C192.824 38.1547 193.204 38.2467 193.626 38.2467Z" stroke="#3E3E3E" stroke-width="0.2" mask="url(#path-12-outside-1_12_40)"/>
<path d="M198.996 38.8939V33.3554H199.86L199.883 34.8302L199.791 34.6286C199.875 34.3811 200.009 34.1512 200.194 33.939C200.385 33.7268 200.612 33.557 200.873 33.4297C201.134 33.3024 201.422 33.2387 201.736 33.2387C201.867 33.2387 201.99 33.2493 202.105 33.2706C202.22 33.2847 202.316 33.3059 202.393 33.3342L202.151 34.2255C202.051 34.183 201.947 34.1547 201.84 34.1406C201.74 34.1194 201.644 34.1088 201.552 34.1088C201.291 34.1088 201.057 34.1512 200.85 34.2361C200.643 34.321 200.466 34.4412 200.32 34.5968C200.174 34.7454 200.063 34.9187 199.986 35.1167C199.91 35.3148 199.871 35.527 199.871 35.7533V38.8939H198.996Z" stroke="#3E3E3E" stroke-width="0.2" mask="url(#path-12-outside-1_12_40)"/>
<path d="M204.557 38.8939V33.3554H205.421V38.8939H204.557ZM204.983 32.1565C204.769 32.1565 204.604 32.107 204.488 32.008C204.381 31.9019 204.327 31.7604 204.327 31.5836C204.327 31.4067 204.385 31.2653 204.5 31.1592C204.615 31.0531 204.776 31 204.983 31C205.191 31 205.352 31.0531 205.467 31.1592C205.582 31.2582 205.64 31.3996 205.64 31.5836C205.64 31.7533 205.582 31.8912 205.467 31.9973C205.352 32.1034 205.191 32.1565 204.983 32.1565Z" stroke="#3E3E3E" stroke-width="0.2" mask="url(#path-12-outside-1_12_40)"/>
<path d="M210.991 39C210.392 39 209.859 38.8798 209.391 38.6393C208.93 38.3988 208.569 38.0628 208.308 37.6313C208.047 37.1998 207.917 36.7047 207.917 36.1459C207.917 35.7144 207.99 35.3254 208.136 34.9788C208.281 34.6251 208.485 34.3174 208.746 34.0557C209.014 33.794 209.333 33.5924 209.701 33.4509C210.07 33.3024 210.469 33.2281 210.899 33.2281C211.306 33.2281 211.674 33.2953 212.004 33.4297C212.342 33.5641 212.629 33.7515 212.867 33.992C213.113 34.2255 213.297 34.5049 213.42 34.8302C213.543 35.1556 213.597 35.5128 213.581 35.9019L213.57 36.2732H208.562L208.435 35.6048H212.913L212.706 35.7851V35.5305C212.691 35.2759 212.61 35.0318 212.464 34.7984C212.319 34.5579 212.111 34.3634 211.843 34.2149C211.582 34.0663 211.267 33.992 210.899 33.992C210.469 33.992 210.097 34.0734 209.782 34.2361C209.467 34.3917 209.225 34.6251 209.057 34.9363C208.888 35.2476 208.803 35.6331 208.803 36.0928C208.803 36.5314 208.895 36.9134 209.08 37.2387C209.264 37.557 209.525 37.8046 209.863 37.9814C210.208 38.1583 210.622 38.2467 211.106 38.2467C211.39 38.2467 211.67 38.2042 211.946 38.1194C212.23 38.0274 212.541 37.8506 212.879 37.5889L213.328 38.1618C213.151 38.3245 212.94 38.4695 212.695 38.5968C212.449 38.7171 212.18 38.8161 211.889 38.8939C211.597 38.9646 211.298 39 210.991 39Z" stroke="#3E3E3E" stroke-width="0.2" mask="url(#path-12-outside-1_12_40)"/>
<path d="M217.813 39C217.298 39 216.838 38.9116 216.431 38.7347C216.024 38.5579 215.702 38.3245 215.464 38.0345L216.074 37.5464C216.297 37.794 216.558 37.9814 216.857 38.1088C217.164 38.2361 217.506 38.2997 217.882 38.2997C218.073 38.2997 218.246 38.2821 218.4 38.2467C218.553 38.2042 218.688 38.1441 218.803 38.0663C218.918 37.9885 219.006 37.8966 219.067 37.7905C219.129 37.6843 219.16 37.5676 219.16 37.4403C219.16 37.2069 219.048 37.0124 218.826 36.8568C218.726 36.7931 218.584 36.7294 218.4 36.6658C218.215 36.595 217.993 36.5279 217.732 36.4642C217.302 36.351 216.945 36.2378 216.661 36.1247C216.377 36.0044 216.155 35.8665 215.993 35.7109C215.878 35.5836 215.79 35.4456 215.729 35.2971C215.675 35.1485 215.648 34.9859 215.648 34.809C215.648 34.5827 215.698 34.374 215.798 34.183C215.905 33.992 216.051 33.8258 216.235 33.6843C216.427 33.5358 216.65 33.4262 216.903 33.3554C217.164 33.2776 217.444 33.2387 217.743 33.2387C218.027 33.2387 218.308 33.2741 218.584 33.3448C218.86 33.4156 219.117 33.5181 219.355 33.6525C219.593 33.7869 219.797 33.9461 219.965 34.13L219.436 34.6605C219.29 34.519 219.129 34.3917 218.952 34.2785C218.776 34.1653 218.588 34.0769 218.388 34.0133C218.196 33.9496 217.997 33.9178 217.79 33.9178C217.605 33.9178 217.433 33.939 217.271 33.9814C217.118 34.0239 216.984 34.084 216.868 34.1618C216.761 34.2325 216.677 34.321 216.615 34.4271C216.561 34.5332 216.535 34.6499 216.535 34.7772C216.535 34.8833 216.558 34.9788 216.604 35.0637C216.65 35.1485 216.715 35.2228 216.799 35.2865C216.907 35.3643 217.057 35.4385 217.248 35.5093C217.448 35.5729 217.694 35.6401 217.985 35.7109C218.323 35.7958 218.607 35.8842 218.837 35.9761C219.075 36.061 219.271 36.1636 219.424 36.2838C219.632 36.4253 219.777 36.588 219.862 36.7719C219.954 36.9558 220 37.1645 220 37.3979C220 37.7091 219.904 37.985 219.712 38.2255C219.528 38.466 219.271 38.6569 218.941 38.7984C218.611 38.9328 218.235 39 217.813 39Z" stroke="#3E3E3E" stroke-width="0.2" mask="url(#path-12-outside-1_12_40)"/>
<circle cx="27.0036" cy="25.5" r="25.5" fill="#151516"/>
<path d="M27.7193 37.3556C35.3384 42.0253 43.4354 40.7283 48.6653 38.9616C51.0962 35.0558 52.5005 30.4446 52.5005 25.5055C52.5005 11.421 41.0829 0.00341415 26.9984 0.00341415C12.914 0.00341415 1.49644 11.421 1.49644 25.5055C1.49644 27.6509 1.76185 29.7344 2.26085 31.7254C5.71153 31.3854 17.1434 30.8737 27.7193 37.3556Z" fill="#005555"/>
<path d="M27.7193 37.3556C31.9456 39.9459 36.3188 40.7002 40.2683 40.557C44.4357 36.88 47.0642 31.4999 47.0642 25.5055C47.0642 14.4233 38.0805 5.43951 26.9984 5.43951C15.9163 5.43951 6.93269 14.4233 6.93269 25.5055C6.93269 27.6253 7.26161 29.6682 7.87102 31.5863C13.0712 31.7945 20.5897 32.9859 27.7193 37.3556Z" fill="#069A8E"/>
<path d="M27.7193 37.3556C28.8441 38.0451 29.9796 38.6044 31.1147 39.0513C36.9241 37.2883 41.1524 31.8908 41.1524 25.5055C41.1524 17.6884 34.8156 11.3515 26.9984 11.3515C19.1813 11.3515 12.8444 17.6884 12.8444 25.5055C12.8444 27.9932 13.4862 30.3308 14.6134 32.3621C18.6979 33.1488 23.2839 34.6371 27.7193 37.3556Z" fill="#57BF94"/>
<path d="M26.9984 33.4623C31.393 33.4623 34.9553 29.8998 34.9553 25.5055C34.9553 21.1109 31.393 17.5486 26.9984 17.5486C22.6039 17.5486 19.0416 21.1109 19.0416 25.5055C19.0416 29.8998 22.6039 33.4623 26.9984 33.4623Z" fill="#F7FF93"/>
<path d="M27.7574 30.6636C27.7658 30.679 27.7745 30.6941 27.7831 30.7095C27.7769 30.7044 27.7706 30.6995 27.7644 30.6946C27.7576 30.6872 27.7509 30.6798 27.7441 30.6724C27.7484 30.6695 27.7531 30.6664 27.7574 30.6636ZM34.422 32.0189C34.0918 30.5673 33.7338 29.1216 33.3651 27.6795C33.2543 27.2459 33.1424 26.8122 33.0226 26.3811C33.0037 26.2957 32.9842 26.2107 32.9633 26.1262C32.9255 25.9742 32.8829 25.8242 32.8388 25.6746C33.0694 25.6186 33.2988 25.5195 33.4937 25.4167C33.5091 25.4265 33.5253 25.4357 33.5426 25.4435C33.8206 25.5683 34.1249 25.3797 34.3631 25.2461C34.4002 25.2252 34.4421 25.2016 34.4819 25.1743L34.6941 25.7119L34.413 26.2553L34.2911 26.9675L34.9926 27.5065C34.99 27.5078 34.9871 27.509 34.9846 27.5106C34.9701 27.5213 34.9592 27.5324 34.9543 27.5504C34.9495 27.5675 34.9518 27.5861 34.9608 27.6015C34.9694 27.6163 34.984 27.6274 35.0004 27.6321C35.0082 27.6341 35.0152 27.6344 35.0222 27.6337C35.0253 27.6337 35.0281 27.6339 35.031 27.6341C35.0372 27.6348 35.0429 27.6339 35.0484 27.6325C35.0062 27.9231 34.8498 29.005 34.74 29.8352L34.6686 30.3447C34.6686 30.3447 34.6709 30.3451 34.6748 30.3461C34.6491 30.5581 34.6319 30.7206 34.6284 30.7994C34.6097 31.2209 34.9095 31.6144 35.0782 31.9423C35.2469 32.2704 35.2469 33.4696 35.2655 34.191C35.2723 34.4543 35.2754 34.6697 35.268 34.8486C35.2579 34.8581 35.2473 34.8675 35.2358 34.8763C35.2153 34.8921 35.1941 34.9075 35.173 34.9229C35.094 34.6695 35.0318 34.411 34.9571 34.1555C34.7509 33.4496 34.5849 32.7358 34.422 32.0189ZM35.0495 27.6261V27.6264C35.0456 27.628 35.0419 27.6296 35.038 27.6313C35.0361 27.6315 35.0343 27.6317 35.0324 27.6321C35.0382 27.6307 35.0437 27.6286 35.0495 27.6261ZM36.2515 30.7013C36.5145 30.7584 36.7047 30.7969 36.707 30.79C36.7146 30.7674 37.0831 29.1597 37.0831 29.1597C37.0831 29.1597 37.3478 29.6705 37.6515 30.1262C37.7274 30.2661 37.829 30.3987 37.9418 30.5216C38.0282 30.6248 38.1119 30.7095 38.1883 30.7631C38.3908 30.9447 38.5954 31.0945 38.732 31.2022C39.0412 31.4458 39.8938 33.0479 40.203 33.685C40.5122 34.3221 40.3622 35.1279 40.3341 35.4182C40.306 35.7088 40.1 35.9899 39.9127 36.2335C39.8938 36.2579 39.8747 36.28 39.8563 36.2999C39.6937 36.2913 39.5312 36.2743 39.3702 36.2571C39.0293 36.2205 38.6908 36.1635 38.3561 36.0907C37.8294 35.9759 37.3129 35.8323 36.8104 35.6372C36.7361 35.5065 36.6559 35.3791 36.5582 35.2648C36.477 35.1698 36.3789 35.0881 36.273 35.0187L36.2773 34.6781C36.2773 34.6781 36.2236 34.4169 36.3992 33.7974C36.8504 32.2056 36.2962 31.9704 36.2119 31.4646C36.1485 31.0848 36.1696 30.8846 36.2515 30.7013ZM23.0859 30.1436C22.9734 30.5089 22.9545 30.7805 22.9545 30.7805L21.7464 30.6332C21.7135 30.6221 21.6241 30.5864 21.518 30.5431C21.5198 30.5085 21.524 30.4746 21.532 30.442C21.5859 30.4007 21.6142 30.3217 21.5861 30.2526C21.582 30.2015 21.557 30.1524 21.5084 30.1299C21.487 30.1198 21.4655 30.1104 21.4439 30.1005C21.4062 30.0698 21.3664 30.0414 21.3253 30.0144C21.2593 29.9709 21.1737 29.9212 21.1427 29.8438C21.1052 29.7503 21.0145 29.7055 20.9203 29.7534C20.8673 29.7802 20.8134 29.8038 20.7586 29.8252C20.5985 29.4987 20.4133 29.1835 20.2134 28.8831C20.0484 28.6353 19.8613 28.4007 19.6582 28.183C19.6116 28.1332 19.5646 28.0845 19.5112 28.0419C19.4236 27.9721 19.3588 27.9553 19.248 27.9744C19.1476 27.9916 19.0461 27.9984 18.9445 28.006C18.9068 27.9048 18.8688 27.8038 18.8302 27.7029C18.7114 27.3916 18.5752 27.0918 18.3839 26.821C18.3993 26.6295 18.4124 26.4379 18.4241 26.2462C18.4564 25.7125 18.4654 25.1776 18.4845 24.6433C18.5169 24.2417 18.5411 23.8398 18.5748 23.4382C18.5893 23.2642 18.6098 23.0902 18.6347 22.9168C18.6696 22.8569 18.7453 22.7305 18.7666 22.7233C18.7947 22.7139 18.8228 22.489 18.8228 22.489L18.8604 22.3298C18.8604 22.3298 18.9072 22.1892 18.9542 22.1424C19.0009 22.0955 19.2258 21.7021 19.5443 21.7864C19.8629 21.8708 20.9028 23.8568 20.9028 23.8568L21.4275 23.9132C21.4275 23.9132 21.9427 24.7001 22.1771 25.0843C22.4112 25.4684 22.252 26.096 22.2333 26.6958C22.2144 27.2954 22.8515 28.2698 23.0108 28.7756C23.1702 29.2816 23.1983 29.7782 23.0859 30.1436ZM17.5675 24.522C17.6143 24.0725 17.6518 23.8195 17.7456 23.5946C17.8391 23.3697 18.2514 23.1448 18.2514 23.1448C18.2514 23.1448 18.2772 23.1354 18.3053 23.1296C18.2986 23.2049 18.2922 23.2804 18.2865 23.3557C18.2493 23.8474 18.2294 24.3425 18.1701 24.8321C18.1043 25.3758 18.0493 25.9218 18.0121 26.4691C17.9707 26.4486 17.927 26.4313 17.8804 26.4176C17.8375 26.3599 17.792 26.3041 17.7423 26.2518C17.7431 26.1995 17.7251 26.1482 17.6814 26.1104C17.5886 26.0302 17.4967 25.9497 17.3986 25.8757C17.3239 25.8194 17.1926 25.7394 17.084 25.739C17.2767 25.4255 17.5252 24.9281 17.5675 24.522ZM49.491 39.4666C49.515 39.3932 49.4985 39.3082 49.4163 39.2709C49.412 39.2688 49.4074 39.2666 49.4031 39.2647C49.3982 39.2578 49.3933 39.251 49.3884 39.244C49.4464 39.1839 49.4719 39.0866 49.429 39.0041C49.4173 38.982 49.405 38.9604 49.3923 38.9391C49.4198 38.9592 49.4477 38.9785 49.4766 38.9955C49.5431 39.0351 49.6574 38.9859 49.6463 38.8981C49.5919 38.4721 49.153 38.1746 48.8419 37.9281C48.6696 37.7917 48.4997 37.6532 48.3425 37.4993C48.2578 37.4164 48.1954 37.3386 48.0741 37.3148C47.9602 37.2924 47.8457 37.2945 47.7314 37.3091C47.5217 37.3355 47.3202 37.3983 47.1132 37.4377C47.1019 37.44 47.0904 37.4418 47.0792 37.4437C47.009 37.4141 46.9363 37.3911 46.8604 37.3772C46.8023 37.3665 46.7513 37.3794 46.7139 37.4086C46.6819 37.3975 46.6501 37.3844 46.6181 37.3692C46.4236 37.2769 46.2461 37.1714 46.0674 37.0503C46.0419 37.0331 46.0165 37.0152 45.9914 36.9974C45.9356 36.9001 45.8722 36.8086 45.7938 36.7265C45.7534 36.6843 45.7036 36.6691 45.6549 36.6732C45.6309 36.6535 45.6061 36.6352 45.5798 36.6186C45.0931 36.2359 44.5602 35.9154 43.9999 35.652C43.8573 35.5851 43.7122 35.5231 43.5661 35.464C43.4824 35.4301 43.4097 35.3942 43.317 35.4106C43.2312 35.426 43.1461 35.4468 43.0615 35.4681C42.7548 35.5453 42.4546 35.6511 42.1579 35.7601C42.0315 35.8065 41.9047 35.8547 41.7772 35.9023C42.0321 35.6362 42.2642 35.3996 42.2642 35.3996C42.2642 35.3996 42.1049 35.1279 42.0674 35.053C42.03 34.9779 41.8614 34.8187 41.8427 34.7906C41.8238 34.7625 41.5616 34.3221 41.3086 33.9661C41.0556 33.6101 40.9245 32.1672 40.7277 31.5114C40.5309 30.8556 40.0249 30.7056 39.6597 30.284C39.6355 30.2563 39.6127 30.229 39.5905 30.2019L39.7042 30.1559C39.7042 30.1559 39.1342 28.5573 38.8139 27.6358C38.5999 26.5079 38.3325 25.1889 38.2917 25.0717C38.2418 24.9281 37.9357 24.3472 37.9357 24.3472L38.2229 24.2598C38.2229 24.2598 38.4979 24.1972 38.779 24.1412C39.0599 24.085 39.4596 23.8351 39.6595 23.4415C39.8593 23.0482 39.5723 21.5053 39.5723 21.5053C39.5723 21.5053 39.5411 21.3553 39.5411 21.3241C39.5411 21.293 39.491 21.1368 39.491 21.1368C39.491 21.1368 39.5598 20.9681 39.5786 20.9495C39.5973 20.9308 39.5347 20.8245 39.5347 20.8245L39.3974 20.6684L39.4849 20.5434L39.641 20.3936L39.822 20.1999L39.9931 20.0187L39.9781 19.8189C39.9781 19.8189 40.0344 19.0069 39.9283 18.5822C39.822 18.1574 39.6909 18.4636 39.3786 18.0388C39.0663 17.6139 38.7726 17.1143 38.298 16.7145C37.8234 16.3148 37.2175 16.2711 36.8863 16.2773C36.5556 16.2836 36.3931 16.5648 36.3931 16.5648C36.3931 16.5648 36.0994 16.2898 35.4812 16.0588C34.8627 15.8277 34.6879 16.1776 34.4318 16.3961C34.1756 16.6146 34.3881 16.7646 34.3881 16.7646C34.3881 16.7646 34.2681 16.8984 34.1475 17.0566C33.9936 16.9085 33.8214 16.7759 33.6439 16.6622C33.544 16.5984 33.4369 16.5338 33.3651 16.4373C33.3082 16.3608 33.2602 16.2865 33.1888 16.2375C33.1744 16.2163 33.1611 16.1946 33.1498 16.1718C33.1184 16.1084 33.0333 16.0647 32.9602 16.0721C32.9356 16.0616 32.9075 16.0569 32.8757 16.0596C32.8078 16.0657 32.755 16.0879 32.7058 16.117C32.6278 16.0233 32.5474 15.9313 32.4643 15.8433C32.2642 15.6311 32.034 15.4537 31.8187 15.2581C31.7324 15.1795 31.6435 15.1015 31.5442 15.0396C31.4989 15.0111 31.4488 14.9922 31.3952 14.9883C31.3427 14.9846 31.315 15.0113 31.269 15.0244C31.1199 15.0675 30.9516 15.1625 30.8677 15.3012C30.8437 15.3154 30.8201 15.3301 30.7967 15.3455C30.7858 15.3527 30.7762 15.3619 30.768 15.3724C30.7152 15.4118 30.6678 15.4584 30.6561 15.5146C30.6323 15.6291 30.66 15.758 30.6814 15.8712C30.704 15.9904 30.792 16.1304 30.9077 16.1995C30.9089 16.2042 30.9102 16.2092 30.9114 16.2141C30.921 16.3577 30.9637 16.4921 31.0011 16.638C31.016 16.6963 31.0684 16.7531 31.1285 16.7654C31.3021 16.8013 31.4779 16.8247 31.6513 16.8641C31.7541 16.8875 31.8518 16.9204 31.949 16.9548C32.1185 17.507 32.5472 17.9576 32.9173 18.384C32.9719 18.4468 33.0261 18.51 33.0803 18.5734C33.1174 18.7642 33.1562 18.955 33.2834 19.114C33.4777 19.357 33.7508 19.515 34.0036 19.6941C34.0323 19.7298 34.0607 19.7655 34.0894 19.8012C34.0063 19.9539 33.6529 20.4917 33.6197 20.5247C33.5824 20.5621 33.6197 20.7121 33.6197 20.7121C33.6197 20.7121 33.6197 20.7363 33.6197 20.7664C33.7034 21.3003 33.622 21.8098 33.5766 22.3417C33.5483 22.6724 33.5317 23.0083 33.4826 23.3381L33.551 23.6976C33.5598 23.795 33.5879 23.8952 33.6287 23.9949C33.5762 24.0257 33.5263 24.0616 33.4769 24.095C33.3605 24.1738 33.2557 24.2491 33.1652 24.3583C33.1037 24.4326 33.045 24.514 33.0189 24.6041C32.9194 24.5206 32.8063 24.4611 32.6701 24.4824C32.6686 24.4732 32.6672 24.464 32.6658 24.4547C32.6658 24.4533 32.658 24.3926 32.6565 24.38C32.6518 24.3417 32.6475 24.3035 32.643 24.2653C32.6206 24.0784 32.5915 23.8933 32.5437 23.7113C32.5092 23.5796 32.4472 23.422 32.3375 23.3354C32.1869 23.2168 32.041 23.3325 31.9503 23.4622C31.9185 23.5076 31.938 23.5626 31.9681 23.6009C32.002 23.644 32.0324 23.6896 32.0603 23.737C32.0744 23.8024 32.0865 23.8685 32.1007 23.9338C32.1349 24.0917 32.1649 24.2502 32.2066 24.4065C32.2306 24.4958 32.2552 24.585 32.28 24.6741C32.1994 24.7235 32.1146 24.7748 32.0264 24.7654C31.9733 24.7596 31.9144 24.7994 31.8893 24.844C31.7884 25.0233 31.9142 25.2841 32.01 25.4435C32.1175 25.6227 32.272 25.7214 32.4813 25.7214C32.5094 25.7214 32.5377 25.7201 32.5663 25.7181C32.581 25.7747 32.5956 25.8313 32.6102 25.8882C32.6307 25.9789 32.6518 26.0696 32.675 26.1599C32.7142 26.3127 32.7546 26.4654 32.795 26.6178C32.8757 26.94 32.9561 27.2623 33.0382 27.5841C33.4061 29.0268 33.7847 30.4682 34.0916 31.9255C34.2525 32.6894 34.4093 33.4533 34.6169 34.2064C34.6933 34.4832 34.755 34.7637 34.8338 35.0393C34.4897 35.1232 34.1702 35.3323 33.8352 35.4527C33.8118 35.4611 33.7888 35.4685 33.7658 35.4753L32.6976 35.3284C32.5665 35.2822 32.4358 35.2354 32.303 35.1954C32.025 35.1115 31.7377 35.0649 31.4494 35.1164C31.1525 35.1696 30.8948 35.3397 30.6184 35.4505C30.4704 35.5098 30.3114 35.5432 30.1602 35.5935C29.9932 35.6491 29.8284 35.7108 29.6601 35.7623C29.3872 35.8461 29.1295 35.9244 28.8425 35.8961C28.8152 35.8935 28.7883 35.8906 28.7614 35.8877C28.738 35.8606 28.7159 35.836 28.6964 35.8147C28.6307 35.7422 28.562 35.6725 28.4914 35.6046C28.4883 35.5974 28.4848 35.5902 28.4807 35.5834C28.2679 35.2311 28.0143 34.9085 27.7203 34.6207C27.7158 34.6164 27.7108 34.6123 27.7059 34.6082C27.7578 34.5333 27.8095 34.458 27.8615 34.3826C27.8812 34.3543 27.9006 34.3258 27.9201 34.2973C28.2534 33.8764 28.5716 33.4441 28.8694 32.9968C28.9319 32.903 28.9929 32.808 29.0532 32.7126C29.3314 32.3406 29.5924 31.9583 29.7619 31.5196C29.7837 31.4636 29.7607 31.3742 29.7135 31.3364C29.3394 31.0356 29.126 30.5825 28.762 30.27C28.6648 30.1863 28.5583 30.1122 28.4391 30.064C28.318 30.0148 28.1978 30.0195 28.0703 30.0314C27.9573 29.9922 27.8003 30.0609 27.6924 30.0825C27.5602 30.1089 27.4258 30.1221 27.2927 30.1424C27.0114 30.1855 26.7606 30.2942 26.4967 30.395C26.0057 30.5829 25.5009 30.7325 24.991 30.8602C24.9841 30.8142 24.9783 30.7729 24.9783 30.7619C24.9783 30.7338 24.9315 30.5277 24.9315 30.4996C24.9315 30.4715 24.8566 30.3496 24.8566 30.3496C24.8566 30.3496 24.7159 30.2561 24.6504 30.228C24.5848 30.1998 24.3131 29.928 24.1258 29.6095C23.9384 29.2909 23.9852 27.4733 23.9477 26.6488C23.9103 25.8244 23.7041 25.6557 23.5075 25.1967C23.3105 24.7377 23.3856 24.0536 23.3856 23.9225C23.3856 23.7913 23.3575 23.5851 23.3575 23.5851C23.3575 23.5851 23.3294 23.3416 23.3294 23.3042C23.3294 23.2667 23.3294 23.1261 23.3013 23.0137C23.2732 22.9012 23.1421 22.236 23.0296 21.5897C22.9172 20.9431 22.4861 20.6809 22.4299 20.6809C22.3738 20.6809 22.4299 20.4279 22.4299 20.4279C22.4299 20.4279 22.3363 20.2779 22.3082 20.2779C22.2801 20.2779 22.3082 20.1 22.3082 20.1L22.252 19.9032L22.1114 19.8751L22.0927 19.7345C22.0927 19.7345 22.1771 19.4723 22.2052 19.4723C22.2333 19.4723 22.3738 19.1536 22.3738 19.1536L22.5236 18.8539C22.5236 18.8539 22.5331 18.6384 22.5331 18.5916C22.5331 18.5446 22.4393 18.3197 22.4393 18.3197L22.3363 18.2167C22.3363 18.2167 22.2333 18.1232 22.1676 18.0762C22.102 18.0294 22.1114 17.9451 22.1114 17.9451L22.1395 17.6826C22.1395 17.6826 22.4018 17.3455 22.5893 17.3829C22.7766 17.4204 23.3951 17.8889 23.4419 17.917C23.4886 17.9451 23.8165 18.2354 23.8541 18.273C23.8914 18.3105 24.0601 18.5354 24.1163 18.6009C24.1725 18.6665 24.1725 18.7509 24.1725 18.779C24.1725 18.8071 24.4723 19.0131 24.6785 19.1536C24.8846 19.2942 25.6717 20.0343 25.6717 20.0343C25.6717 20.0343 26.0745 20.3622 26.1401 20.4279C26.1773 20.465 26.2478 20.4781 26.3445 20.4997C26.3121 20.5986 26.3069 20.7164 26.3225 20.8106C26.3361 20.8916 26.3506 20.9827 26.3937 21.0523C26.3878 21.0824 26.3763 21.1138 26.406 21.1378C26.4643 21.1848 26.5158 21.1992 26.5907 21.2004C26.641 21.2014 26.6843 21.1657 26.6982 21.1187C26.7027 21.1032 26.7079 21.0853 26.7128 21.0664C26.727 21.1116 26.7434 21.1561 26.7664 21.1994C26.7666 21.1996 26.7666 21.1998 26.7668 21.2C26.7581 21.2179 26.7487 21.2349 26.7364 21.2499C26.7073 21.2854 26.6939 21.3475 26.7364 21.3812C26.8246 21.4512 26.8967 21.4955 27.0165 21.4852C27.1365 21.4748 27.2707 21.4692 27.3848 21.4274C27.5789 21.3559 27.6792 21.1563 27.6885 20.9577C27.6905 20.9454 27.6909 20.9328 27.6891 20.9203C27.6891 20.9142 27.6887 20.9082 27.6885 20.9023C27.6928 20.8961 27.6961 20.8889 27.6977 20.8805C27.731 20.7301 27.6852 20.537 27.6405 20.3926C27.6158 20.3126 27.5968 20.237 27.5153 20.2018C27.5118 20.2003 27.5087 20.1989 27.5054 20.1974L27.3239 20.0499L27.3988 19.8751V19.7001L27.2364 19.5004L26.999 19.288C26.999 19.288 26.7243 18.9757 26.6492 18.9757C26.5743 18.9757 26.6492 18.7008 26.6492 18.7008C26.6492 18.7008 26.5242 18.6009 26.4869 18.5883C26.4493 18.5758 26.2244 18.1388 25.5998 17.3767C24.9753 16.6146 24.6129 16.4273 24.6129 16.4273L24.4442 15.7715L23.1513 14.4597L23.3013 13.2419C23.3013 13.2419 24.0133 11.7428 23.9009 11.4241C23.7884 11.1057 23.3389 10.4686 21.1277 10.2063C18.9166 9.94389 18.0515 10.7267 17.9984 10.7683C17.8322 10.8993 17.6894 11.4055 17.6894 11.4055C17.6894 11.4055 17.5488 11.4898 17.455 11.5087C17.3613 11.5273 16.9209 11.5741 16.6493 11.9488C16.3776 12.3237 16.3963 13.476 16.3963 13.476C16.3963 13.476 16.387 13.8883 16.387 13.9539C16.387 14.0194 16.4151 14.2724 16.4244 14.3099C16.4338 14.3473 16.7241 14.7035 16.2932 15.5466C15.8623 16.3897 15.7967 17.0268 15.7686 17.1487C15.7405 17.2706 15.8623 17.4672 15.8623 17.5142C15.8623 17.561 16.0121 17.8232 16.1716 18.2916C16.3308 18.7601 16.2089 18.629 16.3776 19.1163C16.4941 19.4526 16.6238 19.6594 16.6932 19.7553C16.7014 19.7893 16.7211 19.8207 16.759 19.8285C16.859 19.849 16.9909 19.8683 17.097 19.8353L17.099 19.8375L17.1645 20.1375C17.1645 20.1375 17.1458 20.2873 16.9117 20.915C16.6774 21.5427 16.5649 22.5077 16.4619 22.9669C16.3589 23.4259 16.1527 23.4916 15.881 24.2598C15.7156 24.7276 15.6161 25.6571 15.5638 26.3129C15.5104 26.3306 15.4567 26.3474 15.4023 26.362C15.2332 26.4075 15.0623 26.4434 14.8895 26.4678C14.5857 26.488 14.2795 26.4921 13.9756 26.4955C13.8987 26.4964 13.8523 26.544 13.8367 26.6008L13.7292 26.5906C13.223 26.9784 12.8153 27.8558 12.489 28.9453C12.4845 28.9517 12.4802 28.958 12.4757 28.9644C12.3154 29.1922 12.1386 29.3824 11.928 29.5623C11.8476 29.6311 11.7713 29.7002 11.7132 29.7897C11.6488 29.8894 11.6463 30.0361 11.6568 30.1502C11.6709 30.3039 11.7345 30.4641 11.7624 30.6227C11.5919 30.726 11.4296 30.8456 11.2505 30.9311C11.2396 30.9252 11.2287 30.9197 11.2179 30.9137C10.6532 30.1572 9.52649 31.0549 9.04306 31.5422C8.94354 31.6423 8.96693 31.8087 9.08471 31.8824C8.88178 32.0784 8.68746 32.2831 8.50484 32.4988C8.35547 32.6757 8.57912 32.8946 8.75641 32.7504C8.95893 32.5852 9.13929 32.3974 9.31617 32.2062C9.3412 32.3266 9.46473 32.426 9.5864 32.3344C9.68982 32.2565 9.79159 32.1766 9.89234 32.0958C9.94261 32.0999 9.99247 32.1032 10.0415 32.1061C10.2646 32.1196 10.4862 32.1112 10.7078 32.0962C10.8409 32.1387 10.9917 32.1678 11.1108 32.1229C11.1085 32.1678 11.122 32.2113 11.1588 32.2481C11.1961 32.2852 11.2528 32.3028 11.3057 32.2967C11.3564 32.381 11.4904 32.4206 11.5712 32.3496C11.5866 32.3589 11.6018 32.3679 11.6174 32.3769C11.667 32.4052 11.7189 32.4075 11.7643 32.3923C11.4017 34.8027 11.2833 37.0198 11.2833 37.0198L18.4512 40.8584H35.8103L38.5943 41.4574C38.5943 41.4574 50.0998 39.8493 50.2356 39.9172C50.2672 39.933 49.9713 39.7541 49.491 39.4666Z" fill="#151516"/>
</g>
<defs>
<clipPath id="clip0_12_40">
<rect width="220" height="51" fill="white"/>
</clipPath>
</defs>
</svg>
