<svg width="20" height="20" viewBox="0 0 20 20" fill="none" xmlns="http://www.w3.org/2000/svg">
<path d="M5.13281 7.80859L4.37695 8.14648L4.36914 8.15039C4.05273 8.27539 3.85352 8.39258 3.73242 8.51172L5.13477 9.26953V7.80859H5.13281ZM15.582 8.13867L14.8477 7.8125V9.26563L16.2266 8.51953C16.0996 8.41016 15.8965 8.29492 15.582 8.13867Z" fill="#E6E6E6"/>
<path d="M17.1484 8.54883C17.1484 8.55273 17.1504 8.55469 17.1504 8.55664C17.1504 8.55469 17.1484 8.55078 17.1484 8.54883ZM11.8594 9.28711C12.1601 9.12109 12.3984 8.89258 12.5449 8.63477C12.5918 8.5918 12.6191 8.53516 12.623 8.47266C12.6289 8.45703 12.6367 8.43945 12.6426 8.42383H12.623C12.6191 8.29102 12.5078 8.18555 12.373 8.18555C12.2441 8.18555 12.1367 8.2832 12.125 8.41211H12.1211C11.9277 8.6543 11.6719 8.82422 11.3554 8.94531C11.039 9.06641 10.6601 9.14453 10.2187 9.14453C9.7617 9.14453 9.38279 9.05469 9.02732 8.91016C8.67771 8.76953 8.38279 8.52148 8.18357 8.20312C7.98826 7.88867 7.8906 7.55273 7.8906 7.16797C7.8906 6.77344 7.99021 6.39453 8.16599 6.0293C8.33591 5.67188 8.61131 5.37695 8.95506 5.18164C9.30271 4.98047 9.70115 4.87695 10.1992 4.87695C10.7871 4.87695 11.2461 5.03125 11.5742 5.33203C11.9023 5.63281 12 6.00781 12 6.45508C12 6.70508 11.9687 6.94531 11.8535 7.17773C11.7383 7.41016 11.625 7.53711 11.4375 7.67578C11.2988 7.78125 10.9863 7.9043 10.8965 7.9043C10.8672 7.9043 10.8418 7.89258 10.8203 7.86914C10.7988 7.84766 10.789 7.8125 10.789 7.76758C10.7949 7.68359 10.8086 7.59961 10.8281 7.51562L11.2383 5.94727C11.2578 5.91211 11.2734 5.875 11.2734 5.83203L11.2715 5.82031L11.2734 5.8125H11.2715V5.81055C11.2715 5.67969 11.1621 5.57227 11.0293 5.57227C10.9648 5.57227 10.9043 5.5957 10.8574 5.64062C10.8125 5.68555 10.7851 5.74609 10.7851 5.81055L10.7871 5.83203C10.7871 5.84766 10.7929 5.86133 10.7969 5.875L10.7715 5.9668C10.6152 5.71875 10.248 5.56641 9.91795 5.56641C9.63865 5.56641 9.22068 5.75977 8.93552 6.19531C8.72459 6.5293 8.60349 6.91211 8.58787 7.30469C8.57615 7.65039 8.67966 7.95703 8.88084 8.16406C9.08201 8.37109 9.33006 8.43164 9.48435 8.43164C9.76756 8.43164 10.0195 8.32812 10.2363 8.12109C10.2578 8.21484 10.3125 8.29688 10.3906 8.35156C10.4668 8.4043 10.582 8.43164 10.7363 8.43164C11.3047 8.43164 11.8281 8.13477 12.1172 7.73633C12.3652 7.39844 12.5039 6.94336 12.5039 6.48047C12.5039 6.0918 12.4414 5.73242 12.25 5.4043C12.0586 5.07617 11.8125 4.82227 11.4511 4.64453C11.0898 4.4668 10.6777 4.37695 10.2129 4.37695C9.66599 4.37695 9.17771 4.48828 8.75193 4.70898C8.32615 4.92969 7.99021 5.26172 7.74607 5.70117C7.49998 6.14258 7.37693 6.61719 7.37693 7.12891C7.37302 7.58008 7.48435 8.02344 7.70115 8.41992C7.9199 8.82812 8.26756 9.15039 8.68943 9.3418C9.13279 9.54492 9.65623 9.64648 10.2656 9.64648C10.8906 9.64648 11.4238 9.52734 11.8594 9.28711ZM10.3515 7.19922C10.2793 7.41211 10.1953 7.57422 10.0976 7.68555C10.0293 7.76367 9.95896 7.82031 9.8906 7.85742C9.7988 7.9082 9.73045 7.94727 9.62498 7.94727C9.48435 7.94727 9.30662 7.89258 9.21287 7.7832C9.11716 7.67383 9.07029 7.50391 9.07029 7.27344C9.07029 7.10156 9.16013 6.90234 9.22849 6.67969C9.29685 6.45703 9.39841 6.34375 9.53318 6.22266C9.66795 6.10156 9.79099 6.06836 9.9492 6.06836C10.0976 6.06836 10.2539 6.11133 10.3496 6.2207C10.4472 6.33008 10.5078 6.41602 10.5078 6.62109C10.5097 6.80273 10.4219 6.98633 10.3515 7.19922Z" fill="white"/>
<path d="M17.1504 8.55664C17.1504 8.55273 17.1484 8.55078 17.1484 8.54883C16.9785 7.95898 16.4219 7.68359 15.9219 7.43555L15.9141 7.43164L14.8477 6.95508V2.67578L5.13281 2.72461V6.95312L4.07422 7.42578C3.4668 7.66602 2.77148 8.05664 2.77148 8.93945V15.6797C2.77148 16.4805 3.42383 17.1328 4.22461 17.1328H15.748C16.5488 17.1328 17.2012 16.4805 17.2012 15.6797V8.93945C17.2012 8.79883 17.1836 8.67188 17.1504 8.55664ZM14.8477 7.8125L15.582 8.14062C15.8984 8.29687 16.0996 8.41211 16.2266 8.51953L14.8477 9.26562V7.8125ZM5.91406 7.19922V3.50195L14.0664 3.46094V9.6875L10.1797 11.791C10.0605 11.8555 9.91602 11.8555 9.79688 11.791L5.91406 9.69141V7.19922ZM5.13281 7.80859V9.26953L3.73047 8.50977C3.85156 8.39063 5.13281 7.80859 5.13281 7.80859ZM16.4199 15.6797C16.4199 16.0508 16.1191 16.3516 15.748 16.3516H4.22461C3.85352 16.3516 3.55273 16.0508 3.55273 15.6797V9.30273L9.42188 12.4805C9.59766 12.5762 9.79102 12.623 9.98633 12.623C10.1797 12.623 10.373 12.5762 10.5508 12.4805L16.4199 9.30273V15.6797Z" fill="white"/>
</svg>
