<svg width="1906" height="527" viewBox="0 0 1906 527" fill="none" xmlns="http://www.w3.org/2000/svg">
<g clip-path="url(#clip0_20_3)">
<path d="M-614.658 526.963C-614.658 526.963 582.464 526.15 813.043 526.105C814.914 526.105 817.984 526.105 819.855 526.105C1320.19 525.986 1820.57 525.867 2321 525.748C2322.88 525.748 2325.95 525.739 2327.82 525.73C2329.49 525.694 2331.16 525.648 2332.83 525.611C2334.73 525.556 2337.46 525.155 2338.02 524.762C2338.57 524.369 2339.01 523.519 2339 522.889C2339 522.889 2339 522.889 2338.75 522.834C2336.97 522.451 2336.5 522.387 2336.5 522.387C2334.73 522.131 2331.68 522.113 2329.71 522.341C2328.31 521.784 2326.91 521.236 2325.5 520.687C2323.77 520.359 2321.06 519.546 2319.49 518.869C2318.46 518.394 2317.42 517.919 2316.38 517.444C2314.53 517.39 2308.6 516.987 2306.95 516.796C2305.29 516.613 2302.51 516.22 2300.75 515.919C2297.38 513.754 2294 511.589 2290.62 509.423C2288.86 509.104 2286.17 508.245 2284.6 507.496C2283.12 507.14 2281.64 506.774 2280.16 506.418C2278.67 505.55 2276.27 504.061 2274.81 503.111C2272.66 502.444 2270.52 501.786 2268.36 501.128C2266.85 500.306 2264.26 499.155 2262.62 498.561C2262.62 498.561 2258.13 496.935 2254.5 495.3C2249.91 493.245 2246.25 489.161 2240.32 489.819C2239.13 489.947 2239.13 489.947 2239.13 489.947C2238.19 489.061 2236.18 487.626 2234.68 486.759C2230.6 484.237 2226.51 481.707 2222.42 479.185C2220.84 478.409 2218.36 476.993 2216.88 476.024C2216.88 476.024 2209.08 470.908 2201.78 471.986C2200.14 472.233 2200.14 472.233 2200.14 472.233C2198.64 471.575 2195.99 470.717 2194.24 470.324C2191.81 468.46 2189.36 466.606 2186.92 464.742C2185.19 464.304 2182.44 463.372 2180.82 462.678C2175.27 459.681 2169.7 456.685 2164.12 453.688C2162.69 452.583 2160.24 450.993 2158.67 450.144C2158.67 450.144 2157.6 449.568 2155.19 449.559C2152.35 449.559 2150.73 448.454 2150.73 448.454C2149.25 447.449 2144.62 443.721 2143.2 442.799C2141.77 441.876 2136.47 440.533 2134.95 440.305C2133.42 440.086 2128.29 436.751 2126.98 435.682C2125.69 434.614 2123.6 432.503 2122.36 430.996C2115.83 425.542 2109.26 420.097 2102.67 414.644C2101.22 413.492 2099.1 411.994 2098.82 411.62C2098.53 411.254 2097.15 409.93 2095.74 408.678C2092.79 405.207 2089.81 401.735 2086.83 398.255C2085.43 396.967 2083.12 394.911 2081.68 393.687C2078.4 391.65 2075.12 389.612 2071.83 387.575C2070.06 387.064 2067.22 386.132 2065.51 385.483C2062.21 383.446 2058.9 381.409 2055.6 379.381C2054.17 378.093 2051.94 375.818 2050.62 374.329C2050.62 374.329 2044.23 367.139 2038.97 363.796C2032.42 359.612 2023.44 350.458 2023.43 350.458C2022.04 349.042 2019.78 346.731 2018.39 345.315C2016.76 342.52 2015.11 339.724 2013.46 336.929C2012.48 334.818 2010.46 329.675 2009.75 328.67C2009.04 327.665 2007.49 325.354 2006.3 323.545C2005.35 321.892 2004.4 320.247 2003.44 318.594C2002.38 316.584 2000.62 313.314 1999.53 311.331C1994.9 303.246 1990.22 295.171 1985.5 287.086C1984.3 285.249 1982.3 282.308 1981.05 280.545C1975.62 274.333 1970.17 268.111 1964.69 261.89C1963.24 260.447 1959.79 257.295 1959.01 256.391C1958.23 255.486 1956.53 253.331 1955.23 251.586C1953.28 248.288 1951.32 244.99 1949.35 241.683C1948.07 239.92 1946.01 236.932 1944.8 235.041C1939.27 227.094 1933.69 219.155 1928.06 211.207C1926.67 209.581 1924.38 206.95 1922.96 205.361C1920.99 204.173 1919.01 202.994 1917.03 201.807C1915.27 200.975 1910.8 195.631 1909.8 194.115C1908.8 192.607 1906.26 189.529 1905.5 189.035C1904.73 188.542 1902.75 187.218 1901.08 186.085C1898.76 184.733 1896.43 183.381 1894.11 182.028C1892.7 180.384 1890.06 178.411 1888.24 177.643C1884.53 176.127 1880.8 174.62 1877.07 173.103C1875.44 171.861 1872.91 169.577 1871.44 168.015C1867.85 164.991 1864.24 161.976 1860.63 158.962C1859.2 157.299 1856.29 156.157 1854.16 156.413C1848.47 155.28 1842.76 154.156 1837.06 153.024C1835.06 152.749 1826.92 154.942 1824.9 155.691C1822.87 156.449 1819.39 158.551 1817.14 160.369C1813.27 163.511 1809.4 166.645 1805.55 169.778C1803.31 171.596 1799.78 175.214 1797.68 177.817C1797.68 177.817 1791.83 185.098 1786.69 191.502C1778.1 202.19 1764.86 218.862 1764.87 218.862C1762.81 221.466 1759.39 225.504 1757.26 227.834C1754.96 229.807 1752.66 231.78 1750.36 233.753C1748.16 235.251 1744.57 237.472 1742.37 238.705C1735.43 243.008 1728.49 247.31 1721.57 251.613C1719.39 253.193 1715.93 254.692 1713.85 254.938C1712.56 255.094 1711.26 255.249 1709.96 255.404C1707.9 255.651 1704.44 257.268 1702.27 258.994C1693.8 263.261 1685.35 267.518 1676.92 271.775C1674.79 272.716 1671.3 275.164 1669.2 277.211C1663.98 280.7 1658.77 284.19 1653.57 287.68C1651.46 289.534 1648.06 291.224 1646.03 291.434C1644.45 291.59 1642.88 291.745 1641.3 291.909C1639.27 292.11 1634.6 294.55 1633.63 295.299C1632.67 296.039 1630.14 298.131 1628.04 299.93C1622.73 304.489 1617.44 309.047 1612.17 313.615C1610.06 315.132 1606.6 317.534 1604.48 318.941C1602.67 319.982 1600.85 321.024 1599.03 322.065C1596.93 322.997 1593.5 324.468 1591.41 325.336C1586.99 327.117 1582.57 328.908 1578.16 330.698C1576.07 331.621 1572.65 333.156 1570.56 334.106C1567.88 335.704 1565.19 337.303 1562.51 338.902C1560.42 340.281 1553.73 345.443 1551.84 346.932C1549.94 348.421 1543.5 353.966 1541.67 355.711C1539.82 357.456 1536.71 358.936 1534.74 359.018C1531.57 359.137 1528.4 359.256 1525.23 359.374C1523.26 359.447 1519.97 360.891 1517.92 362.59C1516.22 363.257 1514.51 363.915 1512.8 364.581C1510.74 365.879 1507.86 365.55 1506.41 363.86C1503.22 360.745 1500.01 357.63 1496.81 354.514C1495.27 352.989 1492.73 350.568 1491.15 349.143C1488.17 346.365 1485.18 343.588 1482.18 340.811C1480.68 339.194 1478.19 336.591 1476.65 335.01C1473.46 331.566 1470.25 328.131 1467.04 324.696C1465.52 323.07 1462.99 320.476 1461.43 318.932C1457.03 315.086 1452.59 311.24 1448.15 307.385C1446.47 306.133 1443.74 304.023 1442.08 302.717C1440.41 301.456 1438.74 300.195 1437.08 298.934C1435.45 297.527 1432.62 295.7 1430.8 294.869C1426.62 293.188 1422.43 291.507 1418.24 289.836C1416.56 288.511 1409.17 286.821 1407.37 286.647C1405.58 286.474 1402.68 285.432 1400.91 284.345C1395.85 281.102 1390.76 277.859 1385.66 274.616C1383.9 273.501 1381.01 271.656 1379.26 270.514C1379.26 270.514 1372.21 265.937 1367.69 260.794C1361.53 253.787 1350.02 249.046 1350.02 249.046C1348.14 248.279 1344.99 247.42 1343 247.155C1343 247.155 1337.52 246.406 1332.89 246.269C1328.26 246.141 1322.59 246.342 1322.59 246.342C1320.57 246.415 1317.29 246.214 1315.32 245.894C1308.35 244.241 1301.39 242.587 1294.41 240.934C1292.53 240.075 1289.39 239.079 1287.41 238.714C1283.6 238.367 1279.79 238.01 1275.97 237.654C1273.93 237.892 1270.57 238.54 1268.51 239.107C1266.72 240.148 1264.93 241.199 1263.15 242.24C1261.1 242.551 1257.74 243.3 1255.68 243.93C1255.68 243.93 1248.3 246.168 1242.81 246.15C1233.92 246.123 1219.83 246.05 1219.83 246.05C1217.81 246.04 1214.5 246.068 1212.48 246.123C1212.48 246.123 1211.89 246.132 1209.86 245.583C1207.45 244.926 1206.63 244.506 1206.63 244.506C1204.76 243.556 1201.56 243.61 1199.53 244.634C1192.24 249.685 1184.98 254.728 1177.74 259.771C1175.77 261.251 1173.11 263.882 1172.72 264.421C1172.32 264.969 1170.58 267.353 1168.84 269.747C1162.24 276.379 1155.67 283.02 1149.13 289.662C1147.21 291.279 1142.1 294.769 1140.79 296.029C1139.48 297.281 1134.29 301.401 1132.67 302.433C1131.05 303.475 1128.15 303.813 1126.24 303.182C1125.08 302.552 1123.94 301.922 1122.79 301.301C1120.91 300.46 1117.8 299.163 1115.9 298.423C1113.01 297.619 1110.13 296.815 1107.23 296.011C1105.25 295.91 1101.99 295.828 1099.99 295.828C1089.04 295.91 1078.07 295.984 1067.12 296.066C1065.13 296.075 1061.85 296.312 1059.85 296.605C1059.85 296.596 1058.45 296.797 1056.02 298.103C1047.43 302.735 1038.67 304.882 1030.04 308.49C1025.57 310.372 1020.07 312.08 1020.07 312.08C1018.08 312.702 1014.83 313.505 1012.84 313.862C1009.05 314.903 1005.27 315.945 1001.48 316.986C999.5 317.525 996.248 318.174 994.259 318.429C992.561 319.233 990.862 320.037 989.155 320.85C987.175 321.371 983.932 321.983 981.952 322.202C981.952 322.202 977.311 322.714 973.278 326.012C971.453 327.501 969.191 327.19 967.129 327.464C964.65 327.802 964.65 327.811 964.65 327.811C963.033 327.885 960.218 329.218 958.383 330.78C955.976 332.37 953.578 333.96 951.18 335.54C949.546 337.769 946.603 340.062 944.641 340.629C943.097 341.259 941.562 341.889 940.027 342.529C938.074 343.241 934.877 344.282 932.924 344.84C931.617 345.123 930.309 345.397 929.001 345.68C927.03 345.635 923.815 345.991 921.853 346.475C920.572 346.676 919.292 346.877 918.011 347.078C916.095 348.046 910.545 346.557 909.083 345.717C907.62 344.886 905.041 342.702 903.343 340.875C895.323 334.106 887.257 327.337 879.147 320.558C877.285 319.316 874.197 318.329 872.28 318.384C870.373 318.429 868.683 318.265 868.683 318.256C866.694 318.237 862.117 317.753 861 317.342C859.891 316.931 857.367 316.21 855.396 315.735C854.042 314.912 852.698 314.099 851.336 313.277C849.356 313.14 846.222 311.897 844.369 310.518C841.972 308.728 839.565 306.946 837.158 305.156C835.305 303.776 832.444 300.889 830.791 298.743C824.251 290.822 817.657 282.902 811.036 274.981C809.301 273.045 806.341 270.14 805.796 269.893C805.251 269.637 800.773 269.427 799.529 269.427C798.293 269.427 791.917 273.602 790.183 274.963C788.439 276.324 785.369 277.439 783.371 277.439H778.884C776.877 277.439 773.725 276.151 771.872 274.57C770.546 273.702 769.211 272.834 767.885 271.967C765.987 270.587 762.917 268.157 761.055 266.577C759.356 265.654 757.658 264.731 755.959 263.809C754.079 262.301 750.991 259.871 749.093 258.41C745.224 254.947 741.337 251.485 737.449 248.023C735.723 245.903 732.871 242.478 731.119 240.413C728.648 237.115 726.168 233.826 723.68 230.529C721.963 228.327 719.12 224.819 717.358 222.736C715.042 219.886 712.726 217.044 710.401 214.203C708.557 212.376 705.542 210.43 705.306 210.366C705.07 210.303 703.208 210.184 701.164 210.111C701.164 210.111 692.181 209.764 686.06 213.518C681.791 216.14 675.878 214.158 675.869 214.158C673.835 213.482 670.51 212.285 668.476 211.508C667.132 211.07 665.788 210.641 664.434 210.202C662.391 210.093 659.048 209.992 657.014 209.992C653.626 209.992 650.247 209.992 646.868 209.983C644.825 209.992 641.564 208.74 639.611 207.224C636.178 204.547 632.727 201.871 629.276 199.185C627.323 197.668 624.044 196.435 622 196.435C620.583 196.435 619.167 196.426 617.75 196.417C615.706 196.417 610.302 195.969 608.885 195.458C607.477 194.946 604.635 194.051 602.573 193.466C599.158 193.548 595.752 193.631 592.337 193.713C590.384 194.462 586.978 195.988 586.133 196.134C585.28 196.271 582.9 195.988 580.829 195.494C572.455 194.745 564.081 193.987 555.697 193.229C553.69 193.612 550.357 193.63 548.286 193.265C546.46 192.114 544.635 190.972 542.8 189.821C540.729 189.072 537.36 187.601 535.298 186.551C531.329 185.683 527.36 184.806 523.382 183.938C521.302 183.216 517.778 182.476 517.051 182.111C516.315 181.736 514.027 180.667 511.956 179.717C508.895 178.319 505.843 176.931 502.773 175.533C500.702 174.574 497.305 173.679 495.235 173.533C490.639 174.437 486.043 175.332 481.447 176.237C479.458 176.703 474.299 175.67 473.11 175.214C471.92 174.748 468.069 174.008 467.197 174.099C466.316 174.199 464.127 175.332 462.328 176.611C456.434 181.197 450.557 185.783 444.708 190.36C443.073 192.096 440.339 194.754 438.632 196.262C432.692 200.738 426.779 205.224 420.885 209.7C419.077 210.86 416.089 212.632 414.236 213.646C411.003 214.953 407.778 216.25 404.545 217.556C402.638 218.278 397.034 219.466 395.617 219.475C394.209 219.493 391.593 220.471 389.813 221.667C384.382 226.737 378.978 231.808 373.601 236.878C372.057 238.696 369.05 242.532 368.278 243.208C367.497 243.884 365.59 245.867 364.028 247.63C361.557 250.416 359.087 253.203 356.625 255.989C355.081 257.752 350.376 260.008 348.832 260.41C347.288 260.821 344.491 261.717 342.602 262.411C340.949 262.968 339.296 263.516 337.643 264.074C335.645 264.165 330.449 264.859 329.196 265.472C327.943 266.084 324.782 267.81 323.901 268.048C323.011 268.285 320.785 269.162 318.942 269.994C316.208 271.236 313.465 272.487 310.731 273.73C309.078 275.137 304.7 278.718 303.619 279.823C302.538 280.919 300.041 281.979 298.07 282.18C296.707 282.198 295.345 282.217 293.983 282.226C291.994 282.326 288.924 283.249 287.153 284.281C287.153 284.281 283.737 286.282 280.032 286.766C271.176 287.944 261.258 300.159 261.267 300.159C259.805 301.958 257.08 303.932 255.209 304.525C255.218 304.525 253.71 305.009 251.594 306.425C249.469 307.85 247.607 310.052 245.682 312.044C243.665 314.117 241.967 313.798 241.967 313.798C239.932 313.414 236.59 311.715 234.537 310.016C228.861 303.986 223.148 297.957 217.416 291.927C215.391 290 212.575 287.132 212.076 286.821C211.576 286.501 209.487 284.765 207.426 282.957C205.055 280.883 202.685 278.8 200.314 276.726C198.243 274.917 194.91 273.437 192.912 273.446C189.615 273.437 186.318 273.438 183.03 273.438C181.023 273.428 177.735 273.383 175.709 273.319C175.709 273.319 170.078 273.145 165.5 273.374C162.14 273.538 158.97 272.296 158.97 272.296C156.863 271.464 153.439 270.441 151.368 270.012C148.716 269.537 146.064 269.062 143.412 268.578C141.323 267.938 135.264 264.466 133.212 263.078C131.177 261.68 124.692 259.652 123.157 259.369C121.632 259.077 118.643 257.533 116.509 255.925C110.941 251.723 105.346 247.511 99.7424 243.3C97.5989 241.692 94.1022 238.988 91.9587 237.298C89.6608 236.174 87.3538 235.059 85.0468 233.936C82.9033 232.931 78.6527 231.25 77.6355 230.437C76.6091 229.624 74.0024 227.852 71.8408 226.5C70.4148 225.778 68.9979 225.038 67.572 224.307C65.4285 223.485 61.9044 222.169 59.7609 221.402C57.8899 220.626 56.0188 219.858 54.1478 219.091C51.9771 218.031 45.592 215.236 43.9299 214.998C42.2587 214.752 39.2343 214.56 37.1998 214.551C37.1998 214.551 14.4388 214.523 1.24176 214.669C-1.2832 214.706 -2.57293 215.108 -2.57293 215.108C-4.46211 215.693 -7.532 216.67 -9.4121 217.264C-13.6446 217.3 -17.8771 217.346 -22.1095 217.383C-24.253 216.844 -27.7498 215.93 -29.8933 215.345C-29.8933 215.345 -36.7598 213.482 -40.8833 217.09C-42.9087 218.863 -44.2801 218.936 -44.2801 218.936C-46.2874 219.054 -49.6389 218.935 -51.737 218.68C-53.5353 218.177 -55.3246 217.666 -57.1229 217.163C-59.3209 216.149 -62.5089 216.204 -64.1983 217.291C-67.3772 220.616 -70.5416 223.951 -73.6969 227.276C-75.0838 229.003 -77.3971 231.725 -78.8385 233.324C-78.8394 233.324 -80.3843 235.05 -82.6804 236.932C-84.981 238.832 -86.8221 240.02 -86.823 240.02C-88.496 241.098 -91.1463 243.062 -92.7103 244.387C-95.1663 247.858 -97.6131 251.33 -100.052 254.801C-101.268 256.784 -104.399 263.233 -105.532 264.503C-106.668 265.773 -108.737 268.148 -110.124 269.792C-112.182 272.231 -114.237 274.671 -116.285 277.119C-117.67 278.754 -119.548 282.061 -120.457 284.473C-123.3 290.439 -126.122 296.404 -128.925 302.369C-130.131 304.297 -132.255 307.156 -133.645 308.737C-135.712 311.916 -137.772 315.095 -139.825 318.265C-141.059 320.129 -144.548 325.537 -145.881 326.395C-147.216 327.245 -149.508 329.081 -150.972 330.47C-150.974 330.47 -158.674 337.76 -162.48 345.041C-164.929 349.718 -167.686 355.583 -167.685 355.583C-168.699 357.739 -170.475 361.064 -171.632 362.974C-172.781 365.129 -173.929 367.276 -175.072 369.423C-176.367 371.086 -178.058 373.662 -178.248 374.21C-178.438 374.749 -179.56 376.722 -180.737 378.577C-185.395 385.136 -190.02 391.695 -194.611 398.264C-195.923 399.844 -199.152 403.06 -200.104 403.544C-201.057 404.019 -203.219 405.006 -204.908 405.746C-212.195 409.336 -219.46 412.935 -226.7 416.526C-228.358 417.311 -233.6 420.097 -235.123 420.792C-236.648 421.486 -242.314 422.811 -244.108 422.774C-245.905 422.747 -248.492 422.865 -248.897 422.984C-249.302 423.103 -250.872 424.099 -252.385 425.195C-254.37 426.629 -256.352 428.073 -258.332 429.507C-259.841 430.603 -262.646 431.498 -264.57 431.498C-264.57 431.498 -272.248 431.508 -277.89 431.498C-280.725 431.498 -282.526 432.339 -282.526 432.339C-284.168 433.115 -286.761 434.586 -288.288 435.619C-291.502 437.446 -294.71 439.273 -297.912 441.109C-299.461 442.068 -302.5 442.031 -304.667 441.017C-306.812 440.013 -308.959 439.008 -311.108 438.003C-313.28 436.998 -316.628 436.166 -318.547 436.176C-318.547 436.176 -326.993 436.203 -333.047 436.148C-336.274 436.121 -339.492 434.997 -339.492 434.997C-341.617 434.257 -345.064 433.179 -347.152 432.613C-349.598 432.604 -352.045 432.594 -354.49 432.585C-356.191 433.188 -360.985 435.481 -362.473 435.6C-363.964 435.719 -366.751 435.829 -368.667 435.847C-371.56 435.874 -374.453 435.911 -377.346 435.938C-379.258 435.966 -382.398 435.984 -384.325 435.965C-385.732 435.509 -387.139 435.043 -388.547 434.577C-390.687 433.81 -395.04 431.919 -395.982 431.782C-396.923 431.654 -399.395 431.124 -401.475 430.621C-403.606 430.192 -405.739 429.763 -407.872 429.333C-410.087 428.255 -413.107 428.237 -414.58 429.315C-414.58 429.315 -415.824 430.219 -417.962 430.877C-420.109 431.535 -422.608 431.38 -425.005 431.434C-430.994 431.572 -437.529 431.654 -437.529 431.654C-439.445 431.672 -442.247 432.494 -443.753 433.481C-447.404 435.865 -451.046 438.259 -454.679 440.643C-456.178 441.63 -458.176 444.014 -459.117 445.951C-461.671 450.646 -464.209 455.333 -466.731 460.019C-467.718 461.874 -469.6 464.441 -470.915 465.738C-472.284 467.245 -473.65 468.743 -475.016 470.251C-476.447 471.32 -479.179 472.178 -481.087 472.169C-481.086 472.169 -484.838 472.133 -488.387 472.224C-489.961 472.27 -489.961 472.27 -489.961 472.27C-491.56 472.635 -494.16 473.567 -495.735 474.334C-499.286 477.139 -502.826 479.943 -506.356 482.748C-507.798 483.762 -509.971 485.763 -511.181 487.197C-511.181 487.197 -513.464 489.892 -516.703 490.888C-519.47 491.737 -521.458 493.738 -521.458 493.738C-522.743 495.035 -525.479 497.365 -526.127 497.831C-526.774 498.287 -528.581 499.283 -530.141 500.032C-532.309 500.69 -534.476 501.348 -536.64 502.006C-537.98 503.175 -540.279 504.883 -541.752 505.797C-544.304 506.427 -546.854 507.048 -549.403 507.679C-551.086 508.154 -554.114 508.638 -554.654 508.894C-555.195 509.158 -556.92 509.953 -558.489 510.666C-560.187 511.424 -561.882 512.182 -563.576 512.95C-565.435 513.004 -568.347 513.397 -570.045 513.827C-570.045 513.827 -570.523 513.955 -571.891 515.133C-573.594 516.604 -574.786 516.768 -574.786 516.768C-576.562 517.015 -579.649 516.969 -581.645 516.659C-581.644 516.659 -587.443 515.763 -590.223 518.888C-593.077 522.094 -597.792 523.072 -597.792 523.072C-599.517 523.428 -604.364 526.123 -606.046 526.205C-607.73 526.278 -610.527 526.333 -612.263 526.315C-612.263 526.315 -612.263 526.315 -613.738 526.534C-615.545 526.799 -615.974 526.982 -615.974 526.982C-615.984 526.982 -615.99 526.991 -616 527C-615.557 526.982 -615.112 526.963 -614.658 526.963Z" fill="#005555" fill-opacity="0.53"/>
<path d="M-328.384 533.663C-327.942 533.921 -326.242 534.171 -324.607 534.218C-322.146 534.273 -319.685 534.32 -317.226 534.374C-315.606 534.382 -312.959 534.39 -311.345 534.398C92.6024 534.413 2228 535 2228 535C2227.39 534.499 2226.66 534.116 2226.08 534.202C2224.68 534.406 2220.89 533.999 2219.9 533.756C2218.9 533.514 2216.98 532.888 2215.61 532.364C2214.82 531.785 2214.03 531.207 2213.24 530.628C2211.74 530.362 2209.48 529.556 2208.22 528.829C2207.34 528.446 2206.46 528.062 2205.57 527.671C2204.27 527.022 2202.09 526.037 2200.73 525.473C2198.73 524.59 2196.74 523.706 2194.74 522.814C2193.42 522.181 2191.33 521.007 2190.1 520.217C2187.66 518.849 2185.22 517.472 2182.77 516.103C2181.52 515.321 2179.48 514.023 2178.25 513.217C2176.1 511.934 2173.94 510.652 2171.78 509.369C2170.57 508.509 2168.47 507.32 2167.11 506.717C2167.11 506.717 2161.11 504.05 2157.73 500.593C2154.34 497.121 2148.07 494.899 2148.07 494.899C2146.66 494.406 2145.13 493.742 2145.01 493.609C2144.89 493.476 2143.75 492.701 2142.5 491.896C2138.98 489.792 2135.45 487.696 2131.92 485.592C2130.76 484.583 2128.83 482.995 2127.62 482.072C2121.91 477.426 2116.15 472.788 2110.35 468.142C2109.19 467.102 2107.37 465.279 2106.29 464.09C2102.18 459.069 2098.05 454.04 2093.88 449.011C2092.91 447.634 2091.24 445.491 2090.18 444.239C2088.15 442.542 2086.11 440.845 2084.06 439.14C2082.74 438.342 2079.6 436.676 2078.91 436.105C2078.21 435.526 2076.71 434.126 2075.57 432.984C2069.41 426.774 2063.19 420.556 2056.92 414.346C2055.86 413.032 2054.07 410.982 2052.94 409.801C2052.1 409.199 2051.26 408.605 2050.43 408.002C2049.13 407.111 2046.89 405.875 2045.47 405.257C2043.93 404.577 2042.39 403.904 2040.86 403.231C2039.43 402.606 2037.06 401.651 2035.58 401.127C2034.34 400.564 2033.12 400.001 2031.89 399.438C2030.42 398.867 2028.08 397.827 2026.68 397.123C2025.04 396.646 2023.41 396.169 2021.77 395.691C2020.22 395.316 2017.13 394.542 2016.55 394.057C2015.98 393.572 2014.42 392.453 2013.1 391.577C2008.07 388.277 2003.04 384.976 1997.97 381.675C1996.73 380.627 1994.7 378.875 1993.48 377.788C1992.81 376.834 1992.14 375.887 1991.47 374.941C1990.56 373.322 1987.67 367.8 1986.47 366.674C1985.29 365.547 1982.95 364.515 1981.28 364.382C1980.18 364.296 1979.09 364.202 1977.99 364.116C1976.33 363.983 1973.88 363.115 1972.56 362.184C1968.22 358.469 1963.87 354.754 1959.49 351.039C1958.26 349.889 1955.83 349.005 1954.09 349.075C1951.42 349.013 1948.74 348.942 1946.07 348.88C1944.36 348.864 1941.45 349.247 1939.59 349.74C1936.8 350.249 1934 350.765 1931.21 351.273C1929.29 352.055 1926.55 352.11 1925.1 351.383C1922.79 350.515 1920.46 349.639 1918.14 348.77C1916.49 348.583 1914.03 347.644 1912.7 346.682C1910.81 345.329 1908.92 343.976 1907.02 342.615C1905.68 341.661 1903.17 340.871 1901.45 340.871H1896.62C1894.9 340.871 1892.31 340.253 1890.86 339.494C1888.62 338.735 1886.36 337.977 1884.11 337.218C1882.36 337.328 1877.77 337.977 1876.6 338.352C1875.43 338.72 1873.56 337.844 1872.45 336.405C1868.8 332.439 1865.13 328.474 1861.45 324.508C1860.29 323.132 1857.97 321.841 1856.29 321.638C1852.47 322.459 1848.64 323.272 1844.82 324.086C1842.98 324.532 1840 325.149 1838.18 325.454C1836.07 325.11 1833.95 324.766 1831.83 324.422C1830.21 324.062 1827.18 322.733 1826.46 322.506C1825.73 322.279 1823.73 322.037 1822.02 321.982C1819.06 321.927 1816.09 321.872 1813.13 321.825C1811.4 321.825 1807.83 322.193 1806.95 322.6C1806.05 323.006 1803.78 324.023 1801.88 324.852C1796.32 327.066 1790.77 329.279 1785.24 331.485C1783.35 332.251 1780.26 333.659 1778.36 334.621C1775.36 335.325 1772.36 336.037 1769.36 336.749C1767.52 337.281 1761.01 341.254 1759.27 342.482C1757.52 343.71 1754.53 345.618 1752.64 346.729C1749.07 348.418 1745.51 350.116 1741.95 351.805C1740.11 352.501 1737.09 353.487 1735.28 353.995C1730.95 356.154 1726.62 358.313 1722.3 360.471C1720.42 361.559 1717.34 363.545 1715.46 364.898C1713.06 366.345 1710.65 367.784 1708.25 369.231C1706.39 370.1 1703.35 371.547 1701.51 372.446C1695.37 374.566 1689.24 376.685 1683.12 378.805C1681.29 379.501 1678.2 380.471 1677.55 380.807C1676.91 381.136 1674.88 382.145 1673.04 383.052C1667.96 386.181 1662.89 389.309 1657.84 392.438C1655.99 393.58 1650.08 397.545 1648.41 398.249C1646.74 398.945 1643.89 400.111 1642.09 400.838C1636.72 403.364 1631.36 405.883 1626.02 408.401C1624.2 409.317 1621.24 410.662 1619.45 411.389C1611.36 414.698 1603.29 417.998 1595.25 421.307C1593.49 421.831 1590.98 421.276 1589.68 420.071C1583.18 414.213 1576.64 408.354 1570.05 402.496C1568.87 400.994 1564.67 399.008 1563.39 398.671C1562.13 398.335 1559.82 397.584 1558.28 396.998C1556.57 396.474 1554.88 395.95 1553.18 395.418C1551.49 395.402 1548.73 395.386 1547.04 395.386C1542.35 395.386 1537.67 395.386 1532.99 395.386C1531.3 395.386 1526.42 395.042 1525.16 394.628C1523.9 394.221 1521.58 393.431 1520.02 392.884C1518.91 392.242 1517.81 391.601 1516.71 390.959C1515.06 390.78 1510.78 387.94 1509.55 386.83C1508.31 385.719 1506.05 384.241 1504.53 383.545C1503.5 383.005 1502.48 382.473 1501.46 381.941C1499.89 381.37 1497.14 381.503 1495.36 382.239C1492.37 383.482 1489.37 384.718 1486.39 385.954C1484.61 386.689 1481.71 387.745 1479.94 388.292C1476.97 388.84 1474 389.387 1471.03 389.935C1469.25 390.827 1466.35 392.195 1464.58 392.985C1461.45 393.564 1458.33 394.151 1455.22 394.729C1453.47 395.238 1450.58 396.442 1448.81 397.412C1442.22 401.026 1435.64 404.639 1429.09 408.253C1427.33 409.223 1424.49 410.2 1422.78 410.427C1422.78 410.427 1420.81 410.967 1419.23 411.28C1417.64 411.593 1414.91 412.484 1413.16 413.251C1412 413.697 1410.85 414.135 1409.7 414.573C1407.95 415.425 1405.1 416.864 1403.34 417.764C1399.32 419.062 1395.29 420.353 1391.27 421.651C1389.54 422.206 1386.09 423.035 1385.27 423.458C1384.47 423.872 1380.1 426.023 1378.74 426.133C1377.39 426.234 1373.7 426.852 1372.71 427.204C1371.72 427.556 1369.5 428.464 1367.77 429.207C1361.23 432.296 1354.7 435.393 1348.19 438.483C1346.48 439.257 1343.66 440.696 1341.95 441.666C1341.95 441.658 1334.39 445.945 1329.07 445.788C1320.05 445.522 1304.96 445.475 1304.96 445.475C1303.29 445.467 1298.98 445.108 1297.89 444.74C1296.8 444.365 1294.65 443.52 1293.1 442.855C1293.1 442.855 1290.75 441.862 1287.97 441.651C1285.91 441.486 1284.84 441.181 1284.84 441.181C1283.24 440.72 1280.64 439.875 1279.06 439.304C1277.68 438.858 1276.28 438.42 1274.89 437.982C1273.23 437.951 1270.5 437.928 1268.84 437.92C1262.13 437.912 1255.41 437.912 1248.7 437.904C1247.03 437.904 1244.3 437.849 1242.65 437.771C1240.46 438.397 1238.28 439.03 1236.1 439.656C1234.4 440.204 1230.56 441.791 1229.57 441.744C1228.57 441.69 1226.4 441.666 1224.73 441.674C1222.9 441.752 1221.08 441.823 1219.26 441.893C1217.59 441.916 1214.88 441.705 1213.25 441.432C1211.06 441.924 1208.88 442.425 1206.7 442.925C1205.02 443.16 1202.27 443.528 1200.59 443.739C1198.43 444.998 1196.27 446.265 1194.12 447.532C1192.44 447.962 1189.69 448.932 1188.02 449.691C1183.41 450.708 1178.82 451.732 1174.23 452.749C1172.55 453.07 1169.88 452.874 1168.28 452.319C1164.89 451.24 1161.51 450.16 1158.12 449.081C1156.55 448.369 1153.98 447.165 1152.42 446.39C1149.45 444.857 1146.48 443.324 1143.5 441.791C1141.97 440.837 1139.45 439.375 1137.88 438.538C1135.53 437.497 1133.16 436.457 1130.8 435.409C1129.2 434.822 1126.51 434.353 1124.85 434.369C1122.8 433.461 1120.76 432.546 1118.71 431.631C1117.09 431.131 1114.44 430.192 1112.84 429.551C1111.07 429.144 1109.31 428.729 1107.54 428.323C1105.96 427.525 1103.35 426.336 1101.75 425.679C1099.05 424.42 1096.34 423.168 1093.63 421.909C1092.08 420.955 1089.57 419.234 1088.05 418.084C1086.99 417.631 1085.92 417.177 1084.86 416.723C1083.27 415.887 1080.67 414.533 1079.08 413.72C1072.9 411.647 1066.71 409.567 1060.5 407.486C1058.89 406.735 1056.24 405.625 1054.6 405.023C1052.15 404.24 1049.69 403.458 1047.23 402.676C1045.54 402.778 1042.78 402.864 1041.09 402.872C1036.07 402.934 1031.04 402.997 1026.01 403.067C1024.32 403.091 1021.56 403.098 1019.88 403.075C1019.88 403.075 1018.59 403.052 1016.64 404.358C1013.16 406.696 1009.69 406.61 1006.17 406.853C1003.35 407.048 1000.81 407.525 1000.81 407.525C999.126 407.838 996.388 408.527 994.721 409.051C992.429 409.567 990.145 410.083 987.861 410.599C986.179 410.505 983.542 409.418 982.001 408.19C971.432 399.571 960.77 390.944 950.021 382.317C948.496 380.893 945.859 379.704 944.162 379.673C942.761 379.704 941.369 379.736 939.976 379.767C938.279 379.775 934.344 380.158 933.389 380.494C932.427 380.838 930.284 381.589 928.617 382.176C927.162 382.653 925.707 383.138 924.252 383.623C922.555 383.615 919.77 383.584 918.072 383.56C916.578 383.599 915.076 383.639 913.582 383.678C911.884 383.678 907.433 384.037 906.283 384.35C905.133 384.655 902.841 385.367 901.175 385.93C899.375 386.478 897.576 387.017 895.777 387.565C894.079 387.549 891.302 387.534 889.604 387.542C886.686 387.518 883.768 387.495 880.85 387.479C879.153 387.448 875.21 387.158 874.248 386.9C873.278 386.642 871.111 385.962 869.429 385.391C867.606 384.812 865.784 384.225 863.961 383.646C862.263 383.678 856.443 383.553 854.941 383.482C853.439 383.404 850.857 382.551 849.207 381.582C844.896 379.047 840.57 376.513 836.236 373.979C834.578 373.009 828.1 371.828 826.481 371.703C824.87 371.578 822.186 370.686 820.52 369.724C816.835 367.589 813.143 365.454 809.451 363.318C807.776 362.348 804.999 361.34 803.286 361.066C801.761 360.565 800.235 360.065 798.718 359.572C796.996 359.095 794.196 358.219 792.483 357.609C791.348 357.319 790.206 357.022 789.072 356.725C787.351 356.576 781.499 356.467 779.997 356.467C778.503 356.459 775.906 355.622 774.224 354.59C769.968 352.126 765.705 349.662 761.425 347.198C759.775 345.908 754.487 346.267 753.102 346.768C751.709 347.269 749.253 346.471 747.626 345C741.571 339.783 735.492 334.559 729.383 329.334C727.795 327.645 722.037 325.47 720.621 325.228C719.205 324.977 714.605 321.403 713.314 320.136C712.024 318.877 709.012 316.053 708.253 315.42C707.494 314.794 705.491 313.269 703.794 312.041C701.768 310.57 699.742 309.092 697.708 307.622C696.002 306.409 693.405 303.664 691.934 301.529C690.777 299.847 689.619 298.158 688.453 296.476C686.982 294.341 684.346 291.791 682.594 290.805C682.594 290.805 675.835 287.004 671.258 280.982C668.755 277.689 665.892 276.57 665.892 276.57C664.108 275.874 658.914 274.083 657.49 273.332C656.066 272.589 650.997 270.548 649.377 269.992C647.766 269.429 645.098 267.544 643.455 265.792C634.569 257.337 625.611 248.882 616.599 240.427C614.839 239.097 611.17 239.997 610.349 240.756C609.52 241.514 607.728 243.446 606.359 245.05C606.359 245.05 600.961 251.377 596.236 253.927C594.226 255.006 593.271 255.656 593.271 255.656C591.715 256.704 589.681 259.472 588.742 261.811C586.99 263.868 585.245 265.933 583.501 267.99C582.343 269.961 579.996 271.83 578.275 272.143C573.589 273.254 568.903 274.365 564.225 275.475C562.652 276.39 560.282 278.455 558.968 280.074C556.425 282.28 553.883 284.486 551.348 286.699C549.713 287.364 545.786 291.353 544.933 292.487C544.081 293.621 541.961 294.544 540.208 294.552C536.422 294.544 532.644 294.544 528.857 294.544C527.105 294.536 524.25 294.528 522.497 294.521C521.3 294.122 520.111 293.723 518.914 293.324C517.115 292.698 513.008 290.977 511.968 290.946C510.927 290.923 508.643 290.891 506.898 290.884C504.982 290.884 503.073 290.884 501.164 290.884C499.427 290.938 495.383 291.173 494.413 291.353C493.443 291.533 491.284 292.057 489.625 292.526C486.066 293.347 482.506 294.176 478.955 295.005C477.195 294.927 472.133 295.334 470.842 295.85C469.559 296.374 467.181 297.305 465.562 297.915C462.824 299.018 460.102 300.129 457.371 301.231C455.752 301.81 453.069 302.671 451.418 303.132C448.336 304.29 445.261 305.439 442.187 306.597C440.552 307.113 437.923 308.106 436.343 308.818C433.253 311.063 430.179 313.308 427.104 315.552C425.673 316.694 423.428 318.775 422.113 320.191C419.532 322.999 416.966 325.814 414.408 328.63C413.047 329.928 410.692 333.808 410.379 334.527C410.066 335.247 408.978 337.445 407.961 339.416C406.248 341.856 404.535 344.296 402.83 346.729C401.484 348.02 399.262 350.061 397.886 351.273C396.415 352.556 394.936 353.847 393.466 355.129C392.167 356.506 390.039 358.751 388.741 360.119C387.254 361.668 385.768 363.224 384.289 364.773C383.006 366.173 377.225 367.917 375.59 367.37C373.955 366.822 371.139 365.602 369.332 364.656C365.882 363.005 362.432 361.363 358.974 359.713C357.175 359.024 354.218 357.796 352.403 356.991C349.141 355.207 345.879 353.424 342.609 351.641C340.786 350.452 335.474 348.794 334.254 348.567C333.041 348.348 330.546 347.284 328.715 346.213C328.715 346.213 322.692 342.677 318.436 337.273C314.509 332.298 309.58 327.817 309.58 327.817C307.757 326.166 304.793 323.397 302.978 321.669C301.46 320.019 299.935 318.36 298.417 316.71C296.633 314.778 293.653 312.166 291.791 310.914C289.436 309.327 287.074 307.747 284.719 306.159C282.849 304.907 279.806 302.608 277.952 301.059C274.44 298.15 270.919 295.248 267.383 292.338C265.545 290.602 262.533 287.7 260.695 285.901C256.212 280.958 251.706 276.015 247.192 271.072C245.416 268.921 242.514 265.362 240.746 263.156C239.416 261.451 238.078 259.746 236.741 258.033C234.949 255.898 231.938 253.52 230.044 252.738C228.621 252.12 227.197 251.502 225.773 250.884C223.88 250.079 220.821 249.117 218.975 248.741C217.833 248.788 216.691 248.835 215.556 248.882C213.953 249.477 211.426 250.736 209.955 251.674C207.499 254.334 205.058 256.985 202.617 259.637C201.475 261.248 196.742 261.318 195.248 260.849C193.762 260.372 188.254 259.512 186.729 259.558C185.211 259.598 182.403 258.354 180.478 256.79C178.562 255.225 176.637 253.661 174.705 252.097C172.788 250.532 166.686 248.444 165.435 248.217C164.183 247.998 161.578 246.739 159.63 245.433C158.066 244.572 156.493 243.712 154.925 242.852C152.985 241.702 149.833 239.262 147.921 237.416C146.229 236.548 144.536 235.672 142.841 234.803C140.925 232.965 138.228 231.08 137.807 231.002C137.386 230.916 134.195 233.364 133.46 234.897C132.724 236.422 131.53 239.481 130.809 241.686C130.809 241.686 128.853 247.662 127.038 252.394C126.407 254.044 126.407 254.044 126.407 254.044C125.261 255.1 121.646 254.944 120.759 254.6C119.871 254.263 116.063 257.853 114.941 259.269C113.817 260.685 109.642 261.052 108.65 260.81C107.658 260.575 103.908 261.936 102.875 262.468C101.84 263 98.0714 264.259 96.9112 264.423C95.7472 264.58 91.5682 269.421 90.4995 270.994C89.4278 272.566 87.3493 274.529 85.8793 275.366C83.908 276.484 81.9389 277.603 79.9714 278.721C78.5046 279.558 76.4628 281.615 75.4349 283.289C68.6633 291.439 61.9623 299.589 55.3308 307.739C53.9891 308.795 49.0442 310.156 47.6658 310.336C46.2858 310.508 44.2487 311.876 43.141 313.362C38.8759 316.976 34.6296 320.59 30.4005 324.203C29.1841 325.47 27.0344 327.207 25.6215 328.059C20.8214 329.639 16.029 331.211 11.2445 332.791C9.72139 333.37 6.14944 337.328 5.4133 338.438C4.6756 339.541 0.272072 341.254 -0.877901 341.496C-2.02866 341.739 -3.9038 343.045 -5.0436 344.406C-6.5104 346.15 -7.97408 347.902 -9.43384 349.646C-10.5682 351.007 -12.4683 352.446 -12.6451 352.501C-12.8219 352.556 -14.417 352.446 -16.1897 352.251C-20.1818 353.291 -24.1691 354.331 -28.1518 355.38C-29.743 355.731 -32.2706 356.678 -32.9238 356.592C-33.577 356.506 -38.1988 356.67 -39.7509 356.748C-41.3029 356.827 -43.9698 357.116 -44.4078 357.28C-44.8459 357.444 -46.1813 358.571 -47.372 359.791C-48.2434 360.675 -49.1142 361.566 -49.9841 362.45C-51.1724 363.67 -53.7101 363.991 -55.6283 363.178C-59.6994 362.528 -63.772 361.879 -67.8477 361.23C-69.6095 361.066 -72.0573 361.856 -73.2855 362.974C-75.1606 364.022 -77.0334 365.07 -78.9039 366.111C-80.2612 366.979 -82.5541 368.222 -83.9998 368.887C-86.3865 370.162 -88.7702 371.437 -91.1499 372.712C-92.4274 373.713 -94.4684 375.449 -95.6849 376.56C-98.577 379.024 -101.461 381.48 -104.336 383.936C-105.553 385.039 -107.545 386.822 -108.763 387.909C-110.051 389.121 -111.338 390.334 -112.622 391.538C-113.772 392.751 -115.485 394.393 -115.863 394.573C-116.241 394.753 -119.744 395.246 -120.991 395.379C-122.239 395.512 -124.299 396.419 -125.567 397.389C-128.076 399.25 -130.579 401.12 -133.075 402.989C-134.347 403.943 -136.518 405.312 -137.898 406.047C-138.708 406.712 -139.517 407.377 -140.325 408.042C-141.652 408.878 -143.588 410.662 -144.624 412.015C-145.563 413.126 -146.501 414.236 -147.437 415.339C-148.407 416.802 -150.749 419.946 -151.338 420.619C-151.929 421.299 -153.615 422.261 -155.085 422.769C-158.029 424.318 -160.967 425.875 -163.901 427.423C-165.071 428.518 -166.899 430.45 -167.961 431.725C-169.232 432.867 -170.502 434.009 -171.769 435.159C-172.95 436.215 -174.845 438.014 -175.981 439.14C-181.463 444.576 -186.904 450.004 -192.304 455.44C-193.313 456.762 -195.021 458.811 -196.099 460.008C-200.668 464.262 -205.21 468.517 -209.727 472.772C-210.886 473.805 -212.88 475.306 -214.156 476.12C-220.106 479.733 -226.028 483.355 -231.923 486.968C-233.222 487.719 -237.02 489.901 -238.043 490.519C-239.068 491.145 -243.326 492.873 -244.523 493.523C-245.72 494.164 -247.823 495.165 -249.195 495.752C-251.343 497.097 -253.488 498.45 -255.629 499.795C-256.968 500.437 -259.279 501.235 -260.765 501.571C-262.849 503.034 -264.927 504.496 -267.003 505.959C-268.395 506.483 -270.701 507.281 -272.124 507.734C-273.625 508.297 -275.124 508.868 -276.622 509.432C-277.832 510.292 -279.979 511.371 -281.394 511.841C-281.394 511.841 -287.664 513.898 -291.751 515.931C-294.489 517.292 -297.614 518.692 -297.614 518.692C-298.953 519.287 -301.061 520.429 -302.297 521.211C-303.853 521.625 -305.407 522.048 -306.961 522.462C-308.376 522.908 -310.867 523.51 -311.27 523.831C-311.674 524.159 -313.221 524.66 -314.705 524.957C-314.705 524.957 -318.291 525.669 -320.281 528.195C-322.585 531.121 -326.906 531.379 -326.906 531.379C-328.481 531.473 -329.996 531.895 -330 532.176C-330.004 532.45 -328.826 533.404 -328.384 533.663Z" fill="#21262C"/>
<path d="M1170.09 342.917C1170.49 341.324 1170.9 339.731 1171.3 338.139C1170.36 339.595 1170.09 341.222 1170.09 342.917ZM1203.09 404.169C1202.31 402.556 1201.28 402.454 1199.78 403.071C1200.96 403.465 1201.92 403.781 1203.09 404.169ZM1163.38 392.047C1162.65 392.961 1162.63 393.927 1163.1 394.928C1163.21 395.152 1163.58 395.226 1163.64 394.981C1163.89 394.009 1164.39 392.987 1163.38 392.047ZM1214.61 313.719C1213.84 311.55 1212.84 310.669 1211.53 310.789C1212.48 311.688 1213.38 312.544 1214.61 313.719ZM1190.47 318.655C1189.29 316.221 1187.69 314.276 1184.88 313.687C1187.12 314.918 1188.88 316.683 1190.47 318.655ZM1210.04 321.673C1211.65 323.144 1212.7 325.091 1214.08 326.77C1213.77 324.263 1212.16 322.772 1210.04 321.673ZM1196.89 391.675C1196.54 389.257 1195.93 388.855 1192.59 388.907C1194.11 389.882 1195.48 390.766 1196.89 391.675ZM1168.93 376.364C1170.59 375.276 1171.79 374.247 1173 372.882C1170.3 373.056 1169.8 373.465 1168.93 376.364ZM1194.92 379.541C1194.86 377.505 1194.8 375.47 1194.74 373.374C1193.04 375.525 1193.8 377.538 1194.92 379.541ZM1170.42 377.777C1168.88 378.232 1168.19 379.362 1167.27 380.17C1167.08 380.335 1167.06 380.884 1167.39 380.854C1168.91 380.712 1168.06 381.636 1167.94 382.096C1167.56 383.528 1167.18 384.956 1167.01 386.617C1168.88 383.881 1168.35 380.487 1170.42 377.777ZM1175.36 363.699C1174.35 363.701 1173.5 363.758 1173.17 364.352C1172.14 366.198 1171.26 368.134 1170.32 370.034C1170.46 370.114 1170.59 370.195 1170.72 370.274C1172.61 368.421 1173.9 366.12 1175.36 363.699ZM1168.24 326.072C1167.51 327.479 1167.37 328.948 1167.61 330.448C1167.67 330.819 1167.63 331.368 1168.12 331.466C1168.62 331.567 1168.79 331.049 1168.94 330.71C1169.5 329.437 1170.02 328.148 1170.5 326.845C1170.7 326.313 1171.3 325.536 1170.37 325.26C1169.58 325.022 1169.37 325.902 1169.22 326.498C1168.88 327.883 1168.61 329.287 1168.32 330.682C1168.24 330.674 1168.17 330.665 1168.09 330.655C1168.14 329.127 1168.19 327.599 1168.24 326.072ZM1185.68 344.046C1184.49 345.732 1183.37 347.489 1182.07 349.085C1180.6 350.875 1179.57 353.209 1176.88 353.504C1177.34 354.298 1177.73 354.981 1178.12 355.644C1181.2 352.076 1184.13 348.522 1185.68 344.046ZM1134.03 336.844C1134.2 338.534 1134.27 340.053 1134.53 341.539C1134.9 343.658 1134.62 345.972 1136.41 347.703C1136.84 348.111 1136.9 349.151 1136.38 349.482C1135.05 350.334 1135.48 351.433 1135.63 352.562C1136.35 357.818 1137.19 363.064 1137.73 368.34C1138.27 373.59 1140.08 378.648 1139.99 383.981C1139.99 384.038 1140 384.096 1140.01 384.155C1141.24 392.793 1142.51 401.427 1143.7 410.07C1144.66 417.046 1145.53 424.035 1146.45 431.017C1146.5 431.381 1146.41 432.104 1146.98 431.824C1148.24 431.2 1150.28 430.884 1150.44 429.56C1150.72 427.325 1153.4 426.655 1153.08 424.296C1153.79 425.493 1152.25 426.548 1153.17 427.666C1153.81 426.876 1153.12 425.624 1154.37 424.925C1154.95 424.604 1153.14 423.218 1154.6 422.474C1153.14 419.961 1155.14 418.542 1156.48 417.075C1157.48 415.981 1158.35 414.94 1158.43 413.169C1159.68 415.984 1156.86 416.677 1156.2 418.382C1159.99 416.338 1159.85 411.998 1161.98 408.991C1160.64 409.213 1160.07 410.283 1158.87 411.38C1160.14 408.405 1158.7 405.524 1160.34 403.102C1160.45 404.132 1159.52 405.227 1160.23 406.409C1160.94 405.391 1162.54 397.433 1162.22 396.781C1161.98 397.422 1161.73 398.064 1161.49 398.705C1161.68 396.295 1161.6 393.791 1162.88 391.738C1163.74 390.359 1164.33 388.989 1164.65 387.431C1165.33 384.139 1166.19 380.93 1167.7 377.86C1168.47 376.299 1169.58 374.414 1168.3 372.455C1168.12 372.166 1168.31 371.865 1168.5 371.659C1169.35 370.716 1169.38 369.5 1169.53 368.368C1169.72 366.878 1170.04 365.504 1171.16 364.424C1171.42 364.18 1171.62 363.941 1171.43 363.518C1170.52 361.469 1169.71 359.363 1168.33 357.546C1167.5 359.42 1168.27 361.308 1168.26 363.433C1167.57 362.668 1165.86 363.699 1166.07 361.892C1166.31 359.798 1165.98 357.702 1166.24 355.622C1166.42 354.119 1166.79 352.709 1168.79 352.861C1169.38 352.905 1169.32 352.44 1169.51 352.086C1170.14 350.879 1169.32 349.846 1169.19 348.74C1168.83 345.493 1168.82 342.196 1167.89 339.027C1167.78 338.667 1168 338.052 1167.45 338.018C1166.84 337.978 1166.82 338.581 1166.76 339.039C1166.63 339.987 1165.96 340.44 1165.16 340.712C1164.48 340.941 1163.83 341.138 1163.56 341.907C1163.37 342.427 1162.9 342.612 1162.42 342.533C1161.11 342.315 1160.42 343.14 1159.62 343.941C1158.26 345.292 1156.89 346.083 1154.65 345.49C1153.27 345.126 1151.68 344.585 1150.15 344.819C1148.82 345.021 1147.55 345.42 1147.21 343.49C1147.13 343.038 1146.59 342.991 1146.24 342.803C1143.37 341.237 1140.49 339.688 1137.61 338.145C1136.53 337.572 1135.48 336.94 1134.03 336.844ZM1212.79 306.962C1213.59 308.067 1214.32 308.955 1214.27 310.671C1214.22 312.271 1215.22 314.039 1215.31 315.838C1214.58 314.963 1213.98 313.904 1212.36 313.84C1213.18 314.602 1213.79 315.195 1214.44 315.76C1214.68 315.979 1214.97 316.532 1215.3 315.816C1217.14 317.436 1215.82 319.319 1215.65 321.058C1215.39 323.766 1215.69 326.49 1215.28 329.199C1215.18 329.846 1215.63 330.711 1216.08 331.282C1217.28 332.817 1217.18 334.474 1217.01 336.264C1216.77 338.71 1217.47 341.115 1217.63 343.558C1217.96 348.75 1218.02 353.943 1218.07 359.138C1218.1 362.055 1218.04 364.973 1218.01 367.889C1218.01 368.436 1218.25 369.19 1217.31 369.176C1216.28 369.161 1216.79 368.331 1216.75 367.86C1216.03 359.996 1216.83 352.111 1216.44 344.242C1216.43 343.96 1216.4 343.68 1216.35 342.945C1215.77 344.529 1215.86 345.757 1215.83 346.925C1215.69 351.31 1214.43 355.57 1214.37 359.941C1214.31 364.087 1214.56 368.235 1214.61 372.381C1214.61 372.947 1215.27 373.996 1214.09 374.053C1212.76 374.117 1213.41 372.933 1213.39 372.351C1213.3 369.432 1213.32 366.509 1213.3 363.587C1213.3 362.716 1213.33 361.843 1212.81 360.589C1212.96 364.858 1210.93 367.039 1207.3 367.852C1206.33 368.07 1206.53 368.749 1206.57 369.347C1206.76 372.142 1207 374.932 1207.18 377.727C1207.23 378.414 1207.6 379.287 1206.33 379.407C1205.05 379.528 1205.25 378.634 1205.21 377.93C1205.04 375.13 1204.87 372.331 1204.79 369.528C1204.76 368.653 1204.58 368.328 1203.62 368.353C1201.76 368.402 1199.88 368.326 1198.02 368.234C1197 368.185 1196.57 368.462 1196.54 369.578C1196.38 375.713 1196.94 381.844 1196.61 387.979C1196.57 388.759 1196.88 389.46 1197.25 390.134C1197.5 390.595 1197.91 391.128 1197.66 391.602C1196.67 393.531 1197.83 394.774 1198.95 396.059C1197.72 396.115 1197.07 395.736 1197.09 394.299C1197.1 393.444 1196.79 392.135 1195.12 393.349C1196.53 393.605 1196.75 394.404 1196.54 395.522C1196.28 396.895 1196.99 398.216 1196.67 399.768C1197.49 399.077 1198.09 398.547 1198.72 398.042C1199.37 397.513 1199.49 396.921 1198.99 396.228C1199.79 396.499 1200.56 396.743 1199.97 397.88C1199.67 398.462 1199.91 398.947 1200.52 399.273C1201.2 399.635 1201.57 400.288 1201.91 400.952C1201.31 400.5 1200.7 400.049 1200.09 399.597C1200.57 400.566 1200.7 401.679 1201.69 402.224C1202.09 402.441 1202.42 402.658 1202.55 401.988C1205.21 405.681 1207.16 409.752 1208.88 413.934C1210 416.658 1211.91 419.053 1212.29 422.085C1212.31 422.198 1212.29 422.316 1212.28 422.425C1211.41 420.32 1210.29 418.417 1208.2 417.171C1207.52 419.031 1208.91 419.813 1210.04 420.608C1210.71 421.084 1211.36 421.378 1211.46 422.362C1211.58 423.602 1212 422.198 1212.28 422.393C1212.59 422.548 1212.88 422.814 1213.19 422.838C1215.08 422.985 1215.71 424.018 1215.48 425.801C1215.43 426.237 1215.49 426.798 1215.73 427.143C1217.12 429.157 1217.35 431.685 1218.66 433.713C1219.71 435.331 1220.13 437.198 1220.92 438.915C1221.47 440.115 1220.78 441.044 1219.77 441.512C1217.46 442.59 1215.17 443.903 1212.43 443.334C1211.72 443.186 1211.32 443.703 1211.01 444.17C1209.28 446.81 1206.71 446.949 1203.87 446.927C1201.41 446.906 1199.11 446.507 1196.84 445.651C1194.91 444.924 1194.13 441.953 1195.46 440.363C1196.03 439.679 1196.15 440.753 1196.67 440.586C1197.72 440.252 1198.83 440.126 1199.91 439.878C1200.32 439.784 1201.02 439.897 1200.94 439.231C1200.86 438.622 1200.15 438.986 1199.79 438.834C1202.12 437.362 1204.73 435.692 1204.43 432.752C1204.26 431.043 1203.07 429.29 1202.79 427.335C1202.72 426.838 1201.7 426.181 1201.81 425.213C1201.88 424.615 1201.48 424.24 1201.07 423.893C1197.04 420.435 1194.57 415.987 1193.05 410.979C1192.76 410.009 1192.42 409.502 1191.32 409.453C1189.78 409.383 1189.06 408.114 1188.37 406.961C1186.01 402.982 1184.21 398.723 1182.27 394.535C1181.74 393.382 1181.19 392.237 1180.48 390.721C1179.16 393.54 1177.64 395.87 1176.69 398.494C1176.36 399.403 1175.98 400.102 1174.35 399.401C1176.14 401.984 1175.22 403.935 1174.28 406.023C1172.98 408.897 1172.94 412.172 1171.67 415.087C1170.47 417.865 1169.66 420.813 1168.02 423.413C1167.42 424.373 1166.92 425.273 1165.05 424.575C1167.04 427.055 1166.05 429.016 1164.68 430.574C1163.57 431.854 1163.97 433.892 1162.27 434.738C1162.49 437.079 1160.62 438.848 1160.54 441.124C1160.51 441.989 1160.3 442.866 1160.05 443.699C1159.46 445.626 1158.52 446.365 1156.58 445.99C1154.8 445.649 1152.84 445.695 1151.36 444.324C1150.91 443.906 1150.27 443.64 1149.74 443.951C1148.31 444.791 1146.76 444.975 1145.33 444.384C1144.04 443.853 1142.67 443.831 1141.35 443.227C1140.11 442.657 1139.04 441.728 1137.74 441.202C1136.3 440.622 1134.73 439.391 1134.09 437.588C1133.63 436.31 1134.31 435.307 1134.86 434.316C1135.87 432.526 1137.05 432.113 1138.87 433.289C1139.58 433.749 1139.65 433.853 1140.06 433.203C1140.14 433.075 1140.63 433.014 1140.71 433.107C1141.7 434.348 1142.42 433.038 1143.27 432.876C1145.63 432.422 1145.67 432.337 1145.35 430.102C1143.67 418.434 1142 406.764 1140.34 395.095C1139.84 391.629 1139.46 388.143 1138.84 384.7C1136.92 374.066 1135.73 363.324 1134.02 352.66C1133.75 350.992 1133.87 349.128 1133.14 347.693C1131.48 344.406 1132.05 340.924 1131.67 337.528C1131.64 337.257 1131.65 336.929 1131 336.805C1130.97 337.672 1130.89 338.506 1130.92 339.336C1131.07 342.9 1130.9 346.569 1130.35 349.963C1128.8 359.513 1129.03 369.138 1128.2 378.705C1128.11 379.748 1128.02 380.799 1128.55 381.787C1128.75 382.152 1128.87 382.665 1128.54 382.94C1127.39 383.886 1127.75 385.196 1127.68 386.359C1126.66 403.872 1125.69 421.388 1124.69 438.903C1124.63 440.012 1124.49 441.044 1125.59 441.887C1126.32 442.446 1126.1 443.13 1125.1 443.317C1124.4 443.446 1123.69 443.447 1123.01 443.242C1122 442.94 1121.75 442.204 1122.58 441.621C1123.58 440.919 1123.61 440.02 1123.66 439.027C1123.96 432.133 1124.22 425.236 1124.58 418.345C1125.16 407.368 1125.82 396.394 1126.43 385.419C1126.48 384.573 1126.71 383.714 1126.08 382.901C1125.86 382.611 1125.85 381.856 1126.07 381.565C1127.17 380.119 1126.79 378.444 1126.88 376.868C1127.34 368.87 1127.97 360.869 1128.04 352.865C1128.08 347.637 1128.63 342.444 1128.61 337.224C1128.6 336.387 1128.65 335.64 1127.62 335.268C1127.07 335.071 1126.87 334.422 1126.91 333.782C1126.96 332.834 1127.79 333.55 1128.14 333.161C1127.56 332.825 1126.89 332.425 1126.94 331.698C1127.01 330.907 1127.89 331.617 1128.24 331.183C1128.42 330.225 1126.66 330.355 1127.12 329.353C1127.48 328.557 1128.32 329.232 1129.21 329.139C1128.8 328.792 1128.61 328.594 1128.39 328.456C1128.09 328.274 1127.68 328.157 1127.75 327.736C1127.83 327.3 1128.17 327.023 1128.64 327.039C1129.42 327.066 1129.65 326.691 1129.57 325.957C1129.5 325.424 1129.01 324.598 1129.78 324.435C1130.63 324.258 1131.61 324.155 1132.44 324.77C1134.39 326.209 1136.06 327.798 1136.29 330.425C1136.37 331.423 1137.04 332.069 1137.97 332.461C1141.19 333.818 1144.48 334.991 1147.87 335.845C1148.38 335.975 1149.15 336.436 1148.65 335.196C1148.58 335.015 1149.55 334.173 1149.61 334.217C1150.27 334.705 1151.3 334.193 1151.79 335.009C1151.97 335.307 1152.1 335.636 1152.62 335.81C1152.27 333.975 1153.49 334.241 1154.34 334.668C1155.16 335.08 1155.37 334.567 1155.92 334.301C1157.2 333.683 1157.65 331.867 1159.39 331.964C1159.85 331.991 1160.07 331.581 1160.3 331.239C1162.17 328.485 1164.76 326.18 1165.45 322.588C1166.18 323.288 1165.39 323.741 1165.7 324.34C1166.68 322.799 1167.49 321.211 1168.59 319.854C1169.75 318.425 1170.45 316.747 1171.46 315.252C1172.45 313.792 1170.96 312.784 1170.72 311.546C1170.53 310.597 1169.67 310.808 1168.98 310.845C1168.23 310.883 1167.48 311.026 1166.72 310.829C1165.96 310.634 1165.64 310.122 1165.69 309.423C1165.83 307.4 1165.86 305.423 1164.53 303.693C1164.28 303.374 1164.52 303.048 1164.77 302.762C1165.14 302.32 1165.52 301.868 1165.83 301.377C1166.91 299.66 1166.85 299.568 1165.06 298.913C1163.04 298.174 1161.47 296.959 1161 294.701C1160.75 293.473 1161.19 292.843 1162.47 293.081C1163.9 293.348 1165.32 293.703 1166.74 294.046C1167.51 294.233 1168.04 294.151 1168.73 293.515C1170.16 292.189 1171.82 291.109 1173.4 289.946C1174.46 289.164 1175.56 289.833 1176.61 289.979C1179.64 290.397 1181.86 292.034 1183.43 294.654C1185.28 297.748 1185.11 300.745 1183.2 303.724C1182.54 304.754 1181.73 305.703 1181.36 306.896C1180.88 308.411 1181.41 309.07 1182.94 308.863C1186.18 308.426 1189.35 308.789 1192.49 309.583C1193.36 309.804 1194.07 310.308 1194.79 310.867C1194.44 309.384 1194.44 309.384 1188.53 307.989C1188.59 307.902 1188.67 307.732 1188.69 307.74C1191.35 308.509 1193.3 307.708 1194.87 305.393C1195.52 304.426 1196.82 303.983 1198.09 303.797C1196.73 304.594 1195.45 305.457 1194.2 307.065C1195.66 306.376 1196.71 305.878 1197.75 305.382C1198.31 305.823 1197.42 306.236 1197.92 306.742C1199.2 304.849 1201.15 303.94 1203.28 303.329C1202.97 302.81 1202.45 303.239 1202.09 302.847C1204.53 302.955 1206.92 302.947 1209.21 303.666C1210.78 304.16 1212.27 304.853 1212.81 306.643C1211.02 305.342 1209.35 303.771 1206.37 304.117C1209.02 304.7 1210.94 305.746 1212.79 306.962Z" fill="#21262C"/>
<path d="M1316.58 306.798C1315.57 305.339 1314.12 304.632 1312.36 304.455C1313.7 305.337 1315.18 305.999 1316.58 306.798ZM1317.31 312.539C1317.87 309.261 1317.29 308.316 1315.12 308.516C1316.3 309.454 1316.67 310.768 1317.31 312.539ZM1317.18 335.715C1317.34 332.608 1316.58 329.757 1314.88 327.171C1315.93 329.941 1316.38 332.877 1317.18 335.715ZM1281.99 308.194C1280.61 307.5 1281.24 305.778 1280.31 304.703C1279.86 307.64 1280.78 309.375 1282.96 309.883C1283.27 310.377 1283.68 310.681 1284.4 310.544C1283.88 307.912 1284.63 305.499 1285.59 303.107C1286.26 301.435 1287.01 299.772 1287 297.909C1286.99 297.437 1286.91 296.948 1286.43 296.861C1285.76 296.74 1285.9 297.387 1285.8 297.761C1285.3 299.71 1284.86 301.839 1283.21 303.043C1281.16 304.545 1281.13 306.179 1281.99 308.194ZM1314.16 417.604C1316.62 416.425 1317.88 417.692 1319.06 419.727C1319.94 421.244 1321.76 421.686 1323.31 422.294C1325.7 423.228 1328.14 423.997 1330.56 424.841C1332.03 425.354 1332.72 427.124 1331.85 428.856C1331.09 430.383 1330.54 432.068 1329.22 433.284C1328.99 433.495 1328.83 433.893 1328.59 433.948C1326.07 434.503 1326.1 436.372 1326.01 438.4C1325.82 442.822 1323.19 445.847 1319.8 448.321C1318.23 449.472 1316.77 448.653 1315.56 447.677C1314.07 446.476 1314.19 444.763 1314.91 443.211C1315.98 440.906 1316.66 438.629 1315.94 436.057C1315.77 435.431 1315.54 434.824 1315.16 434.427C1314.15 433.372 1313.55 432.069 1312.77 430.877C1312.03 429.745 1311.39 428.676 1309.96 428.096C1308.05 427.324 1308.18 426.116 1310.13 424.463C1310.17 424.557 1310.26 424.68 1310.23 424.732C1309.88 425.322 1308.94 425.689 1309.49 426.611C1309.69 426.947 1310.12 426.922 1310.24 426.602C1310.59 425.683 1311.56 424.868 1310.62 423.71C1308.73 421.371 1306.75 419.112 1304.56 417.053C1301.63 414.313 1298.7 411.58 1295.78 408.837C1294.04 407.196 1292.09 405.831 1289.97 404.747C1288.58 404.043 1287.77 402.973 1287.31 401.523C1285.4 395.431 1282.38 389.759 1280.5 383.651C1280.28 382.918 1279.25 382.524 1279.57 381.523C1279.59 381.471 1279.2 381.213 1279.18 381.233C1278.98 381.439 1278.74 381.656 1278.63 381.918C1277.51 384.627 1276.39 387.337 1275.31 390.063C1274.9 391.103 1274.59 392.181 1274.23 393.246C1273.27 396.156 1273.01 398.955 1274.27 401.972C1276.9 408.292 1277.36 415.023 1277.37 421.79C1277.37 422.161 1277.33 422.536 1277.37 422.904C1277.39 423.074 1277.53 423.233 1277.62 423.391C1278.31 423.331 1277.52 421.849 1278.58 422.331C1279.44 422.723 1280.56 423.102 1280.59 424.316C1280.63 425.685 1280.7 427.097 1280.42 428.422C1279.54 432.622 1280.69 436.661 1281.27 440.737C1281.45 442.021 1281.23 443.211 1281.08 444.426C1280.98 445.226 1280.38 445.679 1279.5 445.773C1276.5 446.1 1273.51 446.329 1270.95 444.247C1270.33 443.739 1269.8 444.019 1269.22 444.285C1264.79 446.321 1260.69 445.105 1256.77 442.868C1255.5 442.144 1254.97 440.871 1255.52 439.31C1256.08 437.714 1256.63 436.046 1258.77 436.422C1261.13 436.837 1263.2 435.922 1265.3 435.233C1267.2 434.609 1268.88 431.286 1268.62 429.096C1267.55 429.235 1267.74 430.53 1266.88 430.963C1266.77 429.79 1267.86 429.255 1268.14 428.351C1268.32 427.731 1269.19 427.073 1268.54 426.518C1268.09 426.134 1267.44 426.932 1266.85 427.129C1266.65 427.196 1266.47 427.325 1266.14 427.269C1267.15 426.217 1267.71 424.708 1269.15 424.17C1270.6 423.626 1271.02 422.824 1270.71 421.325C1269.51 415.442 1268.41 409.54 1267.24 403.653C1267.07 402.8 1266.87 401.886 1266.41 401.173C1264.54 398.239 1264.91 395.33 1265.7 392.087C1267.26 385.714 1268.33 379.222 1269.59 372.779C1269.66 372.432 1269.89 371.837 1269.49 371.77C1267.22 371.405 1268.77 369.862 1268.87 369.174C1269.21 366.783 1270.18 364.477 1270.47 362.084C1270.75 359.831 1270.98 357.404 1269.17 355.406C1268.41 356.168 1268.53 357.099 1268.41 357.933C1268.01 360.848 1267.68 363.771 1267.31 366.689C1267.21 367.403 1267.08 368.022 1266.06 367.927C1264.79 367.809 1265.34 366.968 1265.41 366.416C1266.13 361.274 1266.89 356.139 1267.63 351C1267.77 350.03 1267.88 349.121 1269.22 349.125C1269.69 349.127 1269.97 348.703 1270 348.212C1270.15 345.636 1270.09 343.104 1268.52 340.877C1268.39 340.888 1268.22 340.856 1268.18 340.916C1266.59 343.238 1264.68 343.842 1261.88 342.882C1258.73 341.806 1255.6 340.756 1252.64 339.229C1250.69 338.222 1248.65 337.437 1246.55 336.783C1245.69 336.513 1245.35 336.568 1245.24 337.556C1244.26 346.011 1243.25 354.462 1242.22 362.911C1241.48 368.941 1240.67 374.961 1239.93 380.991C1239.79 382.2 1239.37 383.454 1240.19 384.631C1240.33 384.83 1240.31 385.346 1240.15 385.51C1238.62 387.079 1238.95 389.134 1238.73 391C1236.87 406.287 1235.09 421.582 1233.26 436.872C1233.14 437.918 1233.09 438.854 1234.12 439.526C1234.49 439.766 1234.75 440.216 1234.51 440.67C1234.3 441.084 1233.83 441.199 1233.38 441.168C1232.82 441.126 1232.25 441.067 1231.7 440.991C1231.14 440.916 1230.48 440.861 1230.33 440.21C1230.18 439.554 1230.68 439.209 1231.24 438.987C1232.02 438.683 1232.11 437.983 1232.18 437.29C1234.04 420.681 1235.9 404.071 1237.75 387.459C1237.81 386.928 1237.94 386.427 1237.42 385.918C1236.95 385.454 1237.02 384.501 1237.45 384.197C1238.58 383.385 1238.37 382.225 1238.5 381.171C1239.02 376.82 1239.51 372.465 1239.96 368.106C1241.02 357.884 1242.04 347.659 1243.09 337.437C1243.19 336.47 1243.41 335.682 1241.95 335.474C1240.71 335.299 1240.67 333.966 1240.45 332.668C1239.38 334.681 1240.27 336.02 1241.26 337.382C1241.6 337.844 1242.67 338.27 1241.79 339.014C1241.08 339.618 1240.32 339.029 1239.81 338.515C1238.3 337.012 1237.9 335.135 1238.5 333.151C1239.05 331.314 1239.99 329.619 1240.92 327.933C1241.42 327.032 1242.16 327.276 1242.88 327.316C1243.8 327.366 1244.58 327.338 1244.21 326.046C1244.1 325.654 1243.84 325.031 1244.46 324.973C1245.18 324.906 1245.96 325.056 1246.66 325.289C1247.1 325.437 1247.17 325.94 1246.86 326.397C1246.17 327.402 1246.53 328.067 1247.5 328.678C1248.33 329.21 1248.6 330.191 1248.83 331.092C1249.23 332.696 1250.47 333.504 1251.82 333.792C1253.36 334.119 1254.81 334.751 1256.29 335.174C1257.73 335.589 1259.23 336.037 1260.7 336.461C1261.52 336.696 1262.43 336.943 1262.91 335.835C1263.55 336.364 1262.9 336.941 1263.38 337.403C1263.52 337.253 1263.71 337.123 1263.81 336.943C1266.48 332.059 1268.8 327.011 1271 321.907C1272.29 318.903 1273.21 315.73 1275.13 313.013C1271.36 315.967 1271.09 320.884 1268.62 324.707C1268.29 320.531 1270.02 317.169 1272.43 314.161C1273.45 312.884 1273.86 311.784 1273.26 310.284C1273.04 309.707 1272.95 309.074 1272.79 308.471C1271.93 305.258 1271.93 305.244 1268.64 304.932C1267.35 304.81 1267.1 304.209 1266.9 302.913C1266.69 301.582 1267.48 300.097 1266.26 298.832C1265.53 298.066 1266.76 297.611 1267.06 297.01C1267.54 296.079 1268.61 295.338 1266.53 294.776C1264.62 294.262 1263.57 292.57 1263.22 290.569C1263.06 289.664 1263.23 289.071 1264.34 289.277C1264.59 289.323 1264.85 289.291 1265.09 289.347C1267.71 289.959 1269.98 289.726 1272.46 288.165C1277.53 284.981 1284.96 287.902 1285.7 293.537C1285.75 293.964 1285.87 294.429 1286.46 294.439C1289.22 294.485 1289.98 296.481 1290.38 298.652C1291.09 302.478 1291.01 306.354 1290.87 310.225C1290.85 310.688 1290.6 311.163 1290.93 311.704C1291.88 309.756 1292.01 307.903 1291.76 305.739C1291.12 300.105 1295.99 295.54 1301.89 295.997C1300.95 296.675 1299.75 296.726 1298.9 297.842C1299.94 297.532 1300.74 297.249 1301.56 297.053C1306.09 295.979 1310.31 296.734 1314.18 299.302C1314.63 299.598 1315.12 300.061 1315.26 300.542C1316.4 304.566 1318.4 308.409 1318.07 312.754C1317.94 314.473 1317.22 316.108 1317.7 317.921C1318.14 319.601 1318.75 321.123 1320.07 322.273C1320.48 322.629 1320.88 322.883 1320.43 323.441C1320.13 323.815 1320.06 324.486 1319.49 324.521C1318.84 324.561 1318.88 323.838 1318.64 323.448C1318.28 322.877 1318.1 322.193 1317.26 321.648C1317.29 322.998 1317.09 324.242 1317.37 325.362C1318.41 329.406 1318 333.544 1318.39 337.625C1318.53 339.066 1318.76 340.495 1318.71 341.948C1318.68 343.015 1319.57 343.522 1320.13 344.223C1320.79 345.037 1321.7 345.667 1321.97 346.796C1321.26 347.126 1320.69 345.892 1320.14 346.535C1319.66 347.094 1320.17 347.856 1320.34 348.494C1321.78 354.039 1321.7 359.718 1321.93 365.372C1321.95 366.067 1321.61 366.195 1321.06 366.31C1320.1 366.515 1320.41 365.777 1320.39 365.392C1320.23 361.527 1320.16 357.657 1319.94 353.795C1319.85 352.208 1319.86 350.56 1318.9 348.688C1318.4 351.31 1318.08 353.616 1317.5 355.85C1316.46 359.773 1315.15 363.627 1314.62 367.67C1314.51 368.442 1314.24 368.794 1313.39 368.548C1312.59 368.315 1312.35 368.073 1312.62 367.123C1313.03 365.705 1313.71 364.317 1313.61 362.459C1312.86 363.201 1312.25 363.787 1311.66 364.381C1308.15 367.873 1303.96 368.524 1299.33 367.337C1298.72 367.182 1298.11 367.027 1297.5 366.911C1294.69 366.386 1294.67 366.386 1294.08 369.105C1293.84 370.203 1293.77 371.338 1293.53 372.436C1293.34 373.279 1294 374.48 1292.47 374.862C1292.22 374.924 1292.36 376.098 1292.66 376.722C1291.95 376.721 1292.17 375.643 1291.38 375.583C1291.32 376.09 1291.19 376.528 1291.24 376.948C1291.95 383.995 1293.13 390.972 1294.56 397.904C1294.9 399.573 1295.95 400.946 1297.65 401.671C1302.53 403.741 1306.18 407.214 1309.01 411.638C1310.35 413.741 1311.78 415.794 1313.17 417.864C1313.73 418.702 1314.08 418.648 1314.16 417.604Z" fill="#21262C"/>
<path d="M915.584 268.004C915.03 266.583 913.624 265.88 912.829 264.643C916.19 263.526 916.19 263.526 915.584 268.004ZM890.279 302.829C890.295 302.04 890.135 301.054 891.359 301.035C892.901 301.009 893.511 302.093 893.686 303.436C893.8 304.307 893.582 305.275 892.463 305.149C891.237 305.01 890.357 304.269 890.279 302.829ZM925.94 312.225C926.618 313.224 928.972 311.605 928.951 314.113C928.948 314.699 929.175 316.122 927.8 315.738C926.319 315.325 924.342 315.374 924.104 313.168C923.965 311.885 925.054 312.427 925.94 312.225ZM943.274 262.684C940.425 258.754 940.561 255.173 941.916 251.473C943.797 254.823 943.319 258.446 943.274 262.684ZM906.23 337.137C907.111 338.781 907.874 340.165 908.597 341.568C909.323 342.979 910.442 344.358 910.613 345.844C910.925 348.535 911.601 350.535 914.555 351.068C915.399 351.219 915.318 352.335 915.536 352.934C916.936 356.758 919.89 359.912 920.589 363.918C920.92 365.812 922.013 367.53 921.808 369.512C921.689 370.652 922.969 371.009 922.902 372.518C922.72 376.517 920.056 380.457 916.118 381.122C913.817 381.51 912.793 383.369 913.657 385.498C914.263 386.996 914.36 388.674 916.369 389.332C919.203 390.259 924.182 390.702 926.453 389.759C925.73 389.066 925.053 388.417 924.248 387.647C926.004 386.737 927.323 385.893 929.393 386.253C930.902 386.517 932.711 385.475 934.284 384.776C935.771 384.116 935.306 382.565 935.145 381.414C934.93 379.855 934.472 378.298 933.903 376.826C932.494 373.185 932.649 369.334 932.29 365.554C932.175 364.339 932.147 363.168 930.804 362.668C929.975 362.361 929.697 361.683 929.621 360.911C929.386 358.443 928.426 356.223 927.423 354.011C926.884 352.819 926.157 351.724 926.607 350.221C926.778 349.647 926.329 348.727 925.909 348.155C924.985 346.9 924.113 345.758 924.269 343.995C924.364 342.907 923.6 341.925 922.637 341.325C921.8 340.803 921.139 340.103 921.16 339.144C921.251 335.172 919.281 331.778 918.139 328.182C916.979 324.523 919.064 321.508 918.996 318.022C919.873 318.398 919.459 319.381 920.256 319.437C921.516 317.31 920.823 314.68 922.258 312.065C922.494 315.97 924.993 316.378 927.721 316.408C929.022 316.423 928.991 317.333 928.765 318.148C928.463 319.228 928.909 319.434 929.817 319.533C931.013 319.665 930.914 318.912 930.931 318.128C930.963 316.663 930.879 315.183 931.479 313.255C931.639 314.727 931.71 315.706 931.86 316.674C931.973 317.408 932.55 317.558 933.174 317.489C933.953 317.403 934.192 316.81 933.896 316.221C932.256 312.96 933.748 311.521 936.537 309.774C939.708 307.786 940.739 303.927 941.68 300.308C942.517 300.88 942.038 302.132 943.556 302.943C942.458 300.102 944.541 297.761 943.3 295.222C942.837 294.278 943.376 293.245 943.424 292.253C943.587 288.915 943.839 285.582 943.481 282.233C943.047 278.197 943.611 274.266 944.971 270.444C945.106 270.066 945.229 269.58 945.112 269.23C943.707 265.027 944.631 260.724 944.547 256.468C944.498 253.935 944.302 251.422 943.054 249.162C942.251 247.705 941.325 247.143 940.564 249.295C937.33 243.128 931.129 240.442 924.937 242.182C919.71 243.651 918.893 248.245 917.792 252.428C917.145 254.889 916.49 257.4 916.066 259.938C916.005 260.305 915.926 260.727 915.574 260.619C913.677 260.037 912.324 261.356 910.757 261.933C909.551 262.378 909.116 261.723 908.998 260.595C908.801 258.727 909.885 257.461 910.895 256.117C914.558 251.247 913.485 245.349 908.386 242.947C905.693 241.676 902.857 242.229 900.222 243.305C898.142 244.155 896.087 244.987 893.852 245.288C893.396 245.347 892.76 245.112 892.583 245.756C892.431 246.312 892.96 246.624 893.274 246.992C893.329 247.054 893.414 247.09 893.462 247.155C894.167 248.115 896.168 247.701 896.043 249.426C895.95 250.713 895.077 251.676 894.017 252.434C893.396 252.879 893.915 253.268 894.181 253.675C895.197 255.228 895.339 257.025 894.929 258.704C894.539 260.309 895.237 260.609 896.447 260.81C899.743 261.356 899.741 261.365 900.691 264.77C895.472 263.904 890.134 263.647 885.221 261.331C883.787 260.657 882.374 260.042 881.221 258.898C879.846 257.533 878.178 256.57 876.419 255.832C872.211 254.072 868.183 251.949 864.13 249.866C862.333 248.944 860.709 247.855 859.384 246.311C856.939 243.466 853.456 242.591 850.003 240.97C850.025 242.389 850.88 242.625 851.503 243.027C852.129 243.432 852.797 243.772 853.425 244.175C854.133 244.631 854.941 244.955 853.762 245.958C852.459 247.07 853.069 249.592 854.704 250.405C854.845 250.477 855.026 250.467 855.189 250.492C860.658 251.322 864.436 255.007 868.318 258.498C876.026 265.429 885.656 268.761 894.77 273.058C895.369 273.34 895.99 273.576 896.598 273.839C897.511 274.231 897.918 274.72 897.191 275.72C896.362 276.862 895.691 278.121 894.891 279.286C893.616 281.149 893.432 282.947 894.873 284.829C897.095 287.729 896.669 291.372 897.379 294.687C897.562 295.545 896.948 296.607 896.083 296.954C894.832 297.453 894.539 298.35 894.521 299.509C894.504 300.545 894.151 300.647 893.136 300.407C889.841 299.629 888.711 300.784 889.041 304.179C889.48 308.694 889.267 313.228 889.22 317.755C889.209 318.846 889.045 319.947 889.153 321.023C889.241 321.875 888.402 323.437 889.915 323.424C891.244 323.412 890.659 321.838 890.77 320.951C890.932 319.625 890.91 318.273 890.952 316.931C891.07 313.172 891.182 309.412 890.652 305.216C893.062 307.493 894.57 306.105 896.02 304.304C897.535 306.337 896.823 308.173 896.073 310.068C895.548 311.391 894.039 313.643 895.025 313.956C896.608 314.459 895.859 311.781 896.79 310.837C896.962 310.663 897.133 310.491 897.26 310.363C899.033 314.392 898.766 318.29 896.725 322.194C895.806 323.953 895.38 325.972 894.593 327.813C893.106 331.296 891.586 334.766 889.939 338.173C889.322 339.45 889.44 340.779 889.216 342.072C888.678 345.175 886.697 348.336 888.461 351.438C890.467 354.965 888.812 357.304 887.256 360.372C886.246 362.364 884.864 364.452 884.484 366.98C883.674 372.367 877.354 378.09 871.778 378.985C871.064 379.1 870.294 378.94 869.56 378.83C868.212 378.629 867.106 378.853 866.464 380.25C865.807 381.684 865.766 382.964 867.083 384.07C870 386.517 872.917 388.652 876.977 389.117C880.288 389.497 883.681 389.27 886.96 390.355C888.451 390.85 890.208 390.63 890.272 388.048C890.339 385.3 890.952 382.567 891.026 379.818C891.069 378.189 891.529 376.689 892.499 375.691C893.734 374.419 894.142 372.913 894.658 371.389C896.606 365.633 899.578 360.247 900.685 354.183C900.952 352.72 901.182 351.24 901.786 349.839C902.142 349.008 902.413 347.921 901.842 347.158C900.292 345.09 901.097 343.799 902.879 342.467C904.589 341.19 905.336 339.146 906.23 337.137Z" fill="#21262C"/>
</g>
<defs>
<clipPath id="clip0_20_3">
<rect width="1906" height="527" fill="white"/>
</clipPath>
</defs>
</svg>  
