<svg width="20" height="20" viewBox="0 0 20 20" fill="none" xmlns="http://www.w3.org/2000/svg">
<path d="M10.0234 1.10547C6.82031 1.10547 4.22461 3.66406 4.22461 6.82031C4.22461 7.80078 4.47461 8.72266 4.91602 9.52734C5.65234 10.875 8.16992 14.7246 9.375 16.5508C9.95703 17.0957 10.5273 16.6758 10.6738 16.5508C11.8711 14.7285 14.3711 10.8945 15.1133 9.56641C15.5684 8.75195 15.8262 7.81445 15.8262 6.82031C15.8223 3.66406 13.2266 1.10547 10.0234 1.10547ZM14.207 9.18359C13.502 10.375 11.0137 14.3457 10.248 15.5664C10.0879 15.623 9.9375 15.6152 9.79883 15.5664C9.03906 14.3496 6.56641 10.3926 5.85742 9.21484C5.43359 8.50977 5.18945 7.6875 5.18945 6.81055C5.18945 4.19336 7.35352 2.07031 10.0215 2.07031C12.6895 2.07031 14.8535 4.19141 14.8535 6.81055C14.8555 7.67578 14.6191 8.48633 14.207 9.18359Z" fill="#339279"/>
<path d="M10.0234 9.33008C8.64063 9.33008 7.51562 8.20508 7.51562 6.82227C7.51562 5.43945 8.64063 4.31445 10.0234 4.31445C11.4063 4.31445 12.5312 5.43945 12.5312 6.82227C12.5312 8.20508 11.4063 9.33008 10.0234 9.33008ZM10.0234 5.25391C9.1582 5.25391 8.45508 5.95703 8.45508 6.82227C8.45508 7.6875 9.1582 8.39062 10.0234 8.39062C10.8887 8.39062 11.5918 7.6875 11.5918 6.82227C11.5918 5.95703 10.8887 5.25391 10.0234 5.25391ZM9.99805 18.9375C6.80664 18.9375 4.40039 17.7734 4.40039 16.2285C4.40039 15.3281 5.22852 14.5254 6.67383 14.0273C6.89844 13.9492 7.14453 14.0684 7.2207 14.293C7.29883 14.5176 7.17969 14.7637 6.95508 14.8398C5.91016 15.2012 5.26172 15.7324 5.26172 16.2285C5.26172 17.1016 7.20703 18.0762 9.99805 18.0762C12.7891 18.0762 14.7344 17.1016 14.7344 16.2285C14.7344 15.7324 14.084 15.2012 13.0391 14.8398C12.8145 14.7617 12.6953 14.5176 12.7734 14.293C12.8516 14.0684 13.0957 13.9492 13.3203 14.0273C14.7656 14.5254 15.5957 15.3301 15.5957 16.2305C15.5957 17.7715 13.1895 18.9375 9.99805 18.9375Z" fill="#339279"/>
</svg>
